<svg width="90" height="66" viewBox="0 0 90 66" fill="none" xmlns="http://www.w3.org/2000/svg">
<path fill-rule="evenodd" clip-rule="evenodd" d="M77.8808 47.7075H90V49.695H85.0331V56.4523H82.8477V49.695H77.8808V47.7075ZM19.2715 62.6134H17.0861V63.4084H19.0728C19.4702 63.4084 19.6689 63.4084 19.8675 63.6071C19.8675 63.6071 19.8675 63.8059 19.8675 64.2034V64.6008C19.8675 64.9983 19.8675 65.1971 19.8675 65.1971C19.6689 65.3958 19.4702 65.3958 19.0728 65.3958H17.0861C16.6887 65.3958 16.4901 65.3958 16.4901 65.1971C16.2914 65.1971 16.2914 64.9983 16.2914 64.6008L16.8874 64.4021V64.7996H19.2715V64.0046H17.2848C16.8874 64.0046 16.6887 64.0046 16.4901 63.8059C16.4901 63.8059 16.2914 63.6071 16.2914 63.2096V62.8121C16.2914 62.6134 16.4901 62.4146 16.4901 62.2159C16.6887 62.2159 16.8874 62.0172 17.2848 62.0172H19.0728C19.4702 62.0172 19.6689 62.2159 19.6689 62.2159C19.8675 62.4146 19.8675 62.6134 19.8675 62.8121L19.2715 63.0109V62.6134ZM24.4371 62.8121C24.4371 62.6134 24.4371 62.4146 24.6358 62.2159C24.6358 62.2159 25.0331 62.0172 25.2318 62.0172H27.8146C28.0132 62.0172 28.2119 62.2159 28.4106 62.2159C28.4106 62.4146 28.6093 62.6134 28.6093 62.8121V64.6008C28.6093 64.9983 28.4106 65.1971 28.4106 65.1971C28.2119 65.3958 28.0132 65.3958 27.8146 65.3958H25.2318C25.0331 65.3958 24.6358 65.3958 24.6358 65.1971C24.4371 65.1971 24.4371 64.9983 24.4371 64.6008V62.8121ZM25.2318 64.7996H27.8146V62.6134H25.2318V64.7996ZM33.1788 65.3958V62.0172H33.9735V64.7996H36.3576V65.3958H33.1788ZM41.1258 62.0172V64.7996H43.3113V62.0172H44.106V64.6008C44.106 64.9983 44.106 65.1971 43.9073 65.1971C43.9073 65.3958 43.7086 65.3958 43.3113 65.3958H41.1258C40.9272 65.3958 40.7285 65.3958 40.5298 65.1971C40.5298 65.1971 40.3311 64.9983 40.3311 64.6008V62.0172H41.1258ZM50.2649 62.6134V65.3958H49.6689V62.6134H48.0795V62.0172H51.8543V62.6134H50.2649ZM55.8278 65.3958V62.0172H56.6225V65.3958H55.8278ZM61.1921 62.8121C61.1921 62.6134 61.1921 62.4146 61.3907 62.2159C61.3907 62.2159 61.5894 62.0172 61.9868 62.0172H64.3709C64.7682 62.0172 64.9669 62.2159 65.1656 62.2159C65.1656 62.4146 65.1656 62.6134 65.1656 62.8121V64.6008C65.1656 64.9983 65.1656 65.1971 65.1656 65.1971C64.9669 65.3958 64.7682 65.3958 64.3709 65.3958H61.9868C61.5894 65.3958 61.3907 65.3958 61.3907 65.1971C61.1921 65.1971 61.1921 64.9983 61.1921 64.6008V62.8121ZM61.9868 64.7996H64.5695V62.6134H61.9868V64.7996ZM69.9338 65.3958V62.0172H70.3311L72.7152 64.0046L72.9139 64.2034L73.1126 64.4021C73.1126 64.2034 73.1126 64.0046 73.1126 64.0046V63.8059V62.0172H73.7086V65.3958H73.3113L70.7285 63.4084C70.7285 63.2096 70.7285 63.2096 70.7285 63.2096C70.5298 63.2096 70.5298 63.2096 70.5298 63.0109C70.5298 63.2096 70.5298 63.2096 70.5298 63.4084V63.6071V65.3958H69.9338ZM0 47.7075H12.1192V49.695H7.15232V56.4523H4.96689V49.695H0V47.7075ZM61.3907 53.0736H51.2583V54.2661H61.3907V56.4523H51.2583H50.2649H49.2715V51.0862H51.2583H60.3974H61.3907V53.0736ZM49.2715 49.695V47.7075H50.2649H51.2583H61.3907V49.695H60.3974H51.2583H49.2715ZM16.0927 49.695V51.0862H24.4371C24.8344 51.0862 24.8344 51.0862 24.8344 50.6887V50.0925C24.8344 49.8937 24.8344 49.695 24.4371 49.695H16.0927ZM14.106 47.7075H24.4371C26.0265 47.7075 27.0199 48.5025 27.0199 49.8937V50.6887C27.0199 52.0799 26.0265 52.8749 24.4371 52.8749H23.6424L27.2185 56.4523H24.4371L21.0596 52.8749H16.0927V56.4523H14.106V47.7075ZM29.6026 47.7075H31.5894V56.4523H29.6026V47.7075ZM36.1589 54.2661H44.106C44.9007 54.2661 45.0993 54.0674 45.0993 53.6699V50.4899C45.0993 49.8937 44.9007 49.695 44.106 49.695H36.1589V54.2661ZM33.9735 47.7075H44.106C46.2914 47.7075 47.2848 48.7012 47.2848 50.4899V53.6699C47.2848 55.4586 46.2914 56.4523 44.106 56.4523H33.9735V47.7075ZM66.9536 50.2912C66.9536 50.2912 66.755 50.0925 66.5563 49.8937C66.1589 49.8937 65.9603 49.695 65.7616 49.695V56.4523H63.5762V47.7075H65.7616C66.3576 47.7075 66.9536 47.9063 67.351 48.105C67.5497 48.105 67.947 48.5025 68.3444 48.9L72.5166 53.6699C72.7152 53.8686 72.9139 54.0674 73.1126 54.0674C73.3113 54.2661 73.5099 54.2661 73.7086 54.2661H73.9073V47.7075H75.894V56.4523H73.7086C73.1126 56.4523 72.7152 56.2536 72.3179 56.0548C71.9205 55.8561 71.5232 55.6573 71.1258 55.0611L66.9536 50.2912Z" fill="white"/>
<path fill-rule="evenodd" clip-rule="evenodd" d="M45.1062 25.6383V0L42.1261 6.75738L43.9141 5.76365L43.3181 21.2659L45.1062 25.6383Z" fill="#B88835"/>
<path fill-rule="evenodd" clip-rule="evenodd" d="M43.3098 21.2663C41.7204 20.67 39.9323 20.0738 38.1442 19.8751C38.9389 17.8876 39.3362 15.7014 39.3362 13.5153C39.3362 12.919 39.3362 12.3228 39.1376 11.7266C39.1376 14.9065 38.1442 17.8876 36.5547 20.4713C40.1309 21.2663 43.3098 23.055 45.0979 25.6386L43.3098 21.2663Z" fill="#DBA64B"/>
<path fill-rule="evenodd" clip-rule="evenodd" d="M45.1256 25.6451C43.3376 23.0613 40.1587 21.2726 36.5825 20.4776C38.172 17.8939 39.1653 14.9127 39.1653 11.7328C39.7614 12.1303 40.3574 12.7265 41.1521 13.124C39.96 11.7328 39.1653 10.1428 38.5693 8.35409C38.3706 8.15534 38.3706 7.75785 38.172 7.5591V7.36035C38.3706 8.15534 38.3706 9.14907 38.3706 10.1428C38.3706 10.3416 38.3706 10.739 38.3706 10.9378C38.172 14.1177 37.1786 17.2977 35.3905 19.8814C34.9931 20.2789 34.5958 20.8751 34.1984 21.2726C37.1786 21.8689 39.96 23.2601 42.1455 25.2476L42.3442 25.4463C42.5428 25.6451 42.5428 25.6451 42.5428 25.6451C42.7415 25.8438 42.9402 26.0425 42.9402 26.2413C43.1389 26.6388 43.1389 27.0363 43.1389 27.235C43.1389 27.235 43.1389 27.4338 43.1389 27.6325H45.1256V25.6451ZM43.1389 28.4275H42.9402C42.7415 28.4275 42.5428 28.6263 42.5428 29.0237V30.2162C42.5428 30.415 42.7415 30.6137 42.9402 30.6137H43.1389H45.1256V28.4275H43.1389Z" fill="#B88835"/>
<path fill-rule="evenodd" clip-rule="evenodd" d="M45.1145 25.6383V0L47.8959 6.75738L46.1079 5.76365L46.7039 21.2659L45.1145 25.6383Z" fill="#DBA64B"/>
<path fill-rule="evenodd" clip-rule="evenodd" d="M46.7039 21.2663C48.2933 20.67 50.0813 20.0738 52.068 19.8751C51.2734 17.8876 50.6773 15.7014 50.6773 13.5153C50.6773 12.919 50.6773 12.3228 50.876 11.7266C50.876 14.9065 51.8694 17.8876 53.4588 20.4713C49.8826 21.2663 46.7039 23.055 45.1145 25.6386L46.7039 21.2663Z" fill="#B88835"/>
<path fill-rule="evenodd" clip-rule="evenodd" d="M45.1145 25.6451C46.7039 23.0613 49.8827 21.2726 53.4588 20.4776C51.8694 17.8939 50.876 14.9127 50.876 11.7328C50.28 12.1303 49.684 12.7265 48.8893 13.124C50.0813 11.7328 50.876 10.1428 51.472 8.35409C51.6707 8.15534 51.6707 7.75785 51.8694 7.5591V7.36035C51.6707 8.15534 51.6707 9.14907 51.6707 10.1428C51.6707 10.3416 51.6707 10.739 51.6707 10.9378C51.8694 14.1177 52.8628 17.2977 54.6508 19.8814C55.0482 20.2789 55.4455 20.8751 55.8429 21.2726C52.8628 21.8689 50.0813 23.2601 47.8959 25.2476L47.6973 25.4463C47.4986 25.6451 47.4986 25.6451 47.4986 25.6451C47.2999 25.8438 47.1012 26.0425 47.1012 26.2413C46.9026 26.6388 46.9026 27.235 46.9026 27.6325H45.1145V25.6451ZM46.9026 28.4275H47.1012C47.2999 28.4275 47.4986 28.6263 47.4986 29.0237V30.2162C47.4986 30.415 47.2999 30.6137 47.1012 30.6137H45.1145V28.4275H46.9026Z" fill="#DBA64B"/>
<path fill-rule="evenodd" clip-rule="evenodd" d="M43.9379 35.3783V31.4033H46.1233V35.3783H43.9379Z" fill="#DBA64B"/>
<path fill-rule="evenodd" clip-rule="evenodd" d="M53.4553 22.6592C54.25 24.0504 54.6473 25.6403 54.6473 27.2303C54.6473 32.5964 50.4751 36.9688 45.1109 36.9688C39.7466 36.9688 35.3757 32.5964 35.3757 27.2303C35.3757 25.6403 35.7731 24.0504 36.5678 22.6592C37.1638 22.8579 37.7598 23.0567 38.3559 23.4542C37.7598 24.6466 37.3625 25.8391 37.3625 27.2303C37.3625 31.6027 40.74 34.9813 45.1109 34.9813C49.2831 34.9813 52.6605 31.6027 52.6605 27.2303C52.6605 25.8391 52.2632 24.6466 51.6672 23.4542C52.2632 23.0567 52.8592 22.8579 53.4553 22.6592Z" fill="#B88835"/>
</svg>
