<?xml version="1.0" encoding="utf-8"?>
<!-- Generator: Adobe Illustrator 23.0.1, SVG Export Plug-In . SVG Version: 6.00 Build 0)  -->
<svg version="1.1" id="Layer_1" xmlns="http://www.w3.org/2000/svg" xmlns:xlink="http://www.w3.org/1999/xlink" x="0px" y="0px"
	 viewBox="0 0 301 119" style="enable-background:new 0 0 301 119;" xml:space="preserve">
<style type="text/css">
	.st0{fill-rule:evenodd;clip-rule:evenodd;fill:#FFFFFF;}
	.st1{fill-rule:evenodd;clip-rule:evenodd;fill:#B4832C;}
	.st2{fill-rule:evenodd;clip-rule:evenodd;fill:#DCA43D;}
	.st3{fill:#DCA43D;}
	.st4{fill-rule:evenodd;clip-rule:evenodd;fill:url(#SVGID_1_);}
	.st5{fill-rule:evenodd;clip-rule:evenodd;fill:url(#SVGID_2_);}
	.st6{fill:#B4832C;}
	.st7{fill-rule:evenodd;clip-rule:evenodd;fill:url(#SVGID_3_);}
	.st8{fill-rule:evenodd;clip-rule:evenodd;fill:url(#SVGID_4_);}
</style>
<path class="st0" d="M271.5,39H300v4.7h-11.7V59h-5V43.7h-11.9V39z M88,39h28.5v4.7h-11.7V59h-5V43.7H88V39z M232.5,51.2H209v3.1
	h23.5V59H204V46.8h28.5V51.2z M204,43.7h28.5V39H204V43.7z M126,43.7v3.2h19.7c0.7,0,1-0.3,1-0.8v-1.6c0-0.5-0.4-0.8-1.1-0.8H126z
	 M121.1,39h24.5c3.9,0,5.9,1.6,5.9,4.9v1.8c0,3.4-2,5.1-5.9,5.1h-1.7l8.4,8.2h-6.9l-7.9-8H126v8h-5V39z M157.6,59h5V39h-5V59z
	 M172.9,54.3h18.8c1.8,0,2.7-0.6,2.7-1.7v-7.3c0-1.1-0.9-1.7-2.7-1.7h-18.8V54.3z M168,39h23.8c5.1,0,7.7,2.1,7.7,6.4v7.3
	c0,4.2-2.6,6.4-7.7,6.4H168V39z M245.9,45.2c-0.4-0.4-0.8-0.8-1.3-1.1c-0.5-0.3-1-0.4-1.6-0.4h-0.3V59h-4.8V39h5.1
	c1.4,0,2.5,0.2,3.4,0.7c0.9,0.4,1.8,1.1,2.7,2l9.8,11.1c0.4,0.4,0.8,0.7,1.3,1.1c0.5,0.3,1,0.4,1.6,0.4h0.3V39h4.9v20h-5.1
	c-1.4,0-2.6-0.2-3.6-0.7c-1-0.4-1.9-1.2-2.7-2.2L245.9,45.2L245.9,45.2z"/>
<path class="st0" d="M143.4,70.2v1.7h-4.7c-0.4,0-0.7,0.1-0.9,0.3c-0.2,0.2-0.3,0.5-0.3,0.8c0,0.1,0,0.3,0.1,0.4
	c0,0.1,0.1,0.3,0.2,0.4c0.1,0.1,0.2,0.2,0.4,0.3c0.2,0.1,0.4,0.1,0.7,0.1h2.1c0.6,0,1.1,0.1,1.5,0.3c0.4,0.2,0.7,0.4,0.9,0.7
	c0.2,0.3,0.4,0.6,0.5,0.9c0.1,0.3,0.1,0.7,0.1,1c0,0.4-0.1,0.8-0.2,1.1c-0.1,0.3-0.3,0.6-0.5,0.9c-0.2,0.3-0.5,0.5-0.9,0.6
	c-0.4,0.1-0.8,0.2-1.3,0.2h-5.1v-1.7h5.1c0.4,0,0.8-0.1,1-0.3c0.2-0.2,0.3-0.5,0.3-0.9c0-0.1,0-0.3-0.1-0.5c0-0.1-0.1-0.3-0.2-0.4
	c-0.1-0.1-0.3-0.2-0.4-0.3c-0.2-0.1-0.4-0.1-0.7-0.1H139c-0.6,0-1.1-0.1-1.5-0.2c-0.4-0.2-0.7-0.4-0.9-0.6c-0.2-0.3-0.4-0.6-0.5-0.9
	c-0.1-0.3-0.1-0.7-0.1-1c0-0.4,0.1-0.8,0.2-1.1c0.1-0.3,0.3-0.6,0.5-0.9c0.2-0.3,0.5-0.4,0.9-0.6c0.4-0.1,0.8-0.2,1.3-0.2H143.4z
	 M157.3,70.2c1.3,0,2.4,0.4,3.1,1.2c0.7,0.8,1.1,2,1.1,3.6c0,1.6-0.4,2.8-1.1,3.6c-0.7,0.8-1.7,1.2-3.1,1.2h-1.2
	c-1.3,0-2.4-0.4-3.1-1.2c-0.7-0.8-1.1-2-1.1-3.6c0-1.6,0.4-2.8,1.1-3.6c0.7-0.8,1.7-1.2,3.1-1.2H157.3z M156.1,71.9
	c-0.9,0-1.5,0.3-1.9,0.7c-0.4,0.5-0.6,1.3-0.6,2.4c0,1.1,0.2,1.9,0.6,2.4s1,0.7,1.9,0.7h1.2c0.9,0,1.5-0.2,1.9-0.7
	c0.4-0.5,0.6-1.3,0.6-2.4c0-1.1-0.2-1.9-0.6-2.4c-0.4-0.5-1-0.7-1.9-0.7H156.1z M171.2,70.2v6.3c0,0.2,0,0.4,0.1,0.7
	c0.1,0.2,0.2,0.4,0.3,0.5c0.1,0.1,0.3,0.3,0.6,0.3c0.2,0.1,0.5,0.1,0.9,0.1h3.5v1.7H173c-0.6,0-1.1-0.1-1.5-0.2
	c-0.4-0.2-0.8-0.4-1-0.7c-0.3-0.3-0.5-0.6-0.6-1.1c-0.1-0.4-0.2-0.8-0.2-1.3v-6.3H171.2z M185.8,70.2v6.4c0,0.5,0.1,0.9,0.4,1.1
	c0.2,0.3,0.6,0.4,1.2,0.4h1.6c0.5,0,0.9-0.1,1.1-0.4c0.2-0.3,0.4-0.6,0.4-1.1v-6.4h1.6v6.6c0,1-0.2,1.8-0.7,2.3
	c-0.5,0.5-1.2,0.8-2.2,0.8h-1.9c-2,0-2.9-1-2.9-3.1v-6.6H185.8z M206.8,70.2v1.7h-2.7v8h-1.6v-8h-2.7v-1.7H206.8z M214.7,79.8h1.6
	v-9.7h-1.6V79.8z M229.9,70.2c1.3,0,2.4,0.4,3.1,1.2c0.7,0.8,1.1,2,1.1,3.6c0,1.6-0.3,2.8-1.1,3.6c-0.7,0.8-1.7,1.2-3.1,1.2h-1.2
	c-1.3,0-2.3-0.4-3.1-1.2c-0.7-0.8-1.1-2-1.1-3.6c0-1.6,0.4-2.8,1.1-3.6c0.7-0.8,1.7-1.2,3.1-1.2H229.9z M228.7,71.9
	c-0.9,0-1.5,0.3-1.9,0.7c-0.4,0.5-0.6,1.3-0.6,2.4c0,1.1,0.2,1.9,0.6,2.4c0.4,0.5,1,0.7,1.9,0.7h1.2c0.9,0,1.5-0.2,1.9-0.7
	c0.4-0.5,0.6-1.3,0.6-2.4c0-1.1-0.2-1.9-0.6-2.4c-0.4-0.5-1-0.7-1.9-0.7H228.7z M243.9,79.8h-1.6v-7.7c0-0.6,0.2-1.1,0.5-1.5
	c0.3-0.4,0.9-0.6,1.6-0.6c0.6,0,1.1,0.2,1.4,0.5c0.3,0.3,0.6,0.8,0.8,1.3l2.7,6.2c0,0.1,0.1,0.2,0.2,0.3c0.1,0.1,0.2,0.1,0.4,0.1
	c0.2,0,0.3-0.1,0.4-0.2c0.1-0.1,0.1-0.2,0.1-0.4v-7.6h1.6v7.7c0,0.6-0.2,1.1-0.5,1.5c-0.3,0.4-0.9,0.6-1.6,0.6c-0.3,0-0.6,0-0.8-0.1
	c-0.2-0.1-0.5-0.2-0.6-0.4c-0.2-0.2-0.3-0.3-0.5-0.6c-0.1-0.2-0.2-0.5-0.3-0.7L245,72c-0.1-0.3-0.3-0.4-0.6-0.4
	c-0.2,0-0.3,0.1-0.4,0.1c-0.1,0.1-0.1,0.2-0.1,0.4V79.8L243.9,79.8z"/>
<polygon class="st1" points="39.8,80.3 39.8,6.3 31.3,25.7 36.8,22.8 35.1,68.1 "/>
<path class="st2" d="M35.1,68.1c-4.9-2.3-10.1-3.7-15.4-4.3c2.4-5.9,3.6-12.2,3.6-18.5c0-1.7-0.1-3.5-0.3-5.2
	c0,9.2-2.9,17.8-7.4,25.7c10,2,19.7,7.1,24.3,14.5L35.1,68.1z"/>
<path class="st1" d="M39.8,80.2c-4.6-7.3-14.3-12.5-24.3-14.5c4.6-7.9,7.4-16.5,7.4-25.7c1.8,1.4,3.6,2.8,5.6,3.9
	c-3.2-4.1-5.7-8.6-7.5-13.5c-0.3-0.8-0.6-1.6-0.8-2.4l-0.3-0.8c0.5,2.7,0.7,5.5,0.7,8.2c0,0.8,0,1.6-0.1,2.3
	C20,47,17.1,55.9,11.9,63.5c-1,1.5-2.1,2.9-3.3,4.3c8.6,1.6,16.5,5.5,22.9,11.5l0.4,0.3l0.4,0.4l0,0c0.2,0.2,0.3,0.3,0.5,0.5
	c0.5,0.6,0.9,1.2,1.2,1.9c0.4,0.9,0.6,1.8,0.5,2.7c0,0.2,0,0.7,0,1.2h5.4L39.8,80.2L39.8,80.2z M34.4,88.5h-0.5
	c-0.8,0-1.5,0.7-1.5,1.5v3.6c0,0.8,0.7,1.5,1.5,1.5h5.8v-6.6H34.4z"/>
<polygon class="st2" points="39.8,80.3 39.8,6.3 48.2,25.7 42.7,22.8 44.5,68.1 "/>
<path class="st1" d="M44.5,68.1c4.9-2.3,10.1-3.7,15.4-4.3c-2.4-5.9-3.6-12.2-3.6-18.5c0-1.7,0.1-3.5,0.3-5.2
	c0,9.2,2.9,17.8,7.4,25.7c-10,2-19.7,7.1-24.3,14.5L44.5,68.1z"/>
<path class="st2" d="M39.8,80.2c4.6-7.3,14.3-12.5,24.3-14.5c-4.6-7.9-7.4-16.5-7.4-25.7c-1.7,1.4-3.6,2.7-5.5,3.9
	c3.2-4.1,5.7-8.6,7.5-13.5c0.3-0.8,0.6-1.6,0.8-2.4l0.3-0.8c-0.5,2.7-0.7,5.5-0.7,8.2c0,0.8,0,1.6,0.1,2.3
	c0.5,11.1,4.7,21.6,11.9,30c-8.6,1.6-16.5,5.5-22.9,11.5l-0.4,0.3L47.4,80l0,0c-0.2,0.2-0.3,0.3-0.5,0.5c-0.5,0.6-0.9,1.2-1.2,1.9
	c-0.4,1.3-0.5,2.6-0.5,3.9h-5.4L39.8,80.2L39.8,80.2z M45.2,88.5h0.4c0.8,0,1.5,0.7,1.5,1.5v3.6c0,0.8-0.7,1.5-1.5,1.5h-5.8v-6.5
	H45.2z"/>
<rect x="36.3" y="97.2" class="st3" width="6.8" height="11.3"/>
<path class="st1" d="M64.4,71.8c7.5,13.6,2.5,30.7-11.1,38.2c-13.6,7.5-30.7,2.5-38.2-11.1c-4.6-8.4-4.6-18.7,0-27.1
	c1.9,0.7,3.7,1.5,5.4,2.4c-6.2,10.6-2.6,24.2,8,30.4s24.2,2.6,30.4-8c4-6.9,4-15.4,0-22.4C60.7,73.2,62.5,72.4,64.4,71.8z"/>
<linearGradient id="SVGID_1_" gradientUnits="userSpaceOnUse" x1="23.8962" y1="16.8585" x2="28.3346" y2="38.006" gradientTransform="matrix(1 0 0 -1 0 120)">
	<stop  offset="0" style="stop-color:#F6B849"/>
	<stop  offset="1" style="stop-color:#B4832C"/>
</linearGradient>
<path class="st4" d="M36.3,107.3C24.2,105.4,15.9,94,17.8,81.9c0.4-2.7,1.4-5.3,2.7-7.7c-1.7-0.9-3.5-1.7-5.4-2.4
	c-0.1,0.3-0.3,0.5-0.4,0.8c1.2,0.5,2.3,1,3.4,1.6c-6.2,10.6-2.6,24.2,8,30.4c3.1,1.8,6.6,2.8,10.2,3h1c0.4,0,0.8,0,1.2,0
	C37.8,107.5,37.1,107.4,36.3,107.3z"/>
<linearGradient id="SVGID_2_" gradientUnits="userSpaceOnUse" x1="50.8227" y1="7.2043" x2="57.0705" y2="38.6509" gradientTransform="matrix(1 0 0 -1 0 120)">
	<stop  offset="0" style="stop-color:#F6B849"/>
	<stop  offset="1" style="stop-color:#B4832C"/>
</linearGradient>
<path class="st5" d="M65.5,85.3c0,15.1-11.9,27.4-26.9,28.1h1.2c15.5,0,28.1-12.6,28.1-28.2c0-4.7-1.2-9.4-3.5-13.5
	c-0.7,0.2-1.3,0.5-2,0.8C64.4,76.5,65.5,80.9,65.5,85.3z"/>
<rect x="36.3" y="97.2" class="st6" width="3.4" height="11.3"/>
<polygon class="st1" points="39.8,80.3 39.8,6.3 31.3,25.7 36.8,22.8 35.1,68.1 "/>
<path class="st2" d="M35.1,68.1c-4.9-2.3-10.1-3.7-15.4-4.3c2.4-5.9,3.6-12.2,3.6-18.5c0-1.7-0.1-3.5-0.3-5.2
	c0,9.2-2.9,17.8-7.4,25.7c10,2,19.7,7.1,24.3,14.5L35.1,68.1z"/>
<path class="st1" d="M39.8,80.2c-4.6-7.3-14.3-12.5-24.3-14.5c4.6-7.9,7.4-16.5,7.4-25.7c1.8,1.4,3.6,2.8,5.6,3.9
	c-3.2-4.1-5.7-8.6-7.5-13.5c-0.3-0.8-0.6-1.6-0.8-2.4l-0.3-0.8c0.5,2.7,0.7,5.5,0.7,8.2c0,0.8,0,1.6-0.1,2.3
	C20,47,17.1,55.9,11.9,63.5c-1,1.5-2.1,2.9-3.3,4.3c8.6,1.6,16.5,5.5,22.9,11.5l0.4,0.3l0.4,0.4l0,0c0.2,0.2,0.3,0.3,0.5,0.5
	c0.5,0.6,0.9,1.2,1.2,1.9c0.4,0.9,0.6,1.8,0.5,2.7c0,0.2,0,0.7,0,1.2h5.4L39.8,80.2L39.8,80.2z M34.4,88.5h-0.5
	c-0.8,0-1.5,0.7-1.5,1.5v3.6c0,0.8,0.7,1.5,1.5,1.5h5.8v-6.6H34.4z"/>
<polygon class="st2" points="39.8,80.3 39.8,6.3 48.2,25.7 42.7,22.8 44.5,68.1 "/>
<path class="st1" d="M44.5,68.1c4.9-2.3,10.1-3.7,15.4-4.3c-2.4-5.9-3.6-12.2-3.6-18.5c0-1.7,0.1-3.5,0.3-5.2
	c0,9.2,2.9,17.8,7.4,25.7c-10,2-19.7,7.1-24.3,14.5L44.5,68.1z"/>
<path class="st2" d="M39.8,80.2c4.6-7.3,14.3-12.5,24.3-14.5c-4.6-7.9-7.4-16.5-7.4-25.7c-1.7,1.4-3.6,2.7-5.5,3.9
	c3.2-4.1,5.7-8.6,7.5-13.5c0.3-0.8,0.6-1.6,0.8-2.4l0.3-0.8c-0.5,2.7-0.7,5.5-0.7,8.2c0,0.8,0,1.6,0.1,2.3
	c0.5,11.1,4.7,21.6,11.9,30c-8.6,1.6-16.5,5.5-22.9,11.5l-0.4,0.3L47.4,80l0,0c-0.2,0.2-0.3,0.3-0.5,0.5c-0.5,0.6-0.9,1.2-1.2,1.9
	c-0.4,1.3-0.5,2.6-0.5,3.9h-5.4L39.8,80.2L39.8,80.2z M45.2,88.5h0.4c0.8,0,1.5,0.7,1.5,1.5v3.6c0,0.8-0.7,1.5-1.5,1.5h-5.8v-6.5
	H45.2z"/>
<rect x="36.3" y="97.2" class="st3" width="6.8" height="11.3"/>
<path class="st1" d="M64.4,71.8c7.5,13.6,2.5,30.7-11.1,38.2c-13.6,7.5-30.7,2.5-38.2-11.1c-4.6-8.4-4.6-18.7,0-27.1
	c1.9,0.7,3.7,1.5,5.4,2.4c-6.2,10.6-2.6,24.2,8,30.4s24.2,2.6,30.4-8c4-6.9,4-15.4,0-22.4C60.7,73.2,62.5,72.4,64.4,71.8z"/>
<linearGradient id="SVGID_3_" gradientUnits="userSpaceOnUse" x1="23.8962" y1="16.8585" x2="28.3346" y2="38.006" gradientTransform="matrix(1 0 0 -1 0 120)">
	<stop  offset="0" style="stop-color:#F6B849"/>
	<stop  offset="1" style="stop-color:#B4832C"/>
</linearGradient>
<path class="st7" d="M36.3,107.3C24.2,105.4,15.9,94,17.8,81.9c0.4-2.7,1.4-5.3,2.7-7.7c-1.7-0.9-3.5-1.7-5.4-2.4
	c-0.1,0.3-0.3,0.5-0.4,0.8c1.2,0.5,2.3,1,3.4,1.6c-6.2,10.6-2.6,24.2,8,30.4c3.1,1.8,6.6,2.8,10.2,3h1c0.4,0,0.8,0,1.2,0
	C37.8,107.5,37.1,107.4,36.3,107.3z"/>
<linearGradient id="SVGID_4_" gradientUnits="userSpaceOnUse" x1="50.8227" y1="7.2043" x2="57.0705" y2="38.6509" gradientTransform="matrix(1 0 0 -1 0 120)">
	<stop  offset="0" style="stop-color:#F6B849"/>
	<stop  offset="1" style="stop-color:#B4832C"/>
</linearGradient>
<path class="st8" d="M65.5,85.3c0,15.1-11.9,27.4-26.9,28.1h1.2c15.5,0,28.1-12.6,28.1-28.2c0-4.7-1.2-9.4-3.5-13.5
	c-0.7,0.2-1.3,0.5-2,0.8C64.4,76.5,65.5,80.9,65.5,85.3z"/>
<rect x="36.3" y="97.2" class="st6" width="3.4" height="11.3"/>
</svg>
