<?xml version="1.0" encoding="utf-8"?>
<!-- Generator: Adobe Illustrator 23.0.1, SVG Export Plug-In . SVG Version: 6.00 Build 0)  -->
<svg version="1.1" id="Layer_1" xmlns="http://www.w3.org/2000/svg" xmlns:xlink="http://www.w3.org/1999/xlink" x="0px" y="0px"
	 viewBox="0 0 186 126" style="enable-background:new 0 0 186 126;" xml:space="preserve">
<style type="text/css">
	.st0{fill-rule:evenodd;clip-rule:evenodd;fill:#FBC25E;}
	.st1{fill:#FBC25E;}
</style>
<path class="st0" d="M125.4,94.6c1.5,0.7,2.6,1.3,5.2,1.3c1.3,0,2.3,1,2.3,2.3c0,1.3-1,2.3-2.3,2.3c-3.7,0-5.6-1-7.3-1.8v0v0
	c-1.5-0.7-2.6-1.3-5.2-1.3c-2.6,0-3.8,0.6-5.2,1.3l0,0v0v0c-1.7,0.8-3.6,1.8-7.3,1.8c-3.7,0-5.6-1-7.3-1.8l0,0
	c-1.5-0.7-2.6-1.3-5.2-1.3c-2.6,0-3.8,0.6-5.2,1.3l0,0l0,0c-1.7,0.8-3.6,1.8-7.3,1.8c-3.7,0-5.6-1-7.3-1.8c-1.5-0.7-2.6-1.3-5.2-1.3
	c-2.6,0-3.8,0.6-5.2,1.3l0,0c-1.7,0.8-3.6,1.8-7.3,1.8c-1.3,0-2.3-1-2.3-2.3c0-1.3,1-2.3,2.3-2.3c2.6,0,3.8-0.6,5.2-1.3l0,0
	c0.6-0.3,1.2-0.6,2-0.9l-7.9-20.8c-0.6-1.6-0.5-3.4,0.3-5c0.8-1.5,2.2-2.7,3.9-3.1l5.5-1.4V47c0-3.4,2.8-6.2,6.2-6.2h10.8v-6
	c0-4.8,3.9-8.7,8.7-8.7h6c4.8,0,8.7,3.9,8.7,8.7v6h10.8c3.4,0,6.2,2.8,6.2,6.2v16.3l5.5,1.4c1.7,0.4,3.1,1.6,3.9,3.1
	c0.8,1.5,0.9,3.4,0.3,5l-7.9,20.8C124.2,94,124.8,94.3,125.4,94.6z M90,30.7c-2.2,0-4,1.8-4,4v6h14.1v-6c0-2.2-1.8-4-4-4H90z M69,47
	c0-0.8,0.7-1.5,1.5-1.5h45c0.8,0,1.5,0.7,1.5,1.5v15.1L93.6,56c-0.4-0.1-0.8-0.1-1.2,0L69,62.1L69,47L69,47z M110.8,94.6L110.8,94.6
	L110.8,94.6c1.7-0.8,3.6-1.8,7.3-1.8c0.2,0,0.4,0,0.7,0l8.2-21.6c0.2-0.5,0-1-0.1-1.2c-0.1-0.2-0.4-0.6-0.9-0.7l-33-8.6l-33,8.6
	c-0.5,0.1-0.8,0.5-0.9,0.7c-0.1,0.2-0.3,0.6-0.1,1.2l8.2,21.6c0.2,0,0.4,0,0.7,0c3.7,0,5.6,1,7.3,1.8c1.5,0.7,2.6,1.3,5.2,1.3
	c2.6,0,3.8-0.6,5.2-1.3l0,0l0,0c1.7-0.8,3.6-1.8,7.3-1.8c3.7,0,5.6,1,7.3,1.8l0,0c1.5,0.7,2.6,1.3,5.2,1.3
	C108.1,95.9,109.3,95.3,110.8,94.6z"/>
<path class="st1" d="M114.7,72.7l-21.1-5.5c-0.4-0.1-0.8-0.1-1.2,0l-21.1,5.5c-1.3,0.3-2,1.6-1.7,2.9c0.3,1.3,1.6,2,2.9,1.7L93,71.9
	l20.5,5.4c0.2,0.1,0.4,0.1,0.6,0.1c1,0,2-0.7,2.3-1.8C116.7,74.3,115.9,73,114.7,72.7z"/>
</svg>
