<svg width="41" height="41" viewBox="0 0 41 41" fill="none" xmlns="http://www.w3.org/2000/svg">
<circle cx="20.5" cy="20.5" r="20.5" fill="#FF3162"/>
<path d="M22.6221 10L22.157 24.1464H18.7267L18.2326 10H22.6221ZM20.5291 31C19.7926 31 19.1822 30.7755 18.6977 30.3264C18.2326 29.8577 18 29.2817 18 28.5983C18 27.9149 18.2326 27.3487 18.6977 26.8996C19.1822 26.431 19.7926 26.1967 20.5291 26.1967C21.2461 26.1967 21.8372 26.431 22.3023 26.8996C22.7674 27.3487 23 27.9149 23 28.5983C23 29.2817 22.7674 29.8577 22.3023 30.3264C21.8372 30.7755 21.2461 31 20.5291 31Z" fill="white"/>
</svg>
