<?xml version="1.0" encoding="UTF-8"?>
<svg width="13px" height="22px" viewBox="0 0 13 22" version="1.1" xmlns="http://www.w3.org/2000/svg" xmlns:xlink="http://www.w3.org/1999/xlink">
    <title>logo/trident/1</title>
    <defs>
        <path d="M5.73190213,20.7238006 C3.52002105,20.3869833 1.82581426,18.5010223 1.82581426,16.2242668 C1.82581426,15.3887008 2.05455406,14.6060324 2.45183899,13.9334773 C2.08738753,13.7456368 1.71089713,13.5815464 1.32346225,13.4444444 C1.29391213,13.497342 1.26545646,13.5502396 1.23809524,13.6042168 C1.47887398,13.7035347 1.71636938,13.813648 1.94729808,13.9334773 C1.55001315,14.6060324 1.32127335,15.3887008 1.32127335,16.2242668 C1.32127335,18.6705105 3.27814786,20.6665849 5.73190213,20.7734596 C5.80085241,20.7766982 5.86980268,20.7777778 5.93875296,20.7777778 C6.02302552,20.7777778 6.10729808,20.7756187 6.19047619,20.7713005 C6.03506446,20.7626642 5.88293607,20.746471 5.73190213,20.7238006" id="path-1"></path>
        <linearGradient x1="23.5080068%" y1="91.4176358%" x2="34.4636076%" y2="15.1773885%" id="linearGradient-3">
            <stop stop-color="#F6BA53" offset="0%"></stop>
            <stop stop-color="#B88734" offset="100%"></stop>
        </linearGradient>
        <linearGradient x1="23.5080068%" y1="91.4176358%" x2="34.4636076%" y2="15.1773885%" id="linearGradient-4">
            <stop stop-color="#CFD0D0" offset="0%"></stop>
            <stop stop-color="#CFD0D0" offset="100%"></stop>
        </linearGradient>
        <path d="M11.8695265,16.2285409 C11.8695265,19.3326734 9.34908662,21.8637685 6.19047619,21.994594 C6.27497263,21.9978376 6.36058087,22 6.44618911,22 C9.72376163,22 12.3809524,19.415926 12.3809524,16.2285409 C12.3809524,15.2186978 12.1152333,14.2704832 11.6460557,13.4444444 C11.5037459,13.4941798 11.3614361,13.5482399 11.2224617,13.6044624 C11.6360495,14.3915779 11.8695265,15.2835699 11.8695265,16.2285409" id="path-5"></path>
        <linearGradient x1="20.2216575%" y1="91.5834702%" x2="31.5425051%" y2="15.0006319%" id="linearGradient-7">
            <stop stop-color="#F6BA53" offset="0%"></stop>
            <stop stop-color="#B88734" offset="100%"></stop>
        </linearGradient>
        <linearGradient x1="20.2216575%" y1="91.5834702%" x2="31.5425051%" y2="15.0006319%" id="linearGradient-8">
            <stop stop-color="#CFD0D0" offset="0%"></stop>
            <stop stop-color="#CFD0D0" offset="100%"></stop>
        </linearGradient>
        <path d="M5.73190213,20.7238006 C3.52002105,20.3869833 1.82581426,18.5010223 1.82581426,16.2242668 C1.82581426,15.3887008 2.05455406,14.6060324 2.45183899,13.9334773 C2.08738753,13.7456368 1.71089713,13.5815464 1.32346225,13.4444444 C1.29391213,13.497342 1.26545646,13.5502396 1.23809524,13.6042168 C1.47887398,13.7035347 1.71636938,13.813648 1.94729808,13.9334773 C1.55001315,14.6060324 1.32127335,15.3887008 1.32127335,16.2242668 C1.32127335,18.6705105 3.27814786,20.6665849 5.73190213,20.7734596 C5.80085241,20.7766982 5.86980268,20.7777778 5.93875296,20.7777778 C6.02302552,20.7777778 6.10729808,20.7756187 6.19047619,20.7713005 C6.03506446,20.7626642 5.88293607,20.746471 5.73190213,20.7238006" id="path-9"></path>
        <path d="M11.8695265,16.2285409 C11.8695265,19.3326734 9.34908662,21.8637685 6.19047619,21.994594 C6.27497263,21.9978376 6.36058087,22 6.44618911,22 C9.72376163,22 12.3809524,19.415926 12.3809524,16.2285409 C12.3809524,15.2186978 12.1152333,14.2704832 11.6460557,13.4444444 C11.5037459,13.4941798 11.3614361,13.5482399 11.2224617,13.6044624 C11.6360495,14.3915779 11.8695265,15.2835699 11.8695265,16.2285409" id="path-11"></path>
    </defs>
    <g id="Symbols" stroke="none" stroke-width="1" fill="none" fill-rule="evenodd">
        <g id="divi" transform="translate(-299.000000, 0.000000)">
            <g id="Group-19-Copy" transform="translate(299.000000, 0.000000)">
                <polyline id="Fill-228" fill="#CFD0D0" points="6.80952381 15.2777778 6.80952381 0 4.95238095 4.01158694 6.15732669 3.40304499 5.77687837 12.7663175 6.80952381 15.2777778"></polyline>
                <path d="M5.23094567,12.6902494 C4.25637211,12.2180563 3.19691287,11.9017654 2.08480303,11.7739032 C2.55328601,10.5569685 2.81009206,9.22787391 2.81009206,7.83596982 C2.81009206,7.46023422 2.79182552,7.08786343 2.75421794,6.72222222 C2.75421794,8.6895065 2.17291221,10.5087397 1.23809524,12.1989891 C3.28179855,12.6184671 5.2459887,13.7142691 6.19047619,15.2777778 L5.23094567,12.6902494" id="Fill-229" fill="#CFD0D0"></path>
                <path d="M6.80952381,15.2624727 C5.79981203,13.7385212 3.69997911,12.6704433 1.51514202,12.2615782 C2.51451546,10.6140926 3.13596491,8.8408865 3.13596491,6.92337507 C3.5161863,7.22073146 3.91938179,7.49185053 4.34440267,7.73235937 C3.65632832,6.89604452 3.10035505,5.95587358 2.70864662,4.94136355 C2.64546784,4.77956669 2.58688388,4.61558338 2.53289474,4.44941364 L2.46397243,4.27777778 C2.56161236,4.83204134 2.61215539,5.40161002 2.61215539,5.98211091 C2.61215539,6.14500099 2.60756057,6.30679785 2.60066834,6.46750149 C2.50417711,8.43967402 1.8264411,10.266448 0.725981621,11.7958656 C0.500835422,12.1085271 0.258458647,12.4091632 0,12.6955874 C1.90570175,13.0257404 3.62301587,13.870801 4.98652882,15.0744385 L5.06578947,15.141125 C5.09565581,15.1651759 5.12437343,15.19032 5.15194236,15.2154641 L5.15423977,15.2165573 C5.18984962,15.2515404 5.22545948,15.2865236 5.25877193,15.3236931 C5.3656015,15.4428543 5.4552005,15.5773206 5.5218254,15.7238124 C5.61946533,15.9380839 5.63324979,16.0987875 5.63784461,16.2758895 C5.63899332,16.3174319 5.64014202,16.4169151 5.64014202,16.529517 L6.80952381,16.529517 L6.80952381,15.2624727 Z M5.64014202,16.9755516 L5.54135338,16.9755516 C5.36330409,16.9755516 5.21856725,17.1132976 5.21856725,17.2816537 L5.21856725,18.0272312 C5.21856725,18.1955874 5.36330409,18.3333333 5.54135338,18.3333333 L6.80952381,18.3333333 L6.80952381,16.9755516 L5.64014202,16.9755516 L5.64014202,16.9755516 Z" id="Fill-230" fill="#CFD0D0"></path>
                <polygon id="Fill-231" fill="#CFD0D0" points="6.19047619 0 8.04761905 4.01158694 6.84382969 3.40304499 7.22427801 12.7663175 6.19047619 15.2777778"></polygon>
                <path d="M7.15087284,12.6902494 C8.125235,12.2180563 9.18339015,11.9017654 10.296333,11.7739032 C9.82795166,10.5569685 9.57012705,9.22787391 9.57012705,7.83596982 C9.57012705,7.46023422 9.5894639,7.08786343 9.62598905,6.72222222 C9.62598905,8.6895065 10.2071687,10.5087397 11.1428571,12.1989891 C9.09852288,12.6184671 7.13475881,13.7142691 6.19047619,15.2777778 L7.15087284,12.6902494" id="Fill-232" fill="#CFD0D0"></path>
                <path d="M6.19047619,15.2624727 C7.20001767,13.7385212 9.29949642,12.6704433 11.4851135,12.2615782 C10.4847601,10.6140926 9.8634155,8.8408865 9.8634155,6.92337507 C9.48440675,7.22073146 9.08127926,7.49185053 8.65633006,7.73235937 C9.34428836,6.89604452 9.89901935,5.95587358 10.2918102,4.94136355 C10.3538298,4.77956669 10.4124039,4.61558338 10.4675325,4.44941364 L10.5352946,4.27777778 C10.4388197,4.83204134 10.3882852,5.40161002 10.3882852,5.98211091 C10.3882852,6.14500099 10.3917307,6.30679785 10.3997703,6.46750149 C10.4962453,8.43967402 11.1738669,10.266448 12.2741408,11.7958656 C12.4981005,12.1085271 12.7415849,12.4091632 13,12.6955874 C11.0946197,13.0257404 9.37759519,13.870801 8.01431222,15.0744385 L7.93506494,15.141125 C7.90520364,15.1651759 7.87649086,15.19032 7.84892658,15.2154641 L7.84662956,15.2165573 C7.8098772,15.2515404 7.77542186,15.2865236 7.74211503,15.3236931 C7.63415496,15.4428543 7.54571959,15.5773206 7.47910593,15.7238124 C7.39641311,15.904194 7.37344288,16.3021268 7.3654033,16.529517 L6.19047619,16.529517 L6.19047619,15.2624727 Z M7.35966075,16.9755516 L7.45958124,16.9755516 C7.63645198,16.9755516 7.78116441,17.1132976 7.78116441,17.2816537 L7.78116441,18.0272312 C7.78116441,18.1955874 7.63645198,18.3333333 7.45958124,18.3333333 L6.19047619,18.3333333 L6.19047619,16.9755516 L7.35966075,16.9755516 L7.35966075,16.9755516 Z" id="Fill-233" fill="#CFD0D0"></path>
                <polygon id="Fill-234" fill="#CFD0D0" points="6.19047619 20.7777778 7.42857143 20.7777778 7.42857143 18.3333333 6.19047619 18.3333333"></polygon>
                <path d="M11.652719,13.4444444 C12.1176426,14.2704832 12.3809524,15.2186978 12.3809524,16.2285409 C12.3809524,19.415926 9.74785456,22 6.5,22 C3.25214544,22 0.619047619,19.415926 0.619047619,16.2285409 C0.619047619,15.2186978 0.883459116,14.2704832 1.34728095,13.4444444 C1.73728791,13.5817572 2.11627772,13.7460999 2.48314867,13.9342292 C2.08322628,14.6078184 1.85296794,15.3916902 1.85296794,16.2285409 C1.85296794,18.7466616 3.93410676,20.7890532 6.5,20.7890532 C9.06699495,20.7890532 11.1470321,18.7466616 11.1470321,16.2285409 C11.1470321,15.3916902 10.9178754,14.6078184 10.517953,13.9342292 C10.8837223,13.7460999 11.2638138,13.5817572 11.652719,13.4444444" id="Fill-235" fill="#CFD0D0"></path>
                <mask id="mask-2" fill="white">
                    <use xlink:href="#path-1"></use>
                </mask>
                <g id="Clip-237"></g>
                <path d="M5.73190213,20.7238006 C3.52002105,20.3869833 1.82581426,18.5010223 1.82581426,16.2242668 C1.82581426,15.3887008 2.05455406,14.6060324 2.45183899,13.9334773 C2.08738753,13.7456368 1.71089713,13.5815464 1.32346225,13.4444444 C1.29391213,13.497342 1.26545646,13.5502396 1.23809524,13.6042168 C1.47887398,13.7035347 1.71636938,13.813648 1.94729808,13.9334773 C1.55001315,14.6060324 1.32127335,15.3887008 1.32127335,16.2242668 C1.32127335,18.6705105 3.27814786,20.6665849 5.73190213,20.7734596 C5.80085241,20.7766982 5.86980268,20.7777778 5.93875296,20.7777778 C6.02302552,20.7777778 6.10729808,20.7756187 6.19047619,20.7713005 C6.03506446,20.7626642 5.88293607,20.746471 5.73190213,20.7238006" id="Fill-236" fill="url(#linearGradient-4)" mask="url(#mask-2)"></path>
                <mask id="mask-6" fill="white">
                    <use xlink:href="#path-5"></use>
                </mask>
                <g id="Clip-240"></g>
                <path d="M11.8695265,16.2285409 C11.8695265,19.3326734 9.34908662,21.8637685 6.19047619,21.994594 C6.27497263,21.9978376 6.36058087,22 6.44618911,22 C9.72376163,22 12.3809524,19.415926 12.3809524,16.2285409 C12.3809524,15.2186978 12.1152333,14.2704832 11.6460557,13.4444444 C11.5037459,13.4941798 11.3614361,13.5482399 11.2224617,13.6044624 C11.6360495,14.3915779 11.8695265,15.2835699 11.8695265,16.2285409" id="Fill-239" fill="url(#linearGradient-8)" mask="url(#mask-6)"></path>
                <polygon id="Fill-242" fill="#CFD0D0" mask="url(#mask-6)" points="5.78871429 20.7777778 6.5922381 20.7777778 6.5922381 18.3333333 5.78871429 18.3333333"></polygon>
                <polyline id="Fill-243" fill="#CFD0D0" mask="url(#mask-6)" points="6.80952381 15.2777778 6.80952381 0 4.95238095 4.01158694 6.15732669 3.40304499 5.77687837 12.7663175 6.80952381 15.2777778"></polyline>
                <path d="M5.23094567,12.6902494 C4.25637211,12.2180563 3.19691287,11.9017654 2.08480303,11.7739032 C2.55328601,10.5569685 2.81009206,9.22787391 2.81009206,7.83596982 C2.81009206,7.46023422 2.79182552,7.08786343 2.75421794,6.72222222 C2.75421794,8.6895065 2.17291221,10.5087397 1.23809524,12.1989891 C3.28179855,12.6184671 5.2459887,13.7142691 6.19047619,15.2777778 L5.23094567,12.6902494" id="Fill-244" fill="#CFD0D0" mask="url(#mask-6)"></path>
                <path d="M6.80952381,15.2624727 C5.79981203,13.7385212 3.69997911,12.6704433 1.51514202,12.2615782 C2.51451546,10.6140926 3.13596491,8.8408865 3.13596491,6.92337507 C3.5161863,7.22073146 3.91938179,7.49185053 4.34440267,7.73235937 C3.65632832,6.89604452 3.10035505,5.95587358 2.70864662,4.94136355 C2.64546784,4.77956669 2.58688388,4.61558338 2.53289474,4.44941364 L2.46397243,4.27777778 C2.56161236,4.83204134 2.61215539,5.40161002 2.61215539,5.98211091 C2.61215539,6.14500099 2.60756057,6.30679785 2.60066834,6.46750149 C2.50417711,8.43967402 1.8264411,10.266448 0.725981621,11.7958656 C0.500835422,12.1085271 0.258458647,12.4091632 0,12.6955874 C1.90570175,13.0257404 3.62301587,13.870801 4.98652882,15.0744385 L5.06578947,15.141125 C5.09565581,15.1651759 5.12437343,15.19032 5.15194236,15.2154641 L5.15423977,15.2165573 C5.18984962,15.2515404 5.22545948,15.2865236 5.25877193,15.3236931 C5.3656015,15.4428543 5.4552005,15.5773206 5.5218254,15.7238124 C5.61946533,15.9380839 5.63324979,16.0987875 5.63784461,16.2758895 C5.63899332,16.3174319 5.64014202,16.4169151 5.64014202,16.529517 L6.80952381,16.529517 L6.80952381,15.2624727 Z M5.64014202,16.9755516 L5.54135338,16.9755516 C5.36330409,16.9755516 5.21856725,17.1132976 5.21856725,17.2816537 L5.21856725,18.0272312 C5.21856725,18.1955874 5.36330409,18.3333333 5.54135338,18.3333333 L6.80952381,18.3333333 L6.80952381,16.9755516 L5.64014202,16.9755516 L5.64014202,16.9755516 Z" id="Fill-245" fill="#CFD0D0" mask="url(#mask-6)"></path>
                <polyline id="Fill-246" fill="#CFD0D0" mask="url(#mask-6)" points="6.19047619 15.2777778 6.19047619 0 8.04761905 4.01158694 6.84382969 3.40304499 7.22427801 12.7663175 6.19047619 15.2777778"></polyline>
                <path d="M7.15087284,12.6902494 C8.125235,12.2180563 9.18339015,11.9017654 10.296333,11.7739032 C9.82795166,10.5569685 9.57012705,9.22787391 9.57012705,7.83596982 C9.57012705,7.46023422 9.5894639,7.08786343 9.62598905,6.72222222 C9.62598905,8.6895065 10.2071687,10.5087397 11.1428571,12.1989891 C9.09852288,12.6184671 7.13475881,13.7142691 6.19047619,15.2777778 L7.15087284,12.6902494" id="Fill-247" fill="#CFD0D0" mask="url(#mask-6)"></path>
                <path d="M6.19047619,15.2624727 C7.20001767,13.7385212 9.29949642,12.6704433 11.4851135,12.2615782 C10.4847601,10.6140926 9.8634155,8.8408865 9.8634155,6.92337507 C9.48440675,7.22073146 9.08127926,7.49185053 8.65633006,7.73235937 C9.34428836,6.89604452 9.89901935,5.95587358 10.2918102,4.94136355 C10.3538298,4.77956669 10.4124039,4.61558338 10.4675325,4.44941364 L10.5352946,4.27777778 C10.4388197,4.83204134 10.3882852,5.40161002 10.3882852,5.98211091 C10.3882852,6.14500099 10.3917307,6.30679785 10.3997703,6.46750149 C10.4962453,8.43967402 11.1738669,10.266448 12.2741408,11.7958656 C12.4981005,12.1085271 12.7415849,12.4091632 13,12.6955874 C11.0946197,13.0257404 9.37759519,13.870801 8.01431222,15.0744385 L7.93506494,15.141125 C7.90520364,15.1651759 7.87649086,15.19032 7.84892658,15.2154641 L7.84662956,15.2165573 C7.8098772,15.2515404 7.77542186,15.2865236 7.74211503,15.3236931 C7.63415496,15.4428543 7.54571959,15.5773206 7.47910593,15.7238124 C7.39641311,15.904194 7.37344288,16.3021268 7.3654033,16.529517 L6.19047619,16.529517 L6.19047619,15.2624727 Z M7.35966075,16.9755516 L7.45958124,16.9755516 C7.63645198,16.9755516 7.78116441,17.1132976 7.78116441,17.2816537 L7.78116441,18.0272312 C7.78116441,18.1955874 7.63645198,18.3333333 7.45958124,18.3333333 L6.19047619,18.3333333 L6.19047619,16.9755516 L7.35966075,16.9755516 L7.35966075,16.9755516 Z" id="Fill-248" fill="#CFD0D0" mask="url(#mask-6)"></path>
                <polygon id="Fill-249" fill="#CFD0D0" mask="url(#mask-6)" points="6.19047619 20.7777778 7.42857143 20.7777778 7.42857143 18.3333333 6.19047619 18.3333333"></polygon>
                <path d="M11.652719,13.4444444 C12.1176426,14.2704832 12.3809524,15.2186978 12.3809524,16.2285409 C12.3809524,19.415926 9.74785456,22 6.5,22 C3.25214544,22 0.619047619,19.415926 0.619047619,16.2285409 C0.619047619,15.2186978 0.883459116,14.2704832 1.34728095,13.4444444 C1.73728791,13.5817572 2.11627772,13.7460999 2.48314867,13.9342292 C2.08322628,14.6078184 1.85296794,15.3916902 1.85296794,16.2285409 C1.85296794,18.7466616 3.93410676,20.7890532 6.5,20.7890532 C9.06699495,20.7890532 11.1470321,18.7466616 11.1470321,16.2285409 C11.1470321,15.3916902 10.9178754,14.6078184 10.517953,13.9342292 C10.8837223,13.7460999 11.2638138,13.5817572 11.652719,13.4444444" id="Fill-250" fill="#CFD0D0" mask="url(#mask-6)"></path>
                <mask id="mask-10" fill="white">
                    <use xlink:href="#path-9"></use>
                </mask>
                <g id="Clip-252"></g>
                <path d="M5.73190213,20.7238006 C3.52002105,20.3869833 1.82581426,18.5010223 1.82581426,16.2242668 C1.82581426,15.3887008 2.05455406,14.6060324 2.45183899,13.9334773 C2.08738753,13.7456368 1.71089713,13.5815464 1.32346225,13.4444444 C1.29391213,13.497342 1.26545646,13.5502396 1.23809524,13.6042168 C1.47887398,13.7035347 1.71636938,13.813648 1.94729808,13.9334773 C1.55001315,14.6060324 1.32127335,15.3887008 1.32127335,16.2242668 C1.32127335,18.6705105 3.27814786,20.6665849 5.73190213,20.7734596 C5.80085241,20.7766982 5.86980268,20.7777778 5.93875296,20.7777778 C6.02302552,20.7777778 6.10729808,20.7756187 6.19047619,20.7713005 C6.03506446,20.7626642 5.88293607,20.746471 5.73190213,20.7238006" id="Fill-251" fill="url(#linearGradient-4)" mask="url(#mask-10)"></path>
                <mask id="mask-12" fill="white">
                    <use xlink:href="#path-11"></use>
                </mask>
                <g id="Clip-255"></g>
                <path d="M11.8695265,16.2285409 C11.8695265,19.3326734 9.34908662,21.8637685 6.19047619,21.994594 C6.27497263,21.9978376 6.36058087,22 6.44618911,22 C9.72376163,22 12.3809524,19.415926 12.3809524,16.2285409 C12.3809524,15.2186978 12.1152333,14.2704832 11.6460557,13.4444444 C11.5037459,13.4941798 11.3614361,13.5482399 11.2224617,13.6044624 C11.6360495,14.3915779 11.8695265,15.2835699 11.8695265,16.2285409" id="Fill-254" fill="url(#linearGradient-8)" mask="url(#mask-12)"></path>
                <polygon id="Fill-257" fill="#CFD0D0" mask="url(#mask-12)" points="5.78871429 20.7777778 6.5922381 20.7777778 6.5922381 18.3333333 5.78871429 18.3333333"></polygon>
            </g>
        </g>
    </g>
</svg>