<?xml version="1.0" encoding="UTF-8"?>
<svg width="60px" height="66px" viewBox="0 0 60 66" version="1.1" xmlns="http://www.w3.org/2000/svg" xmlns:xlink="http://www.w3.org/1999/xlink">
    <title>Group 13</title>
    <g id="May-2022-Marketing-Website" stroke="none" stroke-width="1" fill="none" fill-rule="evenodd">
        <g id="About" transform="translate(-247.000000, -543.000000)" fill="#FBC25E">
            <g id="Group-4" transform="translate(246.000000, 460.000000)">
                <g id="Group-3" transform="translate(1.000000, 79.000000)">
                    <g id="Group-13" transform="translate(0.000000, 4.000000)">
                        <path d="M19.2012453,40.0471216 C17.2374359,41.2100877 14.951137,41.4945026 12.7638822,40.847487 C10.5763763,40.2007233 8.8095253,38.7180893 7.78883149,36.6727948 C6.76926746,34.6296407 6.64423843,32.3256155 7.43621448,30.1837534 C10.5483828,29.5680877 13.2771791,29.5699762 15.54741,30.192063 C17.0755007,30.6570229 18.4999027,30.8341684 19.8894071,30.8341684 C21.2605838,30.8341684 22.5983694,30.6607999 23.9685419,30.4225914 L23.0089818,34.7802207 C22.5172762,37.0136143 21.1649291,38.8840295 19.2012453,40.0471216 Z M13.5554816,13.6787494 L26.793495,17.5929482 L24.4377773,28.2913052 C21.5347439,28.8373466 19.0443313,29.1541186 16.1185767,28.2607108 L16.0919641,28.2530307 C13.8212311,27.6279222 11.1873364,27.54256 8.24727127,27.9954331 L13.5554816,13.6787494 Z M12.3260295,11.2149533 L5.55613439,29.474164 C4.56506594,32.1473369 4.72009691,35.023969 5.99273175,37.5743863 C7.11410154,39.8215034 8.95827972,41.5228308 11.2465871,42.4474626 L6.37070605,59.0356885 L0.56802847,57.3198822 L0,59.2522417 L13.9078476,63.364486 L14.4757505,61.4321265 L8.29723267,59.6051478 L13.1731137,43.0169219 C13.8106865,43.140181 14.4513975,43.2027548 15.0890957,43.2027548 C16.8737721,43.2027548 18.6329657,42.7230643 20.2224412,41.7816874 C22.6709264,40.3316624 24.3571863,37.9994349 24.9702805,35.214712 L29.1588785,16.1921513 L12.3260295,11.2149533 L12.3260295,11.2149533 Z" id="Fill-4"></path>
                        <path d="M39.6082283,42.0735105 C37.5967055,40.9988035 36.163342,39.1879008 35.5718946,36.9745191 L35.0011316,34.838479 C36.3271872,35.2130746 37.7145437,35.4024541 39.1045328,35.4024541 C40.6474608,35.4024541 42.1935228,35.170051 43.6599813,34.7017119 L43.721533,34.6798846 C46.3026906,33.6652341 48.8671753,33.5919299 51.5394694,34.456061 C51.6013971,35.7152269 51.3691055,36.9814584 50.8410902,38.1757735 C49.9151829,40.2697994 48.2194414,41.8346727 46.0665128,42.581719 C43.9135841,43.3288914 41.6198765,43.148596 39.6082283,42.0735105 Z M44.0508531,15.4195656 L50.8973767,31.6564984 C50.9786098,31.8492846 51.0496888,32.0442156 51.1157534,32.2400298 C48.3814062,31.5732269 45.6671165,31.7549102 43.0232791,32.7870983 C40.2159725,33.6759584 37.0809755,33.567327 34.3760878,32.4989284 L31.020959,19.9409557 L44.0508531,15.4195656 Z M59.3462488,58.3881633 L53.2650466,60.498465 L47.6523138,44.114293 C49.8933703,43.084376 51.6563047,41.297193 52.6735992,38.9966286 C53.8281627,36.3854363 53.8531092,33.4985649 52.7436753,30.8678164 L45.1660536,12.8971963 L28.5981308,18.6464624 L33.6349609,37.498751 C34.372327,40.2586965 36.1595812,42.5164896 38.6677794,43.8566561 C40.1585577,44.6531606 41.7731915,45.0556395 43.4017402,45.0556395 C44.1873699,45.0556395 44.9761335,44.9598773 45.7557459,44.771507 L51.3687294,61.1563098 L45.6573385,63.1381715 L46.3110897,65.046729 L60,60.2967208 L59.3462488,58.3881633 L59.3462488,58.3881633 Z" id="Fill-5"></path>
                        <polyline id="Fill-6" points="24.1121495 7.10650059 19.3845104 1.68224299 17.9439252 2.98695736 22.6715643 8.41121495 24.1121495 7.10650059"></polyline>
                        <polyline id="Fill-7" points="41.4953271 3.21526681 40.156291 1.68224299 34.7663551 6.8780611 36.1052674 8.41121495 41.4953271 3.21526681"></polyline>
                        <polygon id="Fill-8" points="28.5981308 7.28971963 30.8411215 7.28971963 30.8411215 0 28.5981308 0"></polygon>
                    </g>
                </g>
            </g>
        </g>
    </g>
</svg>