<?xml version="1.0" encoding="UTF-8"?>
<svg width="60px" height="60px" viewBox="0 0 60 60" version="1.1" xmlns="http://www.w3.org/2000/svg" xmlns:xlink="http://www.w3.org/1999/xlink">
    <title>Group 14</title>
    <g id="May-2022-Marketing-Website" stroke="none" stroke-width="1" fill="none" fill-rule="evenodd">
        <g id="About" transform="translate(-246.000000, -824.000000)" fill="#FBC25E">
            <g id="Group-4" transform="translate(246.000000, 460.000000)">
                <g id="Group-6-Copy" transform="translate(0.000000, 354.000000)">
                    <g id="Group-14" transform="translate(0.000000, 10.000000)">
                        <path d="M17.6500207,57.6922785 C21.6171282,52.216716 28.0355183,48.8893664 34.8546437,48.8883848 C34.8556253,48.8883848 34.8566069,48.8883848 34.8573431,48.8883848 L34.8575885,48.8883848 C34.8578339,48.8883848 34.8578339,48.8883848 34.8578339,48.8883848 C34.8590609,48.8883848 34.8600425,48.8881394 34.8612695,48.8881394 C41.6806403,48.889121 48.0990304,52.2162252 52.0666287,57.6922785 L17.6500207,57.6922785 Z M12.2377633,25.9387768 C10.629178,27.9655178 9.49691067,30.4891894 8.95507142,33.1706518 C7.29642493,29.1905439 7.80587161,24.5292115 10.5005893,20.96628 C10.788196,20.5859133 10.8122451,20.0678784 10.5612027,19.6624811 C10.3481971,19.3189241 9.97470098,19.1162255 9.58059146,19.1162255 C9.50967137,19.1162255 9.43826049,19.1226058 9.36684962,19.1361027 C7.19777485,19.5441994 5.18109237,20.4214967 3.43901049,21.6914306 C4.85176798,18.6926688 7.38157811,16.5312044 10.5835339,15.7434773 C10.9712631,15.6480175 11.2826734,15.3586934 11.4056179,14.9785721 C11.5288078,14.5984509 11.446354,14.1817653 11.1879497,13.8767358 C9.92782992,12.3908517 9.41543846,10.4634969 9.20758618,9.20436047 C10.4630434,9.40975848 12.3823028,9.92067683 13.8767779,11.1879114 C14.1815625,11.4463153 14.5982486,11.528769 14.9786158,11.4055793 C15.3587377,11.2823896 15.6480622,10.9714705 15.7435221,10.5832511 C16.5310049,7.38129976 18.6924723,4.8517386 21.6912384,3.43922851 C20.4215481,5.18106253 19.5442495,7.19774216 19.1359069,9.36705925 C19.0480543,9.83576917 19.2571336,10.3101232 19.6625315,10.5611652 C20.0679293,10.8124527 20.5859649,10.7881583 20.9663321,10.5007974 C24.5290233,7.80583806 29.1906077,7.2963921 33.1707212,8.95503624 C30.489255,9.49687472 27.9655798,10.6291405 25.938836,12.2377234 C23.0504991,14.5297395 21.3346748,17.6195439 21.0298903,21.029838 C17.619346,21.3346222 14.5297825,23.0506894 12.2377633,25.9387768 Z M58.8459996,57.6922785 L54.844291,57.6922785 C50.8550977,51.2930385 43.992046,47.1757532 36.5177074,46.6410312 L43.4865257,28.6023252 C48.2820975,26.3758304 53.5184045,29.5763093 55.8975401,34.0918754 C56.0992574,34.4744506 56.4948394,34.707824 56.9179059,34.707824 C56.9758198,34.707824 57.0342246,34.7034069 57.0926294,34.6945725 C57.5787632,34.620217 57.9645292,34.2462306 58.053118,33.7627968 C58.8482082,29.4403589 57.2229358,25.1196388 53.9898144,22.3809986 C55.4862527,22.3819802 56.9679671,22.7076232 58.3372891,23.3802587 C58.8082083,23.6119143 59.3767959,23.4958411 59.7198626,23.0982966 C60.0629293,22.7005067 60.0940949,22.1216131 59.7956907,21.6892221 C57.3350828,18.1238365 53.4214722,16.2193037 49.500745,16.5707135 C49.5365732,14.0067966 48.4578026,11.8534304 48.402588,11.7449645 C48.2609933,11.4674195 48.0133865,11.2588314 47.7157184,11.1665618 C47.4187866,11.0742922 47.0963334,11.1066847 46.8227144,11.2553958 C46.7211195,11.3108557 44.8148662,12.3658211 43.4067713,14.3012741 L42.8448094,13.4590686 C42.491436,12.9290092 41.7748732,12.7856969 41.2448131,13.1393152 C40.714753,13.4926881 40.5714404,14.2092499 40.9250592,14.7393092 L42.5265279,17.1407727 C42.7643188,17.4970904 43.1812503,17.6934087 43.6048077,17.6485009 C44.0305735,17.6045747 44.3969531,17.3285021 44.5569527,16.9316937 C45.067381,15.6629868 46.0489738,14.6784506 46.8214874,14.0536676 C47.1054131,15.0063021 47.3581733,16.3729228 47.062223,17.7073964 C46.9755974,18.097579 47.0968242,18.504694 47.3829585,18.7837114 C47.6693382,19.0627288 48.0801348,19.173894 48.4668824,19.0772072 C50.6946073,18.5230989 52.9510438,18.9135269 54.8857633,20.1014979 C53.4192636,19.9999032 51.9311689,20.1672645 50.4911722,20.6111893 C50.0354677,20.7515568 49.7132599,21.1576903 49.6798857,21.6335168 C49.6467569,22.1090978 49.9095784,22.5562127 50.3412339,22.7584206 C53.2975461,24.1441823 55.2911611,26.878896 55.8104237,29.9674735 C52.5922716,26.3920267 47.7105651,24.3989053 43.0291035,26.2828246 C40.977329,23.2418543 37.4028587,21.5459097 33.2524388,21.7024736 C32.6153851,21.7265225 32.1186991,22.2619807 32.1425027,22.8987881 C32.1665518,23.5355956 32.6990659,24.0327716 33.338819,24.0084773 C36.851449,23.8771894 39.7206448,25.2759572 41.2985553,27.8614691 L35.0858089,43.9436179 C30.8902357,28.625638 25.1236232,23.0151067 23.3062041,21.5640692 C23.6662032,14.8762412 30.3272922,10.9000597 36.7746393,10.9000597 C37.2664173,10.9000597 37.7042077,10.5884044 37.865189,10.1238663 C38.0259248,9.65908271 37.8747595,9.1437472 37.4885027,8.83969925 C33.0872858,5.37541764 27.1822688,4.77026651 22.2571267,7.04927645 C23.1285357,5.08584816 24.5025203,3.37567047 26.2730684,2.0868409 C26.6976073,1.77788499 26.8600609,1.22107724 26.6679141,0.732244702 C26.4762581,0.243412162 25.9800629,-0.0545008416 25.4568739,0.00832101094 C20.1123464,0.648318634 15.7771416,3.89861331 13.9989862,8.46227734 C11.1970295,6.8254736 8.0814538,6.76167016 7.92906151,6.75946158 C7.61716039,6.75430822 7.31752918,6.87700715 7.09716159,7.09712903 C6.87703939,7.31749631 6.75532188,7.6176179 6.75949365,7.92902778 C6.76145684,8.08141986 6.82550577,11.1969911 8.46231182,13.9989439 C3.89839594,15.7770968 0.648096668,20.1125408 0.00834353909,25.4568154 C-0.0542330041,25.9782859 0.243189625,26.4761982 0.732022856,26.6680993 C1.22011989,26.859755 1.77766462,26.6977924 2.08662097,26.2730087 C3.37569776,24.5024632 5.08563247,23.1287259 7.04930894,22.2573181 C4.77005038,27.1819624 5.37520236,33.0869711 8.83948887,37.4884272 C9.06255584,37.7716163 9.39924218,37.9286709 9.74623525,37.9286709 C9.87236993,37.9286709 9.99997699,37.9078121 10.1236577,37.8648675 C10.5884419,37.7041319 10.8998522,37.2663421 10.8998522,36.7745648 C10.8998522,30.260724 14.960211,23.5314238 21.7739376,23.2992774 C23.0924622,24.3373104 29.2310984,29.9267375 33.4021317,46.6275343 C25.8490203,47.1011522 18.8973798,51.2348792 14.8723584,57.6922785 L1.15386238,57.6922785 C0.516563229,57.6922785 0,58.208841 0,58.8461393 C0,59.4834375 0.516563229,60 1.15386238,60 L58.8459996,60 C59.4832987,60 60,59.4834375 60,58.8461393 C60,58.208841 59.4832987,57.6922785 58.8459996,57.6922785 L58.8459996,57.6922785 Z" id="Fill-3"></path>
                        <path d="M12.2494065,52.5 C12.8808462,52.5 13.3928571,52.020164 13.3928571,51.4286853 C13.3928571,50.8369788 12.8808462,50.3571429 12.2494065,50.3571429 L3.8222653,50.3571429 C3.1905824,50.3571429 2.67857143,50.8369788 2.67857143,51.4286853 C2.67857143,52.020164 3.1905824,52.5 3.8222653,52.5 L12.2494065,52.5" id="Fill-4"></path>
                    </g>
                </g>
            </g>
        </g>
    </g>
</svg>