<?xml version="1.0" encoding="UTF-8"?>
<svg width="66px" height="80px" viewBox="0 0 66 80" version="1.1" xmlns="http://www.w3.org/2000/svg" xmlns:xlink="http://www.w3.org/1999/xlink">
    <title>Group 7</title>
    <g id="May-2022-Marketing-Website" stroke="none" stroke-width="1" fill="none" fill-rule="evenodd">
        <g id="About" transform="translate(-498.000000, -2421.000000)" fill="#FBC25E">
            <g id="Group-7" transform="translate(498.000000, 2421.000000)">
                <path d="M3.39763801,8.10487258 C8.53486128,8.510402 13.4349839,8.02609072 18.1231338,6.74632598 C22.8307904,5.46127555 27.3566362,3.36713794 31.7222335,0.560020304 L32.4277465,0.106374388 C32.6483189,-0.0354581293 32.9149942,-0.0354581293 33.1356086,0.106374388 L33.8410796,0.560020304 C38.2066769,3.36713794 42.7325228,5.46127555 47.4401794,6.74632598 C52.1283293,8.02609072 57.0284519,8.510402 62.1656751,8.10487258 L63.4031544,8.00721328 C63.7515901,7.97969416 64.0597538,8.2303027 64.1038431,8.57701839 L64.2614907,9.81680491 C65.969312,23.2503285 66.5280843,36.3849593 62.5832861,48.3368554 C57.5888183,63.4691391 46.8629491,72.7757601 33.0830454,79.9241441 C32.8880624,80.0252853 32.6752507,80.0252853 32.4803097,79.9241441 C18.700364,72.7757601 7.97453684,63.4691391 2.98002703,48.3368554 C-0.964771131,36.3849593 -0.405956886,23.2503285 1.3018224,9.81680491 L1.45947002,8.57701839 C1.50355934,8.2303027 1.8117231,7.97969416 2.16015873,8.00721328 L3.39763801,8.10487258 Z M19.1518285,10.5234086 C14.5885634,11.7690261 9.86421078,12.3290988 4.96186483,12.1316408 C3.50003765,24.4204363 3.16469037,36.3638585 6.7110067,47.1085212 C10.318402,58.0381408 18.0143997,67.8328067 32.7816775,75.6620371 C47.5489134,67.8328067 55.2449111,58.0381408 58.8523065,47.1085212 C62.3986228,36.3638585 62.0632755,24.4204363 60.6014483,12.1316408 C55.6991024,12.3290988 50.9747497,11.7690261 46.4114846,10.5234086 C41.6749246,9.2304296 37.1389688,7.20479613 32.7816775,4.52709385 C28.4243443,7.20479613 23.8883886,9.2304296 19.1518285,10.5234086 L19.1518285,10.5234086 Z" id="Fill-7"></path>
                <path d="M26.5670977,33.6404728 L38.9962574,33.6404728 L38.9962574,27.2288963 C38.9962574,24.6508669 37.4405884,23.0000556 35.4485148,22.2754135 C34.6101886,21.9704799 33.6996666,21.8182438 32.7885573,21.8184533 C31.8777417,21.8186633 30.9668841,21.9715286 30.1275091,22.2767139 C28.1291431,23.0032857 26.5670977,24.6560687 26.5670977,27.2288963 L26.5670977,33.6404728 Z M42.4248624,33.8086079 C44.274642,34.3366729 45.6389358,36.0468014 45.6389358,38.0601435 L45.6389358,50.1733369 C45.6389358,52.6041642 43.6500923,54.5930076 41.2192651,54.5930076 L24.3440061,54.5930076 C21.9131789,54.5930076 19.9243774,52.6041642 19.9243774,50.1733369 L19.9243774,38.0601435 C19.9243774,36.0468014 21.2887131,34.3366729 23.1384927,33.8086079 L23.1384927,27.2288963 C23.1384927,22.9739628 25.6934496,20.2509127 28.9623515,19.0624308 C30.1697107,18.6234674 31.4793857,18.4032721 32.7885573,18.4032721 C34.0974772,18.4032721 35.4067747,18.622125 36.6137145,19.0611304 C39.8767433,20.2480601 42.4248624,22.9681317 42.4248624,27.2288963 L42.4248624,33.8086079 Z M32.7816775,38.7834432 C34.4458709,38.7834432 35.7949788,40.1325511 35.7949788,41.7967864 C35.7949788,42.9975596 35.0925701,44.0341829 34.0762506,44.5184522 L35.2430024,49.4500372 L30.3203108,49.4500372 L31.4870625,44.5184522 C30.470785,44.0341829 29.7683343,42.9975596 29.7683343,41.7967864 C29.7683343,40.1325511 31.1174422,38.7834432 32.7816775,38.7834432 L32.7816775,38.7834432 Z" id="Fill-8"></path>
            </g>
        </g>
    </g>
</svg>