<?xml version="1.0" encoding="UTF-8"?>
<svg width="90px" height="86px" viewBox="0 0 90 86" version="1.1" xmlns="http://www.w3.org/2000/svg" xmlns:xlink="http://www.w3.org/1999/xlink">
    <title>Fill 12</title>
    <g id="May-2022-Marketing-Website" stroke="none" stroke-width="1" fill="none" fill-rule="evenodd">
        <g id="About" transform="translate(-676.000000, -2125.000000)" fill="#FBC25E">
            <g id="Fill-12" transform="translate(676.000000, 2125.000000)">
                <path d="M60.9784109,81.7050691 C56.4539979,81.7050691 52.2034418,80.5136949 48.5253456,78.4316659 C54.6640296,73.0959528 58.549993,65.249316 58.549993,56.5153109 C58.549993,56.0872378 58.5384448,55.6616297 58.5202977,55.2384864 C66.3615137,51.2034253 72.1430289,43.732852 73.8463858,34.8387097 C81.2759916,39.231183 86.2672811,47.3027841 86.2672811,56.5153109 C86.2672811,70.4050905 74.9236663,81.7050691 60.9784109,81.7050691 Z M29.4355108,81.7050691 C15.4919051,81.7050691 4.14746544,70.4050311 4.14746544,56.5151784 C4.14746544,47.3027675 9.13875495,39.2312061 16.5683607,34.8387097 C18.2717177,43.7328166 24.0532328,51.2032649 31.8952737,55.2383472 C31.8763017,55.6614927 31.8647535,56.0871031 31.8647535,56.5151784 C31.8647535,65.2492295 35.750717,73.0959076 41.8894009,78.4316487 C38.2104799,80.5136887 33.9607487,81.7050691 29.4355108,81.7050691 Z M45.2081987,4.14746544 C59.033309,4.14746544 70.3030437,15.2034797 70.5069124,28.8706229 C67.5347201,27.8572989 64.3471036,27.3058122 61.0323786,27.3058122 C55.2051978,27.3058122 49.7708977,29.0076758 45.2073733,31.9354839 C40.6438488,29.0076758 35.2103741,27.3058122 29.3823679,27.3058122 C26.067643,27.3058122 22.8808519,27.8572989 19.9078341,28.8707047 C20.1125283,15.2034797 31.3814376,4.14746544 45.2081987,4.14746544 Z M48.5253456,34.4087066 C52.1890928,32.3077773 56.4212958,31.1059908 60.9270477,31.1059908 C64.1595242,31.1059908 67.2507082,31.7242965 70.0921659,32.8488052 C68.9683977,40.5753459 64.3878923,47.1820212 57.9919426,51.0138249 C56.749883,44.4434669 53.3325762,38.6428194 48.5253456,34.4087066 Z M32.4236254,51.0138249 C26.0276757,47.1822699 21.4463488,40.5755946 20.3225806,32.848971 C23.1640384,31.7243794 26.2560438,31.1059908 29.4876989,31.1059908 C33.9934507,31.1059908 38.2264752,32.3077773 41.8894009,34.4087066 C37.0829918,38.6428194 33.665685,44.4435498 32.4236254,51.0138249 Z M45.2077888,76.3133641 C39.4852006,71.711788 35.7845493,64.6930126 35.6682028,56.8202765 C38.6608022,57.8496858 41.8703049,58.409292 45.2077888,58.409292 C48.5452727,58.409292 51.7539443,57.8496858 54.7465438,56.8202765 C54.6301972,64.6930126 50.9295459,71.711788 45.2077888,76.3133641 Z M74.1601847,30.4087826 C74.1791496,29.9846876 74.1898689,29.5587 74.1898689,29.1300793 C74.1898689,13.0679529 61.0958415,0 45.0004123,0 C28.9041585,0 15.8093065,13.0679529 15.8093065,29.1300793 C15.8093065,29.5587 15.8208504,29.9846876 15.8389907,30.4088649 C6.44064536,35.2534554 0,45.0439288 0,56.3082024 C0,72.3701642 13.094852,85.437788 29.1902812,85.437788 C35.0125058,85.437788 40.4405904,83.7270903 44.9995877,80.7845916 C49.5585851,83.7270903 54.9874942,85.437788 60.8088943,85.437788 C76.9043234,85.437788 90,72.3701642 90,56.3082024 C90,45.0438465 83.5593546,35.2532909 74.1601847,30.4087826 L74.1601847,30.4087826 Z" id="Fill-11"></path>
            </g>
        </g>
    </g>
</svg>