<?xml version="1.0" encoding="UTF-8"?>
<svg width="34px" height="46px" viewBox="0 0 34 46" version="1.1" xmlns="http://www.w3.org/2000/svg" xmlns:xlink="http://www.w3.org/1999/xlink">
    <title>Group 11</title>
    <g id="May-2022-Marketing-Website" stroke="none" stroke-width="1" fill="none" fill-rule="evenodd">
        <g id="Features" transform="translate(-414.000000, -1358.000000)" fill="#FBC25E">
            <g id="Group-11" transform="translate(414.000000, 1358.000000)">
                <path d="M4,20 C2.897,20 2,20.897 2,22 L2,42 C2,43.103 2.897,44 4,44 L30,44 C31.103,44 32,43.103 32,42 L32,22 C32,20.897 31.103,20 30,20 L4,20 Z M30,46 L4,46 C1.794,46 0,44.206 0,42 L0,22 C0,19.794 1.794,18 4,18 L30,18 C32.206,18 34,19.794 34,22 L34,42 C34,44.206 32.206,46 30,46 L30,46 Z" id="Fill-108"></path>
                <path d="M23,19 L21,19 L21,12 C21,9.794 19.206,8 17,8 C14.794,8 13,9.794 13,12 L13,19 L11,19 L11,12 C11,8.691 13.691,6 17,6 C20.309,6 23,8.691 23,12 L23,19" id="Fill-109"></path>
                <path d="M29,19 L27,19 L27,12 C27,6.486 22.514,2 17,2 C11.486,2 7,6.486 7,12 L7,19 L5,19 L5,12 C5,5.383 10.383,0 17,0 C23.617,0 29,5.383 29,12 L29,19" id="Fill-110"></path>
                <polygon id="Fill-111" points="4 42 30 42 30 40 4 40"></polygon>
                <path d="M17,26 C15.897,26 15,26.897 15,28 C15,29.103 15.897,30 17,30 C18.103,30 19,29.103 19,28 C19,26.897 18.103,26 17,26 Z M17,32 C14.794,32 13,30.206 13,28 C13,25.794 14.794,24 17,24 C19.206,24 21,25.794 21,28 C21,30.206 19.206,32 17,32 L17,32 Z" id="Fill-112"></path>
                <polygon id="Fill-113" points="16 36 18 36 18 31 16 31"></polygon>
            </g>
        </g>
    </g>
</svg>