<?xml version="1.0" encoding="UTF-8"?>
<svg width="127px" height="82px" viewBox="0 0 127 82" version="1.1" xmlns="http://www.w3.org/2000/svg" xmlns:xlink="http://www.w3.org/1999/xlink">
    <title>Group 8</title>
    <g id="May-2022-Marketing-Website" stroke="none" stroke-width="1" fill="none" fill-rule="evenodd" stroke-linecap="round">
        <g id="About" transform="translate(-849.000000, -2419.000000)" stroke="#FBC25E" stroke-width="2">
            <g id="Group-8" transform="translate(850.000000, 2420.000000)">
                <path d="M12.5068387,10.7338958 C13.8843474,10.7338958 15.0777965,10.2307891 16.0849628,9.22330521 C17.0908586,8.21709181 17.5955533,6.99632754 17.5955533,5.56514144 C17.5955533,4.18795037 17.0908586,2.99497767 16.0849628,1.98765261 C15.0777965,0.981439206 13.8843474,0.476426799 12.5068387,0.476426799 C11.0756526,0.476426799 9.85584119,0.981439206 8.84962779,1.98765261 C7.84150868,2.99497767 7.33840199,4.18795037 7.33840199,5.56514144 C7.33840199,6.99632754 7.84150868,8.21709181 8.84962779,9.22330521 C9.85584119,10.2307891 11.0756526,10.7338958 12.5068387,10.7338958" id="Fill-1"></path>
                <path d="M0,20.3002283 C0,15.0893896 2.73850124,12.4831762 8.21312159,12.4831762 L14.1349479,12.4831762 C16.7705409,12.4831762 18.7950372,13.405062 20.2168536,15.2462928 L25.742928,22.5118015 L32.7221042,22.5118015 C34.3545012,22.5118015 35.1699851,23.1711762 35.1699851,24.4851613 C35.1699851,25.9603375 34.3545012,26.6972109 32.7221042,26.6972109 L25.5064615,26.6972109 C24.1926352,26.6972109 23.1373499,26.1804467 22.3474342,25.144536 L20.7679206,23.1259156 C20.135861,22.2953449 19.6119504,21.9585112 19.1885658,22.1160496 C18.8220347,22.276129 18.63734,22.7754243 18.63734,23.6166352 L18.63734,60.8902035 C18.63734,62.7854293 17.7292705,63.7320893 15.9137667,63.7320893 C13.9907494,63.7320893 13.0304318,62.8070273 13.0304318,60.959603 L13.0304318,39.0204665 C13.0304318,38.2804169 12.8212804,37.908804 12.3955136,37.908804 C11.9233747,37.908804 11.6867494,38.2804169 11.6867494,39.0204665 L11.6867494,60.959603 C11.6867494,62.8070273 10.7518412,63.7320893 8.88456576,63.7320893 C7.01744913,63.7320893 6.08254094,62.7809826 6.08254094,60.8833747 L6.08254094,23.5415186 C6.08254094,22.5905707 5.73760794,22.1160496 5.0542531,22.1160496 C4.37121588,22.1160496 4.02818859,22.5905707 4.02818859,23.537866 L4.02818859,34.5136278 C4.02818859,36.2506799 3.3724665,37.1190471 2.05498759,37.1190471 C0.684307692,37.1190471 0,36.2506799 0,34.5136278 L0,20.3002283" id="Fill-3"></path>
                <polyline id="Fill-4" points="29.4838313 80 0 80 0 63.7320893 25.323196 63.7320893 29.4838313 80"></polyline>
                <path d="M62.2048238,10.257469 C63.5823325,10.257469 64.7759404,9.75436228 65.7832655,8.74687841 C66.7891613,7.74066501 67.2935385,6.51990074 67.2935385,5.08871464 C67.2935385,3.71152357 66.7891613,2.51855087 65.7832655,1.51122581 C64.7759404,0.505012407 63.5823325,0 62.2048238,0 C60.7737965,0 59.5538263,0.505012407 58.5479305,1.51122581 C57.5398114,2.51855087 57.0363871,3.71152357 57.0363871,5.08871464 C57.0363871,6.51990074 57.5398114,7.74066501 58.5479305,8.74687841 C59.5538263,9.75436228 60.7737965,10.257469 62.2048238,10.257469" id="Fill-6"></path>
                <path d="M82.4200893,22.0353747 L75.4412308,22.0353747 L69.9151563,14.769866 C68.49334,12.9286352 66.4685261,12.0067494 63.832933,12.0067494 L60.3618462,12.0067494 C57.7259355,12.0067494 55.7014392,12.9286352 54.2796228,14.769866 L48.7535484,22.0353747 L41.7746898,22.0353747 C40.1422928,22.0353747 39.3264913,22.6947494 39.3264913,24.0087345 C39.3264913,25.4839107 40.1422928,26.2207841 41.7746898,26.2207841 L48.9898561,26.2207841 C50.3041588,26.2207841 51.3592854,25.7040199 52.1493598,24.6681092 L53.728397,22.6494888 C54.1536873,22.0906402 54.5286352,21.7611117 54.8584814,21.6488337 C55.4687841,21.6985409 55.7808437,22.1668685 55.7808437,23.0650918 L55.7808437,60.4069479 C55.7808437,62.3045558 56.7157519,63.2556625 58.5827097,63.2556625 C60.505727,63.2556625 61.4663623,62.3306005 61.4663623,60.4831762 L61.4663623,38.5440397 C61.4663623,37.806531 61.6740844,37.4349181 62.0976278,37.4323772 C62.5206948,37.4349181 62.7284169,37.806531 62.7284169,38.5440397 L62.7284169,60.4831762 C62.7284169,62.3306005 63.6890521,63.2556625 65.6117519,63.2556625 C67.4790273,63.2556625 68.4139355,62.3045558 68.4139355,60.4069479 L68.4139355,23.0650918 C68.4139355,22.1668685 68.725995,21.6985409 69.336139,21.6488337 C69.6661439,21.7611117 70.0410918,22.0906402 70.4663821,22.6494888 L72.0454194,24.6681092 C72.8354938,25.7040199 73.8906203,26.2207841 75.2049231,26.2207841 L82.4200893,26.2207841 C84.0526452,26.2207841 84.8682878,25.4839107 84.8682878,24.0087345 C84.8682878,22.6947494 84.0526452,22.0353747 82.4200893,22.0353747" id="Fill-7"></path>
                <polyline id="Fill-8" points="79.2551861 63.7320893 43.3510273 63.7320893 39.1902333 80 83.416139 80 79.2551861 63.7320893"></polyline>
                <path d="M111.688258,10.257469 C110.310749,10.257469 109.1173,9.75436228 108.110134,8.74687841 C107.103921,7.74066501 106.599543,6.51990074 106.599543,5.08871464 C106.599543,3.71152357 107.103921,2.51855087 108.110134,1.51122581 C109.1173,0.505012407 110.310749,0 111.688258,0 C113.119444,0 114.339256,0.505012407 115.345151,1.51122581 C116.35327,2.51855087 116.856695,3.71152357 116.856695,5.08871464 C116.856695,6.51990074 116.35327,7.74066501 115.345151,8.74687841 C114.339256,9.75436228 113.119444,10.257469 111.688258,10.257469" id="Fill-9"></path>
                <path d="M124.194779,34.037201 C124.194779,35.7742531 123.510471,36.6426203 122.140268,36.6426203 C120.82263,36.6426203 120.166908,35.7742531 120.166908,34.037201 L120.166908,23.0614392 C120.166908,22.1141439 119.823881,21.6396228 119.140844,21.6396228 C118.457489,21.6396228 118.112238,22.1141439 118.112238,23.0650918 L118.112238,60.4069479 C118.112238,62.3045558 117.177806,63.2556625 115.310531,63.2556625 C113.443256,63.2556625 112.508347,62.3306005 112.508347,60.4831762 L112.508347,38.5440397 C112.508347,37.8039901 112.271722,37.4323772 111.799583,37.4323772 C111.373816,37.4323772 111.164665,37.8039901 111.164665,38.5440397 L111.164665,60.4831762 C111.164665,62.3306005 110.20403,63.2556625 108.28133,63.2556625 C106.465509,63.2556625 105.557757,62.3090025 105.557757,60.4137767 L105.557757,23.1402084 C105.557757,22.2989975 105.373062,21.7997022 105.006531,21.6396228 C104.583146,21.4820844 104.058918,21.8189181 103.426859,22.6494888 L101.847663,24.6681092 C101.057747,25.7040199 100.002462,26.2207841 98.6886352,26.2207841 L91.4729926,26.2207841 C89.8405955,26.2207841 89.024794,25.4839107 89.024794,24.0087345 C89.024794,22.6947494 89.8405955,22.0353747 91.4729926,22.0353747 L98.4521687,22.0353747 L103.977926,14.769866 C105.399742,12.9286352 107.424556,12.0067494 110.060149,12.0067494 L115.981975,12.0067494 C121.456278,12.0067494 124.194779,14.6129628 124.194779,19.8238015 L124.194779,34.037201" id="Fill-10"></path>
                <polyline id="Fill-11" points="93.9172208 80 123.400734 80 123.400734 63.7320893 98.0778561 63.7320893 93.9172208 80"></polyline>
            </g>
        </g>
    </g>
</svg>