<?xml version="1.0" encoding="UTF-8"?>
<svg width="60px" height="69px" viewBox="0 0 60 69" version="1.1" xmlns="http://www.w3.org/2000/svg" xmlns:xlink="http://www.w3.org/1999/xlink">
    <title>Group 10</title>
    <defs>
        <polygon id="path-1" points="0 0 60 0 60 47.663 0 47.663"></polygon>
    </defs>
    <g id="May-2022-Marketing-Website" stroke="none" stroke-width="1" fill="none" fill-rule="evenodd">
        <g id="About" transform="translate(-247.000000, -698.000000)">
            <g id="Group-4" transform="translate(246.000000, 460.000000)">
                <g id="Group-3" transform="translate(1.000000, 79.000000)">
                    <g id="Group-12" transform="translate(0.000000, 153.000000)">
                        <g id="Group-10" transform="translate(0.000000, 6.000000)">
                            <g id="Group-3" transform="translate(0.000000, 20.705100)">
                                <mask id="mask-2" fill="white">
                                    <use xlink:href="#path-1"></use>
                                </mask>
                                <g id="Clip-2"></g>
                                <path d="M39.8022,0 C39.6902,0 39.6272,0.011 39.6272,0.011 L32.6292,0.011 L32.6292,0 L30.0002,0.01 L27.3712,0 L27.3712,0.011 L20.3722,0.011 C20.3722,0.011 20.3102,0 20.1982,0 C19.4252,0 16.3002,0.499 15.2042,8.384 C13.9502,17.412 13.9502,17.663 13.4492,19.167 C12.9482,20.672 6.9292,23.43 3.9202,24.684 C0.9112,25.937 -0.8448,27.944 0.4092,30.201 C1.1402,31.517 2.2502,32.33 4.0302,32.33 C5.3042,32.33 6.9222,31.913 8.9912,30.967 C13.9502,28.696 17.7122,25.437 19.2172,24.183 C19.2172,27.191 18.7152,32.33 18.7152,32.33 C18.7152,32.33 10.6912,33.461 7.6812,33.963 C4.6722,34.464 3.9202,35.969 3.4182,37.724 C2.9172,39.479 3.9202,42.238 8.4342,42.99 C12.9482,43.742 29.7492,47.594 29.7492,47.594 C29.7492,47.594 30.0922,47.663 30.5992,47.663 C31.6532,47.663 33.4162,47.361 34.2632,45.498 C35.5172,42.739 34.1922,40.733 30.3412,39.981 C26.4892,39.229 21.4732,38.002 21.4732,38.002 C21.4732,38.002 22.7272,36.972 24.2322,36.721 C24.3312,36.704 24.4492,36.696 24.5842,36.696 C26.4822,36.696 31.6362,38.259 33.5102,38.728 C35.3842,39.195 37.9122,42.944 36.6052,45.48 C36.4002,45.808 36.2692,45.999 36.2692,45.999 C36.2692,45.999 47.0522,43.742 51.5662,42.99 C56.0802,42.238 57.0832,39.479 56.5812,37.724 C56.0802,35.969 55.3272,34.464 52.3182,33.963 C49.3092,33.461 41.2842,32.33 41.2842,32.33 C41.2842,32.33 40.7832,27.191 40.7832,24.183 C42.2872,25.437 46.0492,28.696 51.0092,30.967 C53.0772,31.913 54.6962,32.33 55.9692,32.33 C57.7502,32.33 58.8602,31.517 59.5912,30.201 C60.8442,27.944 59.0892,25.937 56.0802,24.684 C53.0712,23.43 47.0522,20.672 46.5512,19.167 C46.0492,17.663 46.0492,17.412 44.7952,8.384 C43.7002,0.499 40.5752,0 39.8022,0 M27.5662,2.001 L30.0072,2.01 L32.4322,2.001 C32.4972,2.007 32.5632,2.011 32.6292,2.011 L39.6272,2.011 C39.7292,2.011 39.7632,2.019 39.7982,2.019 C39.8182,2.019 39.8372,2.016 39.8682,2.008 C40.4782,2.126 42.0972,3.498 42.8142,8.659 L43.1722,11.242 C44.0912,17.882 44.1462,18.279 44.6532,19.8 C44.8962,20.527 45.5402,22.459 55.3102,26.53 C56.9992,27.233 57.7872,28.021 57.9622,28.524 C57.9982,28.63 58.0662,28.826 57.8422,29.229 C57.3972,30.031 56.8892,30.33 55.9692,30.33 C54.9442,30.33 53.5542,29.932 51.8412,29.147 C47.3992,27.114 43.9792,24.25 42.3352,22.874 L42.0632,22.646 C41.6972,22.341 41.2422,22.183 40.7822,22.183 C40.4952,22.183 40.2052,22.245 39.9342,22.372 C39.2322,22.701 38.7832,23.406 38.7832,24.183 C38.7832,27.254 39.2732,32.311 39.2942,32.524 C39.3842,33.443 40.0912,34.182 41.0052,34.311 C41.0852,34.321 49.0392,35.443 51.9902,35.936 C53.9922,36.27 54.2952,37.004 54.6582,38.273 C54.6952,38.401 54.7872,38.86 54.4452,39.402 C53.9522,40.181 52.8132,40.755 51.2372,41.018 C48.2082,41.522 42.4962,42.675 38.9462,43.403 C38.8802,42.594 38.6562,41.756 38.2762,40.916 C37.3282,38.82 35.6482,37.2 33.9952,36.787 C33.5832,36.684 33.0072,36.525 32.3412,36.344 C29.0482,35.442 26.1912,34.696 24.5842,34.696 C24.3342,34.696 24.1122,34.714 23.9032,34.748 C21.9282,35.077 20.3752,36.316 20.2042,36.457 C19.6192,36.938 19.3552,37.708 19.5242,38.446 C19.6922,39.185 20.2632,39.765 20.9982,39.944 C21.2052,39.995 26.1042,41.191 29.9572,41.944 C32.0372,42.351 32.5322,43.029 32.6352,43.229 C32.8382,43.623 32.6422,44.23 32.4422,44.67 C32.3192,44.942 31.9902,45.663 30.5992,45.663 C30.3702,45.663 30.2012,45.642 30.1452,45.633 C28.9392,45.356 13.2042,41.758 8.7622,41.018 C7.1862,40.755 6.0472,40.181 5.5552,39.402 C5.2122,38.86 5.3052,38.401 5.3422,38.273 C5.7042,37.004 6.0072,36.27 8.0102,35.936 C10.9602,35.443 18.9142,34.321 18.9942,34.311 C19.9092,34.182 20.6162,33.443 20.7062,32.524 C20.7272,32.311 21.2172,27.254 21.2172,24.183 C21.2172,23.406 20.7682,22.701 20.0652,22.372 C19.7942,22.245 19.5052,22.183 19.2172,22.183 C18.7582,22.183 18.3032,22.341 17.9362,22.646 L17.6642,22.874 C16.0212,24.25 12.6012,27.114 8.1582,29.147 C6.4452,29.932 5.0562,30.33 4.0302,30.33 C3.1112,30.33 2.6032,30.031 2.1572,29.229 C1.9332,28.826 2.0012,28.63 2.0382,28.524 C2.2132,28.021 3.0012,27.233 4.6892,26.53 C14.4602,22.459 15.1042,20.527 15.3462,19.8 C15.8532,18.279 15.9082,17.882 16.8272,11.242 L17.1852,8.659 C17.9032,3.492 19.5252,2.123 20.1302,2.008 C20.1622,2.016 20.1822,2.019 20.2022,2.019 C20.2372,2.019 20.2712,2.011 20.3722,2.011 L27.3712,2.011 C27.4362,2.011 27.5012,2.007 27.5662,2.001" id="Fill-1" fill="#FBC25E" mask="url(#mask-2)"></path>
                            </g>
                            <path d="M30,0 C25.43,0 21.725,3.705 21.725,8.275 C21.725,12.846 25.43,16.551 30,16.551 C34.57,16.551 38.275,12.846 38.275,8.275 C38.275,3.705 34.57,0 30,0 M30,2 C33.46,2 36.275,4.815 36.275,8.275 C36.275,11.736 33.46,14.551 30,14.551 C26.54,14.551 23.725,11.736 23.725,8.275 C23.725,4.815 26.54,2 30,2" id="Fill-4" fill="#FBC25E"></path>
                            <path d="M43.9971,8.8077 C43.9971,8.8277 44.0001,8.8467 44.0001,8.8667 C44.0001,9.6087 43.9251,10.3317 43.8131,11.0437 C51.0301,15.6307 55.8351,23.6847 55.8351,32.8507 C55.8351,34.9457 55.5791,36.9797 55.1051,38.9317 C55.6771,39.2027 56.2951,39.4847 56.9661,39.7787 C57.5331,37.5637 57.8351,35.2427 57.8351,32.8507 C57.8351,22.5847 52.2681,13.6327 43.9971,8.8077" id="Fill-6" fill="#FBC25E"></path>
                            <path d="M16.187,11.044 C16.075,10.332 16,9.608 16,8.866 C16,8.847 16.003,8.827 16.003,8.808 C7.732,13.632 2.165,22.585 2.165,32.851 C2.165,35.242 2.467,37.564 3.034,39.778 C3.705,39.485 4.323,39.202 4.894,38.931 C4.421,36.98 4.165,34.945 4.165,32.851 C4.165,23.685 8.97,15.63 16.187,11.044" id="Fill-8" fill="#FBC25E"></path>
                        </g>
                    </g>
                </g>
            </g>
        </g>
    </g>
</svg>