<?xml version="1.0" encoding="UTF-8"?>
<svg width="91px" height="75px" viewBox="0 0 91 75" version="1.1" xmlns="http://www.w3.org/2000/svg" xmlns:xlink="http://www.w3.org/1999/xlink">
    <title>Group 16</title>
    <g id="May-2022-Marketing-Website" stroke="none" stroke-width="1" fill="none" fill-rule="evenodd">
        <g id="About" transform="translate(-1058.000000, -2124.000000)">
            <g id="Group-16" transform="translate(1058.000000, 2126.000000)">
                <path d="M89.1080691,43.2356946 C87.2985829,40.1394206 83.3099205,39.0902227 80.2117457,40.8911556 C80.209845,40.892106 80.2079442,40.8930563 80.2060435,40.8940067 L65.5191744,49.3702708 C65.5220254,49.2894902 65.5248765,49.2087096 65.5248765,49.1269786 C65.5248765,45.3530975 62.4552125,42.2843839 58.6822819,42.2843839 L42.0608592,42.2843839 L33.9681605,38.7889585 C33.7897778,38.7119793 33.5974249,38.6730145 33.4030762,38.6730145 L19.5278148,38.6730145 C18.7404412,38.6730145 18.1022742,39.3107063 18.1022742,40.0985551 C18.1022742,40.8854534 18.7404412,41.5240956 19.5278148,41.5240956 L33.1083694,41.5240956 L41.2010681,45.0185707 C41.3794508,45.0955499 41.5718987,45.135465 41.7662474,45.135465 L58.6822819,45.135465 C60.8833165,45.135465 62.6737954,46.925944 62.6737954,49.1269786 C62.6737954,50.0032108 62.3896377,50.8138682 61.9087553,51.472468 C61.7538466,51.5941141 61.6302997,51.7433207 61.5400155,51.9096337 C60.8148905,52.6537659 59.8018064,53.1184921 58.6822819,53.1184921 L39.1052384,53.1184921 C38.3178648,53.1184921 37.6796979,53.7561839 37.6796979,54.5440327 C37.6796979,55.3309311 38.3178648,55.9695732 39.1052384,55.9695732 L58.6822819,55.9695732 C60.7246063,55.9695732 62.5588018,55.069582 63.8132775,53.6468925 L81.6315841,43.3639933 C81.6325344,43.3630429 81.6334848,43.3620926 81.6344351,43.3620926 C81.6363359,43.3611422 81.6372862,43.3601918 81.6382366,43.3601918 C83.3811975,42.3414055 85.6278494,42.930629 86.6456854,44.6735899 C87.1398728,45.5175099 87.2748239,46.503984 87.0258295,47.4495925 C86.7777855,48.3952011 86.1762074,49.1878016 85.3322873,49.6810387 L55.0595081,67.1458112 C55.0214937,67.1676695 54.9787275,67.1952299 54.9426138,67.2208896 C54.7468396,67.3596423 50.0682155,70.5880164 44.3476163,67.4869905 C37.7414713,63.9050823 30.4171389,60.7156729 30.3439612,60.6833607 C30.1596863,60.6035304 29.9626766,60.5588635 29.7596796,60.565516 L19.430783,60.684311 C18.6435995,60.6938146 18.0126553,61.3391093 18.021681,62.1260077 C18.0309022,62.9138564 18.6715401,63.5448957 19.4636655,63.5353921 L29.4849305,63.4203985 C30.870841,64.0314802 37.2111702,66.8607031 42.9885059,69.9930908 C45.3097611,71.251368 47.4993914,71.6856827 49.418169,71.6856827 C53.2861357,71.6856827 56.0478829,69.9199131 56.5373185,69.5844359 L86.7635301,52.1472238 C86.7644804,52.1462735 86.7654308,52.1453231 86.7663811,52.1453231 C86.7682819,52.1443727 86.7692322,52.1434224 86.7701826,52.1434224 C88.2727023,51.2652894 89.3428081,49.855905 89.7837753,48.1728168 C90.2256929,46.4906789 89.9852517,44.737264 89.1080691,43.2356946" id="Fill-1" stroke="#FBC25E" fill="#FBC25E"></path>
                <path d="M2.85108111,67.606736 L18.0216837,67.606736 L18.0216837,34.4921892 L2.85108111,34.4921892 L2.85108111,67.606736 Z M19.4472242,70.4578171 L1.42554055,70.4578171 C0.638262024,70.4578171 0,69.8201253 0,69.0322765 L0,33.0666486 C0,32.2792751 0.638262024,31.6411081 1.42554055,31.6411081 L19.4472242,31.6411081 C20.2345028,31.6411081 20.8727648,32.2792751 20.8727648,33.0666486 L20.8727648,69.0322765 C20.8727648,69.8201253 20.2345028,70.4578171 19.4472242,70.4578171 L19.4472242,70.4578171 Z" id="Fill-2" fill="#FBC25E"></path>
                <path d="M66.5702729,7.88799107 C66.5702729,12.244443 63.0387338,15.7759821 58.6822819,15.7759821 C54.3258299,15.7759821 50.7942908,12.244443 50.7942908,7.88799107 C50.7942908,3.53153913 54.3258299,0 58.6822819,0 C63.0387338,0 66.5702729,3.53153913 66.5702729,7.88799107" id="Fill-3" stroke="#FBC25E" stroke-width="3"></path>
                <path d="M74.5941655,15.712308 C73.8446834,15.712308 69.8792559,15.79532 67.8248615,18.3995069 C74.2207227,22.7138788 72.0600055,27.2608028 72.2212681,31.3002429 C73.6350469,31.5041381 75.1814198,31.6163987 76.8018527,31.6163987 C81.0813254,31.6163987 84.8457028,30.8327315 87.0134748,29.647347 L87.0134748,22.3324233 C87.0134748,16.0713541 80.0283261,15.712308 79.0076391,15.712308 C76.8009023,15.712308 76.8009023,15.712308 74.5941655,15.712308 Z" id="Fill-4" stroke="#FBC25E" stroke-width="3"></path>
                <path d="M83.1901751,7.63975694 C83.1901751,11.16854 80.3295904,14.0290297 76.8009023,14.0290297 C73.2722143,14.0290297 70.4116295,11.16854 70.4116295,7.63975694 C70.4116295,4.11106889 73.2722143,1.25048417 76.8009023,1.25048417 C80.3295904,1.25048417 83.1901751,4.11106889 83.1901751,7.63975694" id="Fill-5" stroke="#FBC25E" stroke-width="3"></path>
                <path d="M42.7444534,15.712308 C43.4995626,15.712308 47.5213819,15.7966182 49.5615938,18.4608228 C43.7139786,20.9314889 45.2695335,28.0981816 45.1967643,31.2887057 C43.7615982,31.4998993 42.1876983,31.6163987 40.5369563,31.6163987 C36.2571034,31.6163987 32.492821,30.8327315 30.3252391,29.647347 L30.3252391,22.3324233 C30.3252391,16.0713541 37.3106729,15.712308 38.3309798,15.712308 L42.7444534,15.712308 Z" id="Fill-6" stroke="#FBC25E" stroke-width="3"></path>
                <path d="M34.1483488,7.63975694 C34.1483488,11.16854 37.0090285,14.0290297 40.5377166,14.0290297 C44.0664046,14.0290297 46.9272745,11.16854 46.9272745,7.63975694 C46.9272745,4.11106889 44.0664046,1.25048417 40.5377166,1.25048417 C37.0090285,1.25048417 34.1483488,4.11106889 34.1483488,7.63975694" id="Fill-7" stroke="#FBC25E" stroke-width="3"></path>
                <path d="M61.406965,16.9036797 L55.958549,16.9036797 C54.995834,16.9036797 52.5039891,17.0183882 50.1527976,18.0808911 C46.86265,19.5675399 45.1244408,22.3152218 45.1244408,26.0271393 L45.1244408,35.6191265 L45.6186282,35.889409 C48.5343338,37.4860144 53.4182358,38.4392259 58.6832322,38.4392259 C63.946328,38.4392259 68.8292795,37.4869648 71.7468859,35.8913097 L72.2410733,35.6213123 L72.2410733,26.0271393 C72.2410733,22.4223274 70.5057152,19.7089535 67.2222201,18.1803939 C64.5574097,16.9395083 61.7215343,16.9036797 61.406965,16.9036797 Z" id="Fill-9" stroke="#FBC25E" stroke-width="3"></path>
            </g>
        </g>
    </g>
</svg>