<?xml version="1.0" encoding="UTF-8"?>
<svg width="94px" height="86px" viewBox="0 0 94 86" version="1.1" xmlns="http://www.w3.org/2000/svg" xmlns:xlink="http://www.w3.org/1999/xlink">
    <title>Group 15</title>
    <g id="May-2022-Marketing-Website" stroke="none" stroke-width="1" fill="none" fill-rule="evenodd">
        <g id="About" transform="translate(-293.000000, -2117.000000)" stroke="#FBC25E">
            <g id="Group-15" transform="translate(295.000000, 2119.000000)">
                <path d="M44.3204625,29.674809 C29.1786984,29.674809 16.9038119,41.9498829 16.9038119,57.091647 C16.9038119,64.1992162 19.607752,70.6739722 24.0426936,75.5446643 L24.0426936,71.995661 C24.0426936,71.7710358 24.0520686,71.5494105 24.0672561,71.3287228 C24.1460062,70.1860968 24.4272565,69.0899708 24.8821319,68.0791573 C25.4391949,66.8397811 26.2538832,65.7314676 27.2723841,64.8292168 C28.2074475,64.003091 29.311261,63.3513404 30.5448247,62.93359 L34.5496409,61.5805887 L36.5118302,60.9174006 L42.4863358,69.4479086 L42.1045855,68.0875948 C42.0134604,67.7617195 42.0363354,67.4120317 42.1717105,67.1022814 L43.3968367,64.2826538 C43.5492743,63.9303409 43.5076493,63.5247781 43.2878991,63.2101528 L42.2787731,61.7729639 L46.3897145,61.7729639 L45.379651,63.2101528 C45.1599008,63.5247781 45.1192133,63.9303409 45.2716509,64.2826538 L46.4958396,67.1022814 C46.6302772,67.4120317 46.6550272,67.7617195 46.5629646,68.0875948 L46.475027,68.4022201 L52.1547824,60.9164631 L55.8734733,62.1745893 L58.1236629,62.93359 C59.3562891,63.3513404 60.4608526,64.003091 61.395166,64.8292168 C62.4144169,65.7314676 63.2292927,66.8397811 63.7863557,68.0791573 C64.2391686,69.0899708 64.5215439,70.1860968 64.6012315,71.3287228 C64.616419,71.5494105 64.625794,71.7710358 64.625794,71.995661 L64.625794,75.5144767 C69.0447981,70.6464097 71.7373006,64.1842162 71.7373006,57.091647 C71.7373006,41.9498829 59.4624142,29.674809 44.3204625,29.674809 Z M44.333775,59.5368368 C38.8567074,59.5368368 34.4168908,55.0973952 34.4168908,49.6201401 C34.4168908,44.1430725 38.8567074,39.7025058 44.333775,39.7025058 C49.8108427,39.7025058 54.2514093,44.1430725 54.2514093,49.6201401 C54.2514093,55.0973952 49.8108427,59.5368368 44.333775,59.5368368 L44.333775,59.5368368 Z" id="Fill-211" stroke-width="2.5"></path>
                <path d="M58.219288,72.4949739 C58.219288,72.1690986 57.9399128,71.9105359 57.6091624,71.9425984 C57.3202247,71.9692234 57.1079745,72.2277862 57.1079745,72.518599 L57.1079745,81.3515447 C57.4842873,81.152607 57.8544127,80.9450443 58.219288,80.7301691 L58.219288,72.4949739" id="Fill-212" stroke-width="2" fill="#FBC25E"></path>
                <path d="M31.5832006,72.4949739 C31.5832006,72.1690986 31.3045754,71.9105359 30.9721376,71.9425984 C30.6831998,71.9692234 30.4718871,72.2277862 30.4718871,72.518599 L30.4718871,80.7594191 C30.8365749,80.9735443 31.2070753,81.1801695 31.5832006,81.3772322 L31.5832006,72.4949739" id="Fill-213" stroke-width="2" fill="#FBC25E"></path>
                <path d="M31.919951,10.9682915 L37.4369561,14.9766702 C37.9295191,15.3342331 38.1353943,15.9685462 37.9473316,16.5473592 L35.8400171,23.0328028 C35.4194542,24.3271165 36.9007056,25.4033675 38.0017066,24.6034917 L43.5187118,20.595113 C44.0112747,20.2373626 44.6778379,20.2373626 45.1704008,20.595113 L50.687406,24.6034917 C51.7882195,25.4033675 53.2694709,24.3271165 52.8490955,23.0328028 L50.7415935,16.5473592 C50.5537184,15.9685462 50.7595935,15.3342331 51.251969,14.9766702 L56.7689742,10.9682915 C57.8699752,10.1684157 57.3042872,8.42691412 55.9434109,8.42691412 L49.1240295,8.42691412 C48.5152165,8.42691412 47.9759659,8.03503875 47.7879033,7.45622571 L45.6805888,0.970594656 C45.2600259,-0.323531552 43.4290867,-0.323531552 43.0085238,0.970594656 L40.9012093,7.45622571 C40.7131467,8.03503875 40.1737087,8.42691412 39.5652706,8.42691412 L32.7457017,8.42691412 C31.3848255,8.42691412 30.8189499,10.1684157 31.919951,10.9682915" id="Fill-214" stroke-width="2.5"></path>
                <path d="M58.6717259,18.1810482 L62.9613549,21.2978636 C63.3442303,21.5759264 63.5043554,22.0690519 63.3582928,22.5192398 L61.7197288,27.562057 C61.3927285,28.5683704 62.5445421,29.4051837 63.4006678,28.7832456 L67.6904844,25.6666177 C68.0731722,25.3883675 68.5916102,25.3883675 68.9744856,25.6666177 L73.2643021,28.7832456 C74.1202404,29.4051837 75.2720539,28.5683704 74.9452411,27.562057 L73.3064896,22.5192398 C73.1602395,22.0690519 73.3205521,21.5759264 73.70324,21.2978636 L77.9930565,18.1810482 C78.8489948,17.5592976 78.4093069,16.2051714 77.3510559,16.2051714 L72.0485509,16.2051714 C71.5753005,16.2051714 71.1560501,15.9004836 71.0098,15.4502957 L69.3712359,10.4074785 C69.0442356,9.40116503 67.6205468,9.40116503 67.2935465,10.4074785 L65.6549825,15.4502957 C65.5087323,15.9004836 65.0892944,16.2051714 64.6162315,16.2051714 L59.3137265,16.2051714 C58.2554755,16.2051714 57.8157876,17.5592976 58.6717259,18.1810482" id="Fill-215" stroke-width="2.5"></path>
                <path d="M73.6168024,34.6079386 C72.710614,34.6079386 72.3337387,35.7674396 73.0668644,36.3001276 L76.7403678,38.9690051 C77.0683056,39.2071304 77.2053682,39.6295682 77.0803056,40.0148811 L75.6770543,44.3331976 C75.3971165,45.1951359 76.3833675,45.9115741 77.1164932,45.3790736 L80.7899966,42.7101961 C81.1177469,42.4718834 81.5617473,42.4718834 81.8894976,42.7101961 L85.5631885,45.3790736 C86.2961267,45.9115741 87.2823776,45.1951359 87.0024399,44.3331976 L85.5991886,40.0148811 C85.474126,39.6295682 85.6111886,39.2071304 85.9391264,38.9690051 L89.6126298,36.3001276 C90.3457555,35.7674396 89.9688802,34.6079386 89.0626918,34.6079386 L84.5220001,34.6079386 C84.1168122,34.6079386 83.7577494,34.3471258 83.6324992,33.9616255 L82.2294354,29.6431214 C81.9493102,28.7815581 80.730184,28.7815581 80.4502463,29.6431214 L79.046995,33.9616255 C78.9217448,34.3471258 78.5624945,34.6079386 78.1574941,34.6079386 L73.6168024,34.6079386" id="Fill-216" stroke-width="2.5"></path>
                <path d="M12.0068699,18.1810482 L16.2966864,21.2978636 C16.6795617,21.5759264 16.8396869,22.0690519 16.6932492,22.5192398 L15.0548727,27.562057 C14.7278724,28.5683704 15.8794985,29.4051837 16.7358118,28.7832456 L21.0256283,25.6666177 C21.4083161,25.3883675 21.9265666,25.3883675 22.309442,25.6666177 L26.5992585,28.7832456 C27.4553843,29.4051837 28.6071979,28.5683704 28.2801976,27.562057 L26.6416335,22.5192398 C26.4955709,22.0690519 26.655696,21.5759264 27.0383839,21.2978636 L31.3282004,18.1810482 C32.1841387,17.5592976 31.7442633,16.2051714 30.6861998,16.2051714 L25.3836949,16.2051714 C24.9104444,16.2051714 24.491194,15.9004836 24.3447564,15.4502957 L22.7063799,10.4074785 C22.3793796,9.40116503 20.9556907,9.40116503 20.6286904,10.4074785 L18.9901264,15.4502957 C18.8438763,15.9004836 18.4246259,16.2051714 17.9513754,16.2051714 L12.648683,16.2051714 C11.5906195,16.2051714 11.1507441,17.5592976 12.0068699,18.1810482" id="Fill-217" stroke-width="2.5"></path>
                <path d="M0.387296522,36.3001276 L4.06079995,38.9690051 C4.38855026,39.2071304 4.52580039,39.6295682 4.40055027,40.0148811 L2.99748646,44.3331976 C2.7173612,45.1951359 3.70379962,45.9115741 4.4367378,45.3790736 L8.11024123,42.7101961 C8.43817904,42.4718834 8.88199195,42.4718834 9.21011726,42.7101961 L12.8834332,45.3790736 C13.6165589,45.9115741 14.6028098,45.1951359 14.322872,44.3331976 L12.9198082,40.0148811 C12.7943706,39.6295682 12.9316207,39.2071304 13.2595585,38.9690051 L16.933062,36.3001276 C17.6660002,35.7674396 17.2893123,34.6079386 16.3833115,34.6079386 L11.8426197,34.6079386 C11.4372443,34.6079386 11.077994,34.3471258 10.9529314,33.9616255 L9.54968008,29.6431214 C9.26955481,28.7815581 8.05061618,28.7815581 7.77049092,29.6431214 L6.36723961,33.9616255 C6.24217699,34.3471258 5.88292665,34.6079386 5.47773877,34.6079386 L0.937047036,34.6079386 C0.0310461898,34.6079386 -0.345641662,35.7674396 0.387296522,36.3001276" id="Fill-218" stroke-width="2.5"></path>
            </g>
        </g>
    </g>
</svg>