<?xml version="1.0" encoding="UTF-8"?>
<svg width="195px" height="105px" viewBox="0 0 195 105" version="1.1" xmlns="http://www.w3.org/2000/svg" xmlns:xlink="http://www.w3.org/1999/xlink">
    <title>Group 3</title>
    <defs>
        <polygon id="path-1" points="0 0 126.623377 0 126.623377 44.2337662 0 44.2337662"></polygon>
    </defs>
    <g id="Onboarding" stroke="none" stroke-width="1" fill="none" fill-rule="evenodd">
        <g id="Modal:-Get-Started" transform="translate(-622.000000, -201.000000)">
            <g id="Group-2" transform="translate(469.000000, 147.000000)">
                <g id="Group-6" transform="translate(47.000000, 54.000000)">
                    <g id="Group-3" transform="translate(106.000000, 0.000000)">
                        <g id="ship-lg" fill="#F3BC6C">
                            <path d="M10,71 C15.5228475,71 20,75.4771525 20,81 C20,86.5228475 15.5228475,91 10,91 C4.4771525,91 0,86.5228475 0,81 C0,75.4771525 4.4771525,71 10,71 Z M10,76 C7.23857625,76 5,78.2385763 5,81 C5,83.7614237 7.23857625,86 10,86 C12.7614237,86 15,83.7614237 15,81 C15,78.2385763 12.7614237,76 10,76 Z" id="Oval" fill-rule="nonzero"></path>
                            <path d="M185,20 C190.522847,20 195,24.4771525 195,30 C195,35.5228475 190.522847,40 185,40 C179.477153,40 175,35.5228475 175,30 C175,24.4771525 179.477153,20 185,20 Z M185,25 C182.238576,25 180,27.2385763 180,30 C180,32.7614237 182.238576,35 185,35 C187.761424,35 190,32.7614237 190,30 C190,27.2385763 187.761424,25 185,25 Z" id="Oval" fill-rule="nonzero"></path>
                            <path d="M154.5,82 C156.432997,82 158,83.5670034 158,85.5 L157.999,90 L162.5,90 C164.432997,90 166,91.5670034 166,93.5 C166,95.4329966 164.432997,97 162.5,97 L157.999,97 L158,101.5 C158,103.432997 156.432997,105 154.5,105 C152.567003,105 151,103.432997 151,101.5 L150.999,96.999 L146.5,97 C144.567003,97 143,95.4329966 143,93.5 C143,91.5670034 144.567003,90 146.5,90 L150.999,89.999 L151,85.5 C151,83.5670034 152.567003,82 154.5,82 Z" id="Combined-Shape"></path>
                            <path d="M48.5,5 C50.4329966,5 52,6.56700338 52,8.5 L51.999,13 L56.5,13 C58.4329966,13 60,14.5670034 60,16.5 C60,18.4329966 58.4329966,20 56.5,20 L51.999,20 L52,24.5 C52,26.4329966 50.4329966,28 48.5,28 C46.5670034,28 45,26.4329966 45,24.5 L44.999,19.999 L40.5,20 C38.5670034,20 37,18.4329966 37,16.5 C37,14.5670034 38.5670034,13 40.5,13 L44.999,12.999 L45,8.5 C45,6.56700338 46.5670034,5 48.5,5 Z" id="Combined-Shape-Copy"></path>
                            <circle id="Oval" cx="58" cy="93" r="4"></circle>
                            <circle id="Oval" cx="147" cy="4" r="4"></circle>
                        </g>
                        <g id="ship-new" transform="translate(23.753247, 25.762136)">
                            <path d="M25.805245,29.3505889 C43.444889,22.6666256 61.2781157,16.6886101 79.5046884,11.7532884 C72.1947893,5.75508777 42.6234317,13.8283608 25.805245,29.3505889 Z" id="Fill-1" fill="#F3BC6C" transform="translate(52.654967, 19.558381) rotate(-5.000000) translate(-52.654967, -19.558381) "></path>
                            <path d="M68.8831169,5.48747126 C52.8408191,9.18556384 39.9174742,16.580635 28.7012987,26 C43.2619338,8.23837757 54.4502689,0.634290457 68.8831169,5.48747126 Z" id="Fill-3" fill="#F3BC6C"></path>
                            <g id="Group-7" transform="translate(12.493506, 0.000000)">
                                <mask id="mask-2" fill="white">
                                    <use xlink:href="#path-1"></use>
                                </mask>
                                <g id="Clip-6"></g>
                                <path d="M22.3526899,44.2086314 C29.3444544,44.0426741 36.2926295,43.230239 43.0341742,41.6379724 C46.4038289,40.8412095 49.7219307,39.8565202 52.9583025,38.6631949 C53.7683384,38.3672423 54.572786,38.0574367 55.371785,37.7340579 L56.6266561,37.220094 L57.2700186,36.9658407 L57.9174327,36.7171846 C59.6429854,36.0617513 61.3853032,35.4508157 63.1435479,34.8919342 C70.1770855,32.656828 77.4484088,31.2189046 84.7714246,30.5669695 C88.433212,30.234775 92.1098085,30.1231107 95.7778828,30.1772637 C97.6125486,30.2014716 99.4452585,30.2978836 101.273637,30.4264795 C101.573314,30.4487284 101.872991,30.4733561 102.172249,30.4972842 L126.623377,0.518343692 C105.001368,-2.82990776 62.1692135,10.0688644 3.35093358,38.41216 C1.87839492,39.1342001 0.808359463,40.585417 0,42.511697 C0.447908821,42.5893583 0.895957352,42.6653405 1.34414559,42.7390837 C8.317189,43.8649627 15.3595283,44.3545787 22.3526899,44.2086314 Z" id="Fill-5" fill="#F3BC6C" mask="url(#mask-2)"></path>
                            </g>
                            <path d="M2.76361804,42.2068019 C5.41260895,43.1322248 8.05768743,44.0279074 10.7276378,44.7807255 C12.0621937,45.1572041 13.4026183,45.5008849 14.7463965,45.8144086 C16.0918513,46.1220954 17.4406597,46.4022655 18.7937997,46.6465804 C19.4705094,46.7677651 20.1486165,46.8785268 20.8272824,46.9824788 C21.5053894,47.0892103 22.1844745,47.1867695 22.8645378,47.2750175 C24.2245245,47.4523474 25.5884237,47.589236 26.9524626,47.7065294 C28.3167809,47.8211824 29.6836144,47.8992853 31.050867,47.9482039 C32.4177005,48.0036543 33.7857916,48.0270018 35.1538826,48.0185244 C46.1046193,47.9558475 57.0156729,46.1753221 67.7183898,43.4083647 C69.0568582,43.0630161 70.3923923,42.7007129 71.7249921,42.3214549 L73.7474361,41.7344318 L75.7954507,41.1757594 C77.1629828,40.8091479 78.5345671,40.4560169 79.9097843,40.1170611 C81.2844426,39.7758818 82.6667861,39.4702796 84.0502474,39.1696805 C89.5847911,37.9692295 95.1946491,37.0902237 100.850897,36.6827541 C102.265518,36.5861677 103.682095,36.5179318 105.100489,36.4827716 C106.518883,36.4555328 107.938674,36.464844 109.358045,36.5104273 C112.195671,36.6110439 115.033995,36.8789843 117.837248,37.384569 C120.64022,37.8858455 123.407003,38.6346334 126.067312,39.6627576 C126.731726,39.9219427 127.389292,40.1961369 128.040012,40.4845064 C128.690313,40.7756554 129.331811,41.084037 129.966742,41.401035 C131.237302,42.0389222 132.470833,42.7315649 133.714286,43.401555 L133.657276,43.5638757 C132.303717,43.1800316 130.978104,42.7172507 129.645224,42.3185364 C128.980392,42.1143847 128.313742,41.9244083 127.645696,41.7465225 C126.978767,41.5661352 126.310022,41.401035 125.638622,41.2523336 C122.957074,40.6464102 120.244786,40.2875813 117.524533,40.1137258 C112.079416,39.7712957 106.608449,40.1633392 101.171157,40.8830817 C95.7303718,41.6092169 90.3196283,42.7153051 84.9345951,43.9913575 C83.5878826,44.310579 82.245921,44.6575952 80.9024223,44.9982187 C79.5593428,45.3403708 78.2182196,45.6961424 76.8789128,46.0662281 L74.8711403,46.6301816 L72.8464606,47.2051139 C71.4775312,47.5861786 70.1039907,47.9493157 68.7261186,48.2949422 C63.2146302,49.6707774 57.625033,50.7197475 51.9896046,51.3501302 C49.1725191,51.6704635 46.3429978,51.8619687 43.5117997,51.9602228 C42.0960609,52.000803 40.679344,52.0091414 39.2633257,51.9906579 C37.8473075,51.9717575 36.4315687,51.9242287 35.0186245,51.8309776 C29.3665683,51.4899373 23.7431566,50.5710461 18.3001356,48.9982858 C16.9395899,48.6065202 15.5903623,48.1730627 14.2576228,47.6938829 C12.9232066,47.2199841 11.6047195,46.7011969 10.3034191,46.1426634 C7.69746491,45.0325451 5.17367159,43.7405107 2.7012987,42.3670381 L2.76361804,42.2068019 Z" id="Fill-8" fill="#F3BC6C"></path>
                            <path d="M2.27809523,39.6370125 C4.96243308,40.2013785 7.6416004,40.745421 10.3403319,41.1869671 C11.6892783,41.4084729 13.0425569,41.6068217 14.3983508,41.7833815 C15.7552627,41.9562284 17.1145503,42.1091426 18.4769121,42.2364572 C19.158163,42.2999679 19.840392,42.3561505 20.5229005,42.4074476 C21.20485,42.4599172 21.887638,42.506622 22.570985,42.5463895 C23.9373995,42.6272924 25.3063293,42.6792734 26.6745605,42.7178684 C28.0427916,42.7541184 29.4121407,42.764964 30.7810705,42.7552909 C32.1497209,42.7501123 33.5180918,42.7218745 34.8856242,42.6719453 C45.8303553,42.2744659 56.6683222,40.6717486 67.2592221,38.3835064 C68.5842724,38.0982945 69.9054099,37.8007712 71.2223551,37.4915229 L73.2213895,37.01402 L75.2468355,36.5557658 C76.5996949,36.2544319 77.9574452,35.9620872 79.3185494,35.6794156 C80.6793741,35.3956693 82.0492822,35.1362524 83.4207274,34.8805485 C88.9067879,33.8591985 94.4801881,33.06082 100.119128,32.5921109 C101.529003,32.4787687 102.94293,32.3851637 104.359094,32.3143248 C105.775956,32.2496416 107.195752,32.2100696 108.616387,32.1963903 C111.457378,32.1757738 114.305356,32.2717238 117.127481,32.5366123 C119.949187,32.7978856 122.744341,33.2342531 125.443772,33.8703373 C126.117895,34.0306775 126.786709,34.2021564 127.448116,34.3836016 C128.109244,34.567001 128.762686,34.7630049 129.409839,34.9649689 C130.705403,35.3720238 131.965333,35.8181621 133.235045,36.2479831 L133.183899,36.3643542 C131.816087,36.1386469 130.47259,35.8560731 129.124482,35.6195201 C128.451896,35.4976773 127.777772,35.3855076 127.103508,35.2827179 C126.429524,35.1773878 125.754282,35.0829034 125.077363,35.0001441 C122.372902,34.6611923 119.648039,34.4971392 116.921498,34.4628435 C111.464784,34.3981602 106.010865,34.8500634 100.602921,35.5306051 C95.1924621,36.2163254 89.8264415,37.1676182 84.4932608,38.2372364 C83.1595463,38.5049584 81.8318409,38.7920269 80.5017598,39.0742099 C79.1722377,39.3580539 77.8453707,39.651278 76.5214383,39.9541752 L74.5358193,40.4150676 L72.5346887,40.8841675 C71.1809909,41.1952723 69.8222623,41.4950429 68.4583633,41.7820136 C63.0024875,42.9261836 57.4554988,43.8432783 51.8464638,44.4675397 C49.0429245,44.7834323 46.2214981,45.0094327 43.3951806,45.169382 C41.9812532,45.2438361 40.5653695,45.2956217 39.1490665,45.3281588 C37.7329032,45.3601096 36.3159015,45.3728117 34.8995986,45.3531722 C29.2359238,45.296208 23.5781183,44.8325798 18.0754283,43.9042486 C16.6997908,43.672581 15.3342148,43.4121871 13.9831721,43.1186699 C12.6305923,42.8291587 11.2922663,42.5069151 9.96931217,42.1570199 C7.32074873,41.4617242 4.74722769,40.636378 2.22205799,39.7518203 L2.27809523,39.6370125 Z" id="Fill-10" fill="#F3BC6C"></path>
                        </g>
                    </g>
                </g>
            </g>
        </g>
    </g>
</svg>