<?xml version="1.0" encoding="UTF-8"?>
<svg width="414px" height="609px" viewBox="0 0 414 609" version="1.1" xmlns="http://www.w3.org/2000/svg" xmlns:xlink="http://www.w3.org/1999/xlink">
    <title>Group</title>
    <defs>
        <linearGradient x1="26.9621794%" y1="91.4098776%" x2="36.4890032%" y2="15.1751794%" id="linearGradient-1">
            <stop stop-color="#F6BA53" offset="0%"></stop>
            <stop stop-color="#B88734" offset="100%"></stop>
        </linearGradient>
        <linearGradient x1="23.0164811%" y1="91.5745606%" x2="33.2773031%" y2="15.0027179%" id="linearGradient-2">
            <stop stop-color="#F6BA53" offset="0%"></stop>
            <stop stop-color="#B88734" offset="100%"></stop>
        </linearGradient>
    </defs>
    <g id="Approved-Landing" stroke="none" stroke-width="1" fill="none" fill-rule="evenodd" opacity="0.5">
        <g id="About" transform="translate(102.000000, -1600.000000)">
            <g id="Group-4-Copy" transform="translate(0.000000, 1238.000000)">
                <g id="Group" transform="translate(-102.000000, 362.000000)">
                    <path d="M230,419 L230,402.690335 L223.260714,402.690335 L230,419 Z M230,372.767879 L230,274.653045 L221.575893,274.653045 L221.575893,256.031774 L230,256.031774 L230,0 L179,110.015325 L212.058929,93.3203923 L203.316071,308.128525 L217.56875,308.128525 L217.56875,329.275439 L202.450893,329.275439 L201.63125,350.079894 L210.966071,372.767879 L230,372.767879 L230,372.767879 Z" id="Fill-1636" fill="#B88835"></path>
                    <path d="M203.867115,351.223266 C177.314761,338.888743 148.497278,330.595565 118.211655,327.269874 C130.92155,295.40218 137.96862,260.629769 137.96862,224.173464 C137.96862,214.322684 137.465258,204.598196 136.458533,195 C136.458533,243.832926 122.196606,289.21387 99,331.479609 L103.404419,331.479609 L103.404419,340.151663 C116.072366,343.05638 128.53058,346.887239 140.527378,351.560045 L140.527378,348.655328 L163.64009,348.655328 L163.64009,361.915993 C177.692283,369.11464 190.653858,377.576207 201.93756,387.174403 L201.93756,373.534862 L212.466218,373.534862 L203.867115,351.223266 Z M217.961255,402.96091 C222.449568,408.054689 226.476465,413.401052 230,419 L223.791867,402.96091 L217.961255,402.96091 L217.961255,402.96091 Z" id="Fill-1637" fill="#DBA64B"></path>
                    <path d="M230,415.899309 C226.262152,410.189563 221.990326,404.7374 217.229021,399.542819 L200.230713,399.542819 L200.230713,383.443912 C188.260701,373.655776 174.510762,365.026762 159.603869,357.68566 L159.603869,367.774309 L135.085369,367.774309 L135.085369,347.124777 C122.358888,342.3595 109.142926,338.452832 95.704474,335.490633 L95.704474,342.144848 L79.6406288,342.144848 L79.6406288,326.646967 L91.0321644,326.646967 C115.639661,283.544826 130.769045,237.265834 130.769045,187.466548 C141.003628,195.623327 151.905683,203.05029 163.386215,209.618644 C144.785973,186.736731 129.790085,160.978479 119.155018,133.202498 C117.464087,128.737734 115.906651,124.272971 114.43821,119.722346 L112.613785,115 C115.19468,130.197368 116.574123,145.824041 116.574123,161.708296 C116.574123,166.17306 116.485127,170.594893 116.262636,175.016726 C115.19468,197.254683 111.456832,218.848684 105.36058,239.455285 L114.482709,239.455285 L114.482709,262.036686 L97.5733978,262.036686 C89.2967352,282.986731 78.5281741,302.734723 65.6237001,320.937221 C59.5274486,329.480375 52.9862152,337.723015 46,345.579282 C97.4844015,354.6376 143.89601,377.777096 180.69601,410.704728 L182.876421,412.550736 C183.677388,413.194692 184.433857,413.881579 185.190326,414.568466 L185.234825,414.654326 C186.213785,415.555865 187.192745,416.543265 188.082709,417.573595 C190.975091,420.836307 193.377993,424.528323 195.202418,428.477921 C197.827811,434.359389 198.228295,438.781222 198.317291,443.63236 C198.36179,444.791481 198.36179,447.496097 198.406288,450.587087 L230,450.587087 L230,415.899309 Z M198.406288,462.779326 L195.691898,462.779326 C190.930593,462.779326 187.014752,466.557203 187.014752,471.193689 L187.014752,491.585638 C187.014752,496.179193 190.930593,500 195.691898,500 L230,500 L230,462.779326 L198.406288,462.779326 L198.406288,462.779326 Z" id="Fill-1638" fill="#B88835"></path>
                    <polyline id="Fill-1639" fill="#DBA64B" points="230 419 230 402.690335 231.320536 402.690335 231.320536 372.767879 230 372.767879 230 274.653045 241.383929 274.653045 241.383929 256.031774 230 256.031774 230 0 281 110.015325 247.895536 93.3203923 258.36875 350.079894 230 419"></polyline>
                    <path d="M245.749844,351.223266 C272.886123,338.888743 302.426882,330.595565 333.427505,327.269874 C320.374611,295.40218 313.204107,260.629769 313.204107,224.173464 C313.204107,214.322684 313.719353,204.598196 314.749844,195 C314.749844,246.527157 330.980087,294.13926 357,338.383575 C300.065339,349.370983 245.320473,378.039278 219,419 L245.749844,351.223266" id="Fill-1640" fill="#B88835"></path>
                    <path d="M230,415.899309 C257.283986,374.128011 314.032898,344.892395 373.051766,333.687556 C346.079342,288.567685 329.254959,240.013381 329.254959,187.466548 C319.0179,195.623327 308.113208,203.05029 296.629898,209.618644 C315.23464,186.736731 330.234156,160.978479 340.827286,133.202498 C342.518626,128.737734 344.120948,124.272971 345.589744,119.722346 L347.414611,115 C344.788582,130.197368 343.453314,145.824041 343.453314,161.708296 C343.453314,166.17306 343.542332,170.594893 343.764877,175.016726 C346.346396,229.023194 364.684083,279.037132 394.416062,320.937221 C400.469279,329.480375 407.012095,337.723015 414,345.579282 C362.503145,354.6376 316.124819,377.777096 279.271408,410.704728 L277.134978,412.550736 C276.333817,413.194692 275.532656,413.881579 274.820513,414.568466 L274.731495,414.654326 C273.752298,415.555865 272.81761,416.543265 271.927431,417.573595 C268.98984,420.836307 266.586357,424.528323 264.805999,428.477921 C262.580552,433.45785 261.957426,444.362177 261.734881,450.587087 L230,450.587087 L230,415.899309 Z M261.601355,462.779326 L264.271892,462.779326 C269.078858,462.779326 272.995646,466.557203 272.995646,471.193689 L272.995646,491.585638 C272.995646,496.222123 269.078858,500 264.271892,500 L230,500 L230,462.779326 L261.601355,462.779326 L261.601355,462.779326 Z" id="Fill-1641" fill="#DBA64B"></path>
                    <polygon id="Fill-1642" fill="#DBA64B" points="203.4225 592 249.5775 592 249.5775 529 203.4225 529"></polygon>
                    <path d="M365.126108,368 C377.757454,391.274687 385,417.999094 385,446.426527 C385,536.206559 313.134972,609 224.5,609 C135.865028,609 64,536.206559 64,446.426527 C64,417.999094 71.1994359,391.274687 83.873892,368 C94.4790492,371.886392 104.868654,376.51513 114.870266,381.798877 C103.920226,400.794166 97.6692184,422.846168 97.6692184,446.426527 C97.6692184,517.385939 154.445608,574.895814 224.5,574.895814 C294.554392,574.895814 351.330782,517.385939 351.330782,446.426527 C351.330782,422.846168 345.036664,400.794166 334.129734,381.798877 C344.131346,376.51513 354.47784,371.886392 365.126108,368" id="Fill-1643" fill="#B88835"></path>
                    <path d="M199.879594,573.463487 C141.352978,563.937104 96.5655894,510.422541 96.5655894,445.845082 C96.5655894,422.138877 102.584284,399.969185 113.127376,380.87252 C103.497465,375.560574 93.4939797,370.907134 83.2829531,367 C82.4942966,368.492613 81.7471483,370.029126 81,371.56564 C87.3922687,374.375264 93.6600127,377.492191 99.7617237,380.87252 C89.2601394,399.969185 83.2414449,422.138877 83.2414449,445.845082 C83.2414449,515.251583 134.96071,571.839173 199.879594,574.868299 C201.705957,574.9561 203.532319,575 205.317174,575 C207.558619,575 209.800063,574.912199 212,574.824398 C207.932193,574.560996 203.864385,574.121992 199.879594,573.463487" id="Clip-1645"></path>
                    <path d="M199.879594,573.463487 C141.352978,563.937104 96.5655894,510.422541 96.5655894,445.845082 C96.5655894,422.138877 102.584284,399.969185 113.127376,380.87252 C103.497465,375.560574 93.4939797,370.907134 83.2829531,367 C82.4942966,368.492613 81.7471483,370.029126 81,371.56564 C87.3922687,374.375264 93.6600127,377.492191 99.7617237,380.87252 C89.2601394,399.969185 83.2414449,422.138877 83.2414449,445.845082 C83.2414449,515.251583 134.96071,571.839173 199.879594,574.868299 C201.705957,574.9561 203.532319,575 205.317174,575 C207.558619,575 209.800063,574.912199 212,574.824398 C207.932193,574.560996 203.864385,574.121992 199.879594,573.463487" id="Fill-1644" fill="url(#linearGradient-1)"></path>
                    <path d="M372.280639,446.426527 C372.280639,533.848523 304.709578,605.157275 220,608.868998 C222.30793,608.956333 224.57312,609 226.88105,609 C314.753347,609 386,536.206559 386,446.426527 C386,417.999094 378.819773,391.274687 366.297116,368 C362.450566,369.397355 358.646756,370.925711 354.928424,372.541402 C365.99794,394.680739 372.280639,419.833122 372.280639,446.426527" id="Clip-1648"></path>
                    <path d="M372.280639,446.426527 C372.280639,533.848523 304.709578,605.157275 220,608.868998 C222.30793,608.956333 224.57312,609 226.88105,609 C314.753347,609 386,536.206559 386,446.426527 C386,417.999094 378.819773,391.274687 366.297116,368 C362.450566,369.397355 358.646756,370.925711 354.928424,372.541402 C365.99794,394.680739 372.280639,419.833122 372.280639,446.426527" id="Fill-1647" fill="url(#linearGradient-2)"></path>
                    <polygon id="Fill-1650" fill="#B88835" points="209.9485 592 233.0515 592 233.0515 529 209.9485 529"></polygon>
                    <path d="M230,419 L230,402.690335 L223.260714,402.690335 L230,419 Z M230,372.767879 L230,274.653045 L221.575893,274.653045 L221.575893,256.031774 L230,256.031774 L230,0 L179,110.015325 L212.058929,93.3203923 L203.316071,308.128525 L217.56875,308.128525 L217.56875,329.275439 L202.450893,329.275439 L201.63125,350.079894 L210.966071,372.767879 L230,372.767879 L230,372.767879 Z" id="Fill-1651" fill="#B88835"></path>
                    <path d="M203.867115,351.223266 C177.314761,338.888743 148.497278,330.595565 118.211655,327.269874 C130.92155,295.40218 137.96862,260.629769 137.96862,224.173464 C137.96862,214.322684 137.465258,204.598196 136.458533,195 C136.458533,243.832926 122.196606,289.21387 99,331.479609 L103.404419,331.479609 L103.404419,340.151663 C116.072366,343.05638 128.53058,346.887239 140.527378,351.560045 L140.527378,348.655328 L163.64009,348.655328 L163.64009,361.915993 C177.692283,369.11464 190.653858,377.576207 201.93756,387.174403 L201.93756,373.534862 L212.466218,373.534862 L203.867115,351.223266 Z M217.961255,402.96091 C222.449568,408.054689 226.476465,413.401052 230,419 L223.791867,402.96091 L217.961255,402.96091 L217.961255,402.96091 Z" id="Fill-1652" fill="#DBA64B"></path>
                    <path d="M230,415.899309 C226.262152,410.189563 221.990326,404.7374 217.229021,399.542819 L200.230713,399.542819 L200.230713,383.443912 C188.260701,373.655776 174.510762,365.026762 159.603869,357.68566 L159.603869,367.774309 L135.085369,367.774309 L135.085369,347.124777 C122.358888,342.3595 109.142926,338.452832 95.704474,335.490633 L95.704474,342.144848 L79.6406288,342.144848 L79.6406288,326.646967 L91.0321644,326.646967 C115.639661,283.544826 130.769045,237.265834 130.769045,187.466548 C141.003628,195.623327 151.905683,203.05029 163.386215,209.618644 C144.785973,186.736731 129.790085,160.978479 119.155018,133.202498 C117.464087,128.737734 115.906651,124.272971 114.43821,119.722346 L112.613785,115 C115.19468,130.197368 116.574123,145.824041 116.574123,161.708296 C116.574123,166.17306 116.485127,170.594893 116.262636,175.016726 C115.19468,197.254683 111.456832,218.848684 105.36058,239.455285 L114.482709,239.455285 L114.482709,262.036686 L97.5733978,262.036686 C89.2967352,282.986731 78.5281741,302.734723 65.6237001,320.937221 C59.5274486,329.480375 52.9862152,337.723015 46,345.579282 C97.4844015,354.6376 143.89601,377.777096 180.69601,410.704728 L182.876421,412.550736 C183.677388,413.194692 184.433857,413.881579 185.190326,414.568466 L185.234825,414.654326 C186.213785,415.555865 187.192745,416.543265 188.082709,417.573595 C190.975091,420.836307 193.377993,424.528323 195.202418,428.477921 C197.827811,434.359389 198.228295,438.781222 198.317291,443.63236 C198.36179,444.791481 198.36179,447.496097 198.406288,450.587087 L230,450.587087 L230,415.899309 Z M198.406288,462.779326 L195.691898,462.779326 C190.930593,462.779326 187.014752,466.557203 187.014752,471.193689 L187.014752,491.585638 C187.014752,496.179193 190.930593,500 195.691898,500 L230,500 L230,462.779326 L198.406288,462.779326 L198.406288,462.779326 Z" id="Fill-1653" fill="#B88835"></path>
                    <polyline id="Fill-1654" fill="#DBA64B" points="230 419 230 402.690335 231.320536 402.690335 231.320536 372.767879 230 372.767879 230 274.653045 241.383929 274.653045 241.383929 256.031774 230 256.031774 230 0 281 110.015325 247.895536 93.3203923 258.36875 350.079894 230 419"></polyline>
                    <path d="M245.749844,351.223266 C272.886123,338.888743 302.426882,330.595565 333.427505,327.269874 C320.374611,295.40218 313.204107,260.629769 313.204107,224.173464 C313.204107,214.322684 313.719353,204.598196 314.749844,195 C314.749844,246.527157 330.980087,294.13926 357,338.383575 C300.065339,349.370983 245.320473,378.039278 219,419 L245.749844,351.223266" id="Fill-1655" fill="#B88835"></path>
                    <path d="M230,415.899309 C257.283986,374.128011 314.032898,344.892395 373.051766,333.687556 C346.079342,288.567685 329.254959,240.013381 329.254959,187.466548 C319.0179,195.623327 308.113208,203.05029 296.629898,209.618644 C315.23464,186.736731 330.234156,160.978479 340.827286,133.202498 C342.518626,128.737734 344.120948,124.272971 345.589744,119.722346 L347.414611,115 C344.788582,130.197368 343.453314,145.824041 343.453314,161.708296 C343.453314,166.17306 343.542332,170.594893 343.764877,175.016726 C346.346396,229.023194 364.684083,279.037132 394.416062,320.937221 C400.469279,329.480375 407.012095,337.723015 414,345.579282 C362.503145,354.6376 316.124819,377.777096 279.271408,410.704728 L277.134978,412.550736 C276.333817,413.194692 275.532656,413.881579 274.820513,414.568466 L274.731495,414.654326 C273.752298,415.555865 272.81761,416.543265 271.927431,417.573595 C268.98984,420.836307 266.586357,424.528323 264.805999,428.477921 C262.580552,433.45785 261.957426,444.362177 261.734881,450.587087 L230,450.587087 L230,415.899309 Z M261.601355,462.779326 L264.271892,462.779326 C269.078858,462.779326 272.995646,466.557203 272.995646,471.193689 L272.995646,491.585638 C272.995646,496.222123 269.078858,500 264.271892,500 L230,500 L230,462.779326 L261.601355,462.779326 L261.601355,462.779326 Z" id="Fill-1656" fill="#DBA64B"></path>
                    <polygon id="Fill-1657" fill="#DBA64B" points="203.4225 592 249.5775 592 249.5775 529 203.4225 529"></polygon>
                    <path d="M365.126108,368 C377.757454,391.274687 385,417.999094 385,446.426527 C385,536.206559 313.134972,609 224.5,609 C135.865028,609 64,536.206559 64,446.426527 C64,417.999094 71.1994359,391.274687 83.873892,368 C94.4790492,371.886392 104.868654,376.51513 114.870266,381.798877 C103.920226,400.794166 97.6692184,422.846168 97.6692184,446.426527 C97.6692184,517.385939 154.445608,574.895814 224.5,574.895814 C294.554392,574.895814 351.330782,517.385939 351.330782,446.426527 C351.330782,422.846168 345.036664,400.794166 334.129734,381.798877 C344.131346,376.51513 354.47784,371.886392 365.126108,368" id="Fill-1658" fill="#B88835"></path>
                    <path d="M199.879594,573.463487 C141.352978,563.937104 96.5655894,510.422541 96.5655894,445.845082 C96.5655894,422.138877 102.584284,399.969185 113.127376,380.87252 C103.497465,375.560574 93.4939797,370.907134 83.2829531,367 C82.4942966,368.492613 81.7471483,370.029126 81,371.56564 C87.3922687,374.375264 93.6600127,377.492191 99.7617237,380.87252 C89.2601394,399.969185 83.2414449,422.138877 83.2414449,445.845082 C83.2414449,515.251583 134.96071,571.839173 199.879594,574.868299 C201.705957,574.9561 203.532319,575 205.317174,575 C207.558619,575 209.800063,574.912199 212,574.824398 C207.932193,574.560996 203.864385,574.121992 199.879594,573.463487" id="Clip-1660"></path>
                    <path d="M199.879594,573.463487 C141.352978,563.937104 96.5655894,510.422541 96.5655894,445.845082 C96.5655894,422.138877 102.584284,399.969185 113.127376,380.87252 C103.497465,375.560574 93.4939797,370.907134 83.2829531,367 C82.4942966,368.492613 81.7471483,370.029126 81,371.56564 C87.3922687,374.375264 93.6600127,377.492191 99.7617237,380.87252 C89.2601394,399.969185 83.2414449,422.138877 83.2414449,445.845082 C83.2414449,515.251583 134.96071,571.839173 199.879594,574.868299 C201.705957,574.9561 203.532319,575 205.317174,575 C207.558619,575 209.800063,574.912199 212,574.824398 C207.932193,574.560996 203.864385,574.121992 199.879594,573.463487" id="Fill-1659" fill="url(#linearGradient-1)"></path>
                    <path d="M372.280639,446.426527 C372.280639,533.848523 304.709578,605.157275 220,608.868998 C222.30793,608.956333 224.57312,609 226.88105,609 C314.753347,609 386,536.206559 386,446.426527 C386,417.999094 378.819773,391.274687 366.297116,368 C362.450566,369.397355 358.646756,370.925711 354.928424,372.541402 C365.99794,394.680739 372.280639,419.833122 372.280639,446.426527" id="Clip-1663"></path>
                    <path d="M372.280639,446.426527 C372.280639,533.848523 304.709578,605.157275 220,608.868998 C222.30793,608.956333 224.57312,609 226.88105,609 C314.753347,609 386,536.206559 386,446.426527 C386,417.999094 378.819773,391.274687 366.297116,368 C362.450566,369.397355 358.646756,370.925711 354.928424,372.541402 C365.99794,394.680739 372.280639,419.833122 372.280639,446.426527" id="Fill-1662" fill="url(#linearGradient-2)"></path>
                    <polygon id="Fill-1665" fill="#B88835" points="209.9485 592 233.0515 592 233.0515 529 209.9485 529"></polygon>
                    <path d="M150.28365,310 L176.689622,310 L176.689622,284.681292 L150.28365,284.681292 L150.28365,310 Z M166.720925,245.003989 L184,245.003989 L184,228.436378 L166.720925,228.436378 L166.720925,245.003989 Z M8.15217915,108.045074 L19.6715627,108.045074 L19.6715627,97 L8.15217915,97 L8.15217915,108.045074 Z M65.0845172,139.311129 L82.142066,139.311129 L82.142066,122.955923 L65.0845172,122.955923 L65.0845172,139.311129 Z M3.89886829,164.077583 L17.9436552,164.077583 L17.9436552,150.611089 L3.89886829,150.611089 L3.89886829,164.077583 Z M-2.48689958e-14,236.550259 L22.329882,236.550259 L22.329882,215.139809 L-2.48689958e-14,215.139809 L-2.48689958e-14,236.550259 Z M20.6019745,297.340646 L48.381411,297.340646 L48.381411,270.705026 L20.6019745,270.705026 L20.6019745,297.340646 Z M55.3373465,211.911249 L81.4331808,211.911249 L81.4331808,186.889908 L55.3373465,186.889908 L55.3373465,211.911249 Z" id="Fill-1666" fill="#B88835"></path>
                </g>
            </g>
        </g>
    </g>
</svg>