<?xml version="1.0" encoding="UTF-8"?>
<svg width="186px" height="126px" viewBox="0 0 186 126" version="1.1" xmlns="http://www.w3.org/2000/svg" xmlns:xlink="http://www.w3.org/1999/xlink">
    <title>ship-lg</title>
    <g id="Onboarding" stroke="none" stroke-width="1" fill="none" fill-rule="evenodd">
        <g id="Modal:-Get-Started" transform="translate(-628.000000, -278.000000)" fill="#F3BC6C">
            <g id="Group-2" transform="translate(470.000000, 198.000000)">
                <g id="Group-6" transform="translate(80.000000, 80.000000)">
                    <g id="ship-lg" transform="translate(78.000000, 0.000000)">
                        <path d="M10,83 C15.5228475,83 20,87.4771525 20,93 C20,98.5228475 15.5228475,103 10,103 C4.4771525,103 0,98.5228475 0,93 C0,87.4771525 4.4771525,83 10,83 Z M10,88 C7.23857625,88 5,90.2385763 5,93 C5,95.7614237 7.23857625,98 10,98 C12.7614237,98 15,95.7614237 15,93 C15,90.2385763 12.7614237,88 10,88 Z" id="Oval" fill-rule="nonzero"></path>
                        <path d="M176,31 C181.522847,31 186,35.4771525 186,41 C186,46.5228475 181.522847,51 176,51 C170.477153,51 166,46.5228475 166,41 C166,35.4771525 170.477153,31 176,31 Z M176,36 C173.238576,36 171,38.2385763 171,41 C171,43.7614237 173.238576,46 176,46 C178.761424,46 181,43.7614237 181,41 C181,38.2385763 178.761424,36 176,36 Z" id="Oval" fill-rule="nonzero"></path>
                        <path d="M155.5,103 C157.432997,103 159,104.567003 159,106.5 L158.999,111 L163.5,111 C165.432997,111 167,112.567003 167,114.5 C167,116.432997 165.432997,118 163.5,118 L158.999,118 L159,122.5 C159,124.432997 157.432997,126 155.5,126 C153.567003,126 152,124.432997 152,122.5 L151.999,117.999 L147.5,118 C145.567003,118 144,116.432997 144,114.5 C144,112.567003 145.567003,111 147.5,111 L151.999,110.999 L152,106.5 C152,104.567003 153.567003,103 155.5,103 Z" id="Combined-Shape"></path>
                        <path d="M36.5,0 C38.4329966,-7.99174929e-16 40,1.56700338 40,3.5 L39.999,8 L44.5,8 C46.4329966,8 48,9.56700338 48,11.5 C48,13.4329966 46.4329966,15 44.5,15 L39.999,15 L40,19.5 C40,21.4329966 38.4329966,23 36.5,23 C34.5670034,23 33,21.4329966 33,19.5 L32.999,14.999 L28.5,15 C26.5670034,15 25,13.4329966 25,11.5 C25,9.56700338 26.5670034,8 28.5,8 L32.999,7.999 L33,3.5 C33,1.56700338 34.5670034,-8.90034905e-17 36.5,0 Z" id="Combined-Shape-Copy"></path>
                        <circle id="Oval" cx="44" cy="107" r="4"></circle>
                        <circle id="Oval" cx="142" cy="27" r="4"></circle>
                        <g id="boat" transform="translate(53.000000, 26.000000)" fill-rule="nonzero">
                            <path d="M77.6560983,69.9140822 C75.0693846,69.9140822 73.9025119,69.3329896 72.4250148,68.5972098 C71.8153285,68.2936166 71.1759547,67.9758047 70.4375187,67.692524 L78.3537532,46.8672522 C78.9698458,45.2463179 78.8676585,43.4328839 78.0731288,41.8916369 C77.2785991,40.3503899 75.8606331,39.2150797 74.1831364,38.7767993 L68.7322095,37.3525833 L68.7322095,21.0046465 C68.7322095,17.5737157 65.940965,14.7824711 62.5100342,14.7824711 L51.7520864,14.7824711 L51.7520864,8.73342044 C51.7520864,3.91780485 47.8342816,0 43.018666,0 L36.981334,0 C32.1657184,0 28.2479136,3.91780485 28.2479136,8.73342044 L28.2479136,14.7823149 L17.4899658,14.7823149 C14.059035,14.7823149 11.2677905,17.5735594 11.2677905,21.0044902 L11.2677905,37.3525833 L5.81686364,38.7767993 C4.13921067,39.2150797 2.72124469,40.3503899 1.92687124,41.8916369 C1.13249779,43.4328839 1.02999799,45.2463179 1.64624678,46.8672522 L9.56248132,67.6928365 C8.82435776,67.9761172 8.18498401,68.2937729 7.57545395,68.597366 C6.09780059,69.3329896 4.93077162,69.9142384 2.34374542,69.9142384 C1.04937295,69.9142384 0,70.9636114 0,72.2579839 C0,73.5523563 1.04937295,74.6017293 2.34374542,74.6017293 C6.03311322,74.6017293 7.96248445,73.6411062 9.66466862,72.7936078 C11.142322,72.0579843 12.309351,71.4767354 14.8963772,71.4767354 C17.4834034,71.4767354 18.6504323,72.057828 20.1280857,72.7936078 C21.8302699,73.6411062 23.7596411,74.6017293 27.4490089,74.6017293 C31.1382204,74.6017293 33.0674354,73.6411062 34.7697758,72.7936078 C36.247273,72.0579843 37.4143019,71.4767354 40.0010156,71.4767354 C42.5877293,71.4767354 43.754602,72.057828 45.2320992,72.7936078 C46.9342833,73.6411062 48.8634983,74.6017293 52.5527099,74.6017293 C56.2419214,74.6017293 58.1711364,73.6411062 59.8733206,72.7936078 C61.3508177,72.0579843 62.5178466,71.4767354 65.1045603,71.4767354 C67.691274,71.4767354 68.8581468,72.057828 70.3356439,72.7936078 C72.0378281,73.6411062 73.967043,74.6017293 77.6562546,74.6017293 C78.950627,74.6017293 80,73.5523563 80,72.2579839 C80,70.9636114 78.9504708,69.9140822 77.6560983,69.9140822 L77.6560983,69.9140822 Z M32.9354044,8.73342044 C32.9354044,6.5024873 34.7504009,4.68749084 36.981334,4.68749084 L43.018666,4.68749084 C45.2495991,4.68749084 47.0645956,6.5024873 47.0645956,8.73342044 L47.0645956,14.7823149 L32.9354044,14.7823149 L32.9354044,8.73342044 Z M15.9549688,21.0046465 C15.9549688,20.1583981 16.6435612,19.469962 17.4898096,19.469962 L62.5098779,19.469962 C63.3561263,19.469962 64.0445624,20.1583981 64.0445624,21.0046465 L64.0445624,36.1278982 L40.5922645,30.0000977 C40.2038277,29.8986916 39.7957035,29.8986916 39.4072668,30.0000977 L15.9549688,36.1278982 L15.9549688,21.0046465 L15.9549688,21.0046465 Z M57.7837934,68.597366 C56.3062963,69.3329896 55.1392673,69.9140822 52.5527099,69.9140822 C49.9661524,69.9140822 48.7991234,69.3329896 47.3216263,68.5972098 C45.6194421,67.7497114 43.6902272,66.7890883 40.0010156,66.7890883 C36.3118041,66.7890883 34.3825891,67.7497114 32.6802487,68.5972098 C31.2027516,69.3328333 30.0357226,69.9140822 27.4490089,69.9140822 C24.8621389,69.9140822 23.6949537,69.3329896 22.2174566,68.5972098 C20.5152724,67.7497114 18.5859012,66.7890883 14.8965334,66.7890883 C14.6704401,66.7890883 14.4510655,66.7928383 14.2377847,66.7997133 L6.02764448,45.2016305 C5.83061361,44.6833502 5.98420706,44.2511636 6.09326935,44.0396015 C6.20233164,43.8280394 6.46529987,43.4522589 7.00170507,43.3121029 L39.9999219,34.6900885 L72.9981387,43.3122592 C73.5345439,43.4522589 73.7975121,43.8280394 73.9065744,44.0396015 C74.0156367,44.2511636 74.1692301,44.6833502 73.9721993,45.2017867 L65.7622153,66.7998695 C65.549247,66.7929945 65.3301849,66.7892446 65.1044041,66.7892446 C61.4151925,66.7890883 59.4859776,67.7498677 57.7837934,68.597366 L57.7837934,68.597366 Z" id="Shape"></path>
                            <path d="M61.6681608,46.6844401 L40.5924207,41.1775758 C40.203984,41.0761698 39.7958598,41.0761698 39.407423,41.1775758 L18.3316829,46.6844401 C17.0793416,47.0116269 16.3293431,48.2922494 16.65653,49.5445907 C16.9837168,50.796932 18.2643393,51.5467743 19.5166806,51.2197437 L39.9999219,45.8677229 L60.4831631,51.2197437 C60.6817565,51.2717749 60.8811311,51.2964623 61.0772245,51.2964623 C62.1176912,51.2964623 63.0680018,50.5983387 63.3431575,49.5445907 C63.6705006,48.2922494 62.9205021,47.0116269 61.6681608,46.6844401 L61.6681608,46.6844401 Z" id="Path"></path>
                        </g>
                    </g>
                </g>
            </g>
        </g>
    </g>
</svg>