<?xml version="1.0" encoding="UTF-8"?>
<svg width="186px" height="126px" viewBox="0 0 186 126" version="1.1" xmlns="http://www.w3.org/2000/svg" xmlns:xlink="http://www.w3.org/1999/xlink">
    <title>success</title>
    <g id="Login-/-Signup" stroke="none" stroke-width="1" fill="none" fill-rule="evenodd">
        <g id="Login---New-Password---Success" transform="translate(-627.000000, -360.000000)" fill="#F3BC6C">
            <g id="Group-2" transform="translate(469.000000, 280.000000)">
                <g id="Group-6" transform="translate(80.000000, 80.000000)">
                    <g id="success" transform="translate(78.000000, 0.000000)">
                        <g id="tick" transform="translate(53.000000, 23.000000)">
                            <g id="Group-3">
                                <path d="M68.2837195,11.71625 C52.661856,-3.90546875 27.3345308,-3.90546875 11.7161047,11.7165625 C-3.90544636,27.338125 -3.90544636,52.6654688 11.7165735,68.2839063 C27.3345308,83.9054688 52.661856,83.9054688 68.2837195,68.28375 C83.9054268,52.6654688 83.9054268,27.338125 68.2837195,11.71625 Z M63.5696605,16.4303125 C76.5877759,29.4485938 76.5877759,50.5545313 63.569973,63.569375 C50.5513888,76.5878125 29.445623,76.5878125 16.4306325,63.57 C3.41220453,50.5545313 3.41220453,29.4485938 16.4304762,16.4303125 C29.445623,3.4121875 50.5513888,3.4121875 63.5696605,16.4303125 L63.5696605,16.4303125 Z" id="Fill-1"></path>
                            </g>
                            <path d="M56.9785571,26.6674122 C58.4017677,25.2441959 60.7093814,25.2441959 62.132592,26.6674122 C63.5558027,28.0906284 63.5558027,30.398251 62.132592,31.8214672 L62.132592,31.8214672 L36.6215711,57.3325878 C35.9081011,58.045975 34.9725093,58.4017768 34.0374944,58.3999933 C33.1039567,58.4095701 32.1670058,58.0581707 31.4544443,57.3456037 L31.4544443,57.3456037 L17.0543881,42.9456037 C15.6485373,41.539742 15.6485373,39.260258 17.0543881,37.8543963 C18.4604076,36.4485346 20.7397049,36.4485346 22.1455557,37.8543963 L22.1455557,37.8543963 L33.968,49.677 Z" id="Combined-Shape"></path>
                        </g>
                        <path d="M10,83 C15.5228475,83 20,87.4771525 20,93 C20,98.5228475 15.5228475,103 10,103 C4.4771525,103 0,98.5228475 0,93 C0,87.4771525 4.4771525,83 10,83 Z M10,88 C7.23857625,88 5,90.2385763 5,93 C5,95.7614237 7.23857625,98 10,98 C12.7614237,98 15,95.7614237 15,93 C15,90.2385763 12.7614237,88 10,88 Z" id="Oval" fill-rule="nonzero"></path>
                        <path d="M176,31 C181.522847,31 186,35.4771525 186,41 C186,46.5228475 181.522847,51 176,51 C170.477153,51 166,46.5228475 166,41 C166,35.4771525 170.477153,31 176,31 Z M176,36 C173.238576,36 171,38.2385763 171,41 C171,43.7614237 173.238576,46 176,46 C178.761424,46 181,43.7614237 181,41 C181,38.2385763 178.761424,36 176,36 Z" id="Oval" fill-rule="nonzero"></path>
                        <path d="M139.5,103 C141.432997,103 143,104.567003 143,106.5 L142.999,111 L147.5,111 C149.432997,111 151,112.567003 151,114.5 C151,116.432997 149.432997,118 147.5,118 L142.999,118 L143,122.5 C143,124.432997 141.432997,126 139.5,126 C137.567003,126 136,124.432997 136,122.5 L135.999,117.999 L131.5,118 C129.567003,118 128,116.432997 128,114.5 C128,112.567003 129.567003,111 131.5,111 L135.999,110.999 L136,106.5 C136,104.567003 137.567003,103 139.5,103 Z" id="Combined-Shape"></path>
                        <path d="M36.5,0 C38.4329966,-7.99174929e-16 40,1.56700338 40,3.5 L39.999,8 L44.5,8 C46.4329966,8 48,9.56700338 48,11.5 C48,13.4329966 46.4329966,15 44.5,15 L39.999,15 L40,19.5 C40,21.4329966 38.4329966,23 36.5,23 C34.5670034,23 33,21.4329966 33,19.5 L32.999,14.999 L28.5,15 C26.5670034,15 25,13.4329966 25,11.5 C25,9.56700338 26.5670034,8 28.5,8 L32.999,7.999 L33,3.5 C33,1.56700338 34.5670034,-8.90034905e-17 36.5,0 Z" id="Combined-Shape-Copy"></path>
                        <circle id="Oval" cx="44" cy="107" r="4"></circle>
                        <circle id="Oval" cx="142" cy="27" r="4"></circle>
                    </g>
                </g>
            </g>
        </g>
    </g>
</svg>