<svg width="54" height="54" viewBox="0 0 54 54" fill="none" xmlns="http://www.w3.org/2000/svg">
<path fill-rule="evenodd" clip-rule="evenodd" d="M51.7519 24.7632H46.4069C45.1617 24.7632 44.1587 25.7662 44.1587 27.0113C44.1587 28.2565 45.1617 29.2595 46.4069 29.2595H51.7519C52.9971 29.2595 54.0001 28.2565 54.0001 27.0113C54.0001 25.7662 52.9971 24.7632 51.7519 24.7632Z" fill="#FBC25E"/>
<mask id="mask0" mask-type="alpha" maskUnits="userSpaceOnUse" x="0" y="11" width="43" height="32">
<path fill-rule="evenodd" clip-rule="evenodd" d="M0.00830078 11.5498H42.4727V42.4946H0.00830078V11.5498Z" fill="white"/>
</mask>
<g mask="url(#mask0)">
<path fill-rule="evenodd" clip-rule="evenodd" d="M27.0001 11.5498C18.47 11.5498 11.5274 18.4924 11.5274 27.0219C11.5274 35.552 18.47 42.4946 27.0001 42.4946C35.5301 42.4946 42.4727 35.552 42.4727 27.0219C42.4727 18.4811 35.5301 11.5498 27.0001 11.5498ZM27.0001 37.9767C20.9496 37.9767 16.0345 33.0616 16.0345 27.0112C16.0345 20.9607 20.9496 16.0456 27.0001 16.0456C33.0505 16.0456 37.9656 20.9607 37.9656 27.0112C37.9656 33.0616 33.0505 37.9767 27.0001 37.9767Z" fill="#FBC25E"/>
<path fill-rule="evenodd" clip-rule="evenodd" d="M7.59326 24.7632H2.24822C1.00306 24.7632 6.10352e-05 25.7662 6.10352e-05 27.0113C6.10352e-05 28.2565 1.00306 29.2595 2.24822 29.2595H7.59326C8.83843 29.2595 9.84142 28.2565 9.84142 27.0113C9.84142 25.7662 8.83843 24.7632 7.59326 24.7632Z" fill="#FBC25E"/>
</g>
<path fill-rule="evenodd" clip-rule="evenodd" d="M27.0001 9.85259C28.2452 9.85259 29.2482 8.8496 29.2482 7.60443V2.25939C29.2482 1.01423 28.2452 0.0112305 27.0001 0.0112305C25.7549 0.0112305 24.7519 1.01423 24.7519 2.25939V7.60443C24.7519 8.8496 25.7549 9.85259 27.0001 9.85259Z" fill="#FBC25E"/>
<path fill-rule="evenodd" clip-rule="evenodd" d="M27.0001 44.1699C25.7549 44.1699 24.7519 45.1729 24.7519 46.4181V51.7524C24.7519 52.9975 25.7549 54.0005 27.0001 54.0005C28.2452 54.0005 29.2482 52.9975 29.2482 51.7524V46.4181C29.2482 45.1842 28.2452 44.1699 27.0001 44.1699Z" fill="#FBC25E"/>
<path fill-rule="evenodd" clip-rule="evenodd" d="M42.3183 39.1444C41.4369 38.2631 40.0152 38.2631 39.1332 39.1444C38.2519 40.0263 38.2519 41.4481 39.1332 42.3295L40.93 44.1256C41.8115 45.0077 43.2331 45.0077 44.1145 44.1256C44.9965 43.2443 44.9965 41.8227 44.1145 40.9412L42.3183 39.1444Z" fill="#FBC25E"/>
<path fill-rule="evenodd" clip-rule="evenodd" d="M11.6818 14.8781C12.5631 15.7595 13.9849 15.7595 14.8668 14.8781C15.7482 13.9962 15.7482 12.5744 14.8668 11.6931L13.0701 9.89689C12.1886 9.01484 10.767 9.01484 9.88559 9.89689C9.00355 10.7782 9.00355 12.1999 9.88559 13.0814L11.6818 14.8781Z" fill="#FBC25E"/>
<path fill-rule="evenodd" clip-rule="evenodd" d="M42.3183 14.8781L44.1145 13.0814C44.9965 12.1999 44.9965 10.7782 44.1145 9.89689C43.2331 9.01484 41.8115 9.01484 40.93 9.89689L39.1332 11.6931C38.2519 12.5744 38.2519 13.9962 39.1332 14.8781C40.0152 15.7595 41.4369 15.7595 42.3183 14.8781Z" fill="#FBC25E"/>
<path fill-rule="evenodd" clip-rule="evenodd" d="M11.6818 39.1444L9.88559 40.9412C9.00355 41.8227 9.00355 43.2443 9.88559 44.1256C10.767 45.0077 12.1886 45.0077 13.0701 44.1256L14.8668 42.3295C15.7482 41.4481 15.7482 40.0263 14.8668 39.1444C13.9849 38.2631 12.5631 38.2631 11.6818 39.1444Z" fill="#FBC25E"/>
</svg>
