<?xml version="1.0" encoding="UTF-8"?>
<svg width="40px" height="60px" viewBox="0 0 40 60" version="1.1" xmlns="http://www.w3.org/2000/svg" xmlns:xlink="http://www.w3.org/1999/xlink">
    <title>Group</title>
    <defs>
        <linearGradient x1="26.4800616%" y1="91.4098776%" x2="36.2062554%" y2="15.1751794%" id="linearGradient-1">
            <stop stop-color="#F6BA53" offset="0%"></stop>
            <stop stop-color="#B88734" offset="100%"></stop>
        </linearGradient>
        <linearGradient x1="20.5163337%" y1="91.5745606%" x2="31.7278682%" y2="15.0027179%" id="linearGradient-2">
            <stop stop-color="#F6BA53" offset="0%"></stop>
            <stop stop-color="#B88734" offset="100%"></stop>
        </linearGradient>
    </defs>
    <g id="Approved-Landing" stroke="none" stroke-width="1" fill="none" fill-rule="evenodd">
        <g id="Landing" transform="translate(-270.000000, -2216.000000)">
            <g id="Group-13" transform="translate(230.000000, 2056.000000)">
                <g id="testimonial-/-1" transform="translate(0.000000, 120.000000)">
                    <g id="Group" transform="translate(40.000000, 40.000000)">
                        <path d="M22.2222222,41.7777778 L22.2222222,40.1515688 L21.6349206,40.1515688 L22.2222222,41.7777778 Z M22.2222222,37.1680516 L22.2222222,27.3851882 L21.4880952,27.3851882 L21.4880952,25.5284929 L22.2222222,25.5284929 L22.2222222,0 L17.7777778,10.969441 L20.6587302,9.30481769 L19.8968254,30.7229714 L21.1388889,30.7229714 L21.1388889,32.8314943 L19.8214286,32.8314943 L19.75,34.9058711 L20.5634921,37.1680516 L22.2222222,37.1680516 L22.2222222,37.1680516 Z" id="Fill-1636" fill="#B88835"></path>
                        <path d="M19.739709,35.0538955 C17.217348,33.8302324 14.4798093,33.0074965 11.6028036,32.6775669 C12.8101896,29.5160893 13.4796314,26.0664453 13.4796314,22.4497484 C13.4796314,21.4724885 13.4318141,20.5077575 13.3361796,19.5555556 C13.3361796,24.4000919 11.981357,28.9021696 9.77777778,33.0951993 L10.1961789,33.0951993 L10.1961789,33.9555221 C11.3995802,34.2436885 12.5830576,34.6237341 13.7227025,35.0873061 L13.7227025,34.7991397 L15.9183122,34.7991397 L15.9183122,36.1146819 C17.2532109,36.8288333 18.4845056,37.6682746 19.5564094,38.6204765 L19.5564094,37.2673474 L20.5565873,37.2673474 L19.739709,35.0538955 Z M21.0785925,40.1865982 C21.5049632,40.6919334 21.8875013,41.2223266 22.2222222,41.7777778 L21.6324759,40.1865982 L21.0785925,40.1865982 L21.0785925,40.1865982 Z" id="Fill-1637" fill="#DBA64B"></path>
                        <path d="M22.2222222,40.7336703 C21.8610775,40.179998 21.4483407,39.6513034 20.9883112,39.1475865 L19.3459626,39.1475865 L19.3459626,37.5864803 C18.1894397,36.6373278 16.8609432,35.8005749 15.4206637,35.0887105 L15.4206637,36.0670037 L13.0517265,36.0670037 L13.0517265,34.0646248 C11.8221147,33.6025374 10.5452103,33.223709 9.24680908,32.9364655 L9.24680908,33.5817227 L7.69474674,33.5817227 L7.69474674,32.0788978 L8.79537821,32.0788978 C11.1729141,27.8992963 12.6346903,23.4116364 12.6346903,18.5826147 C13.6235389,19.3735752 14.6768776,20.0937655 15.7861078,20.7306968 C13.9889829,18.5118446 12.5401048,16.0140747 11.5125621,13.3206462 C11.3491872,12.8876995 11.1987102,12.4547527 11.0568319,12.01348 L10.8805589,11.5555556 C11.1299207,13.0292398 11.2632003,14.5445535 11.2632003,16.0848449 C11.2632003,16.5177917 11.2546016,16.9465755 11.2331049,17.3753593 C11.1299207,19.5317673 10.768776,21.625731 10.1797662,23.6239469 L11.0611313,23.6239469 L11.0611313,25.8136584 L9.42738143,25.8136584 C8.62770388,27.8451779 7.5872632,29.7601348 6.34045412,31.5252255 C5.75144431,32.3536525 5.11944109,33.1529388 4.44444444,33.9147586 C9.41878275,34.793141 13.9029961,37.036971 17.4585517,40.2299534 L17.6692194,40.4089603 C17.7466076,40.4714045 17.8196964,40.5380117 17.8927852,40.6046189 L17.8970845,40.6129448 C17.99167,40.7003667 18.0862555,40.7961146 18.1722424,40.8960254 C18.4516996,41.2124096 18.683864,41.5704232 18.860137,41.9534146 C19.1137982,42.5237387 19.1524923,42.9525225 19.161091,43.4229359 C19.1653903,43.5353355 19.1653903,43.7976013 19.1696896,44.0973337 L22.2222222,44.0973337 L22.2222222,40.7336703 Z M19.1696896,45.2796115 L18.9074298,45.2796115 C18.4474002,45.2796115 18.0690582,45.645951 18.0690582,46.0955496 L18.0690582,48.0729507 C18.0690582,48.5183864 18.4474002,48.8888889 18.9074298,48.8888889 L22.2222222,48.8888889 L22.2222222,45.2796115 L19.1696896,45.2796115 L19.1696896,45.2796115 Z" id="Fill-1638" fill="#B88835"></path>
                        <polyline id="Fill-1639" fill="#DBA64B" points="23.1111111 41.7777778 23.1111111 40.1515688 23.2261905 40.1515688 23.2261905 37.1680516 23.1111111 37.1680516 23.1111111 27.3851882 24.1031746 27.3851882 24.1031746 25.5284929 23.1111111 25.5284929 23.1111111 0 27.5555556 10.969441 24.6706349 9.30481769 25.5833333 34.9058711 23.1111111 41.7777778"></polyline>
                        <path d="M24.0901611,35.0538955 C26.8868146,33.8302324 29.9312729,33.0074965 33.1261841,32.6775669 C31.7809583,29.5160893 31.0419692,26.0664453 31.0419692,22.4497484 C31.0419692,21.4724885 31.0950702,20.5077575 31.2012722,19.5555556 C31.2012722,24.6673766 32.8739542,29.3907996 35.5555556,33.7801165 C29.6878932,34.8701372 24.0459103,37.7142141 21.3333333,41.7777778 L24.0901611,35.0538955" id="Fill-1640" fill="#B88835"></path>
                        <path d="M22.2222222,40.7336703 C24.8583562,36.6831202 30.3413428,33.8481515 36.0436489,32.7616216 C33.4376176,28.3863614 31.8120733,23.6780652 31.8120733,18.5826147 C30.8229855,19.3735752 29.769392,20.0937655 28.6598936,20.7306968 C30.4574531,18.5118446 31.9066817,16.0140747 32.9301726,13.3206462 C33.0935871,12.8876995 33.2484008,12.4547527 33.3903134,12.01348 L33.566629,11.5555556 C33.3129065,13.0292398 33.1838951,14.5445535 33.1838951,16.0848449 C33.1838951,16.5177917 33.1924958,16.9465755 33.2139977,17.3753593 C33.4634199,22.6123501 35.2351771,27.4621865 38.1078321,31.5252255 C38.692684,32.3536525 39.3248401,33.1529388 40,33.9147586 C35.0244584,34.793141 30.5434607,37.036971 26.9827447,40.2299534 L26.7763264,40.4089603 C26.6989195,40.4714045 26.6215127,40.5380117 26.5527066,40.6046189 L26.5441058,40.6129448 C26.4494974,40.7003667 26.3591894,40.7961146 26.2731817,40.8960254 C25.9893566,41.2124096 25.7571359,41.5704232 25.5851207,41.9534146 C25.3701016,42.4363168 25.3098963,43.493706 25.2883943,44.0973337 L22.2222222,44.0973337 L22.2222222,40.7336703 Z M25.2754932,45.2796115 L25.5335161,45.2796115 C25.9979573,45.2796115 26.3763909,45.645951 26.3763909,46.0955496 L26.3763909,48.0729507 C26.3763909,48.5225493 25.9979573,48.8888889 25.5335161,48.8888889 L22.2222222,48.8888889 L22.2222222,45.2796115 L25.2754932,45.2796115 L25.2754932,45.2796115 Z" id="Fill-1641" fill="#DBA64B"></path>
                        <polygon id="Fill-1642" fill="#DBA64B" points="19.7666667 57.7777778 23.7888889 57.7777778 23.7888889 51.5555556 19.7666667 51.5555556"></polygon>
                        <path d="M36.2410243,37.3333333 C37.5002238,39.4794548 38.2222222,41.9436693 38.2222222,44.5649172 C38.2222222,52.8433895 31.0581073,59.5555556 22.2222222,59.5555556 C13.3863372,59.5555556 6.22222222,52.8433895 6.22222222,44.5649172 C6.22222222,41.9436693 6.939923,39.4794548 8.20342018,37.3333333 C9.26063211,37.6916913 10.296356,38.1184997 11.2934014,38.6057055 C10.2018086,40.3572306 9.57865521,42.3906102 9.57865521,44.5649172 C9.57865521,51.1079704 15.2386069,56.4108635 22.2222222,56.4108635 C29.2058376,56.4108635 34.8657892,51.1079704 34.8657892,44.5649172 C34.8657892,42.3906102 34.2383383,40.3572306 33.1510431,38.6057055 C34.1480885,38.1184997 35.1795147,37.6916913 36.2410243,37.3333333" id="Fill-1643" fill="#B88835"></path>
                        <path d="M19.2930573,56.7444304 C13.733277,55.8487876 9.47866498,50.8175039 9.47866498,44.7461188 C9.47866498,42.5173303 10.0504154,40.4330003 11.0519645,38.6375874 C10.1371638,38.1381736 9.18687509,37.7006707 8.21687086,37.3333333 C8.14195184,37.4736645 8.07097592,37.618123 8,37.7625815 C8.60723842,38.0267342 9.20264751,38.3197786 9.78228419,38.6375874 C8.78467821,40.4330003 8.21292776,42.5173303 8.21292776,44.7461188 C8.21292776,51.2715163 13.1260386,56.5917171 19.2930573,56.8765067 C19.466554,56.8847615 19.6400507,56.8888889 19.8096043,56.8888889 C20.022532,56.8888889 20.2354598,56.8806341 20.4444444,56.8723793 C20.05802,56.847615 19.6715955,56.8063412 19.2930573,56.7444304" id="Clip-1645"></path>
                        <path d="M19.2930573,56.7444304 C13.733277,55.8487876 9.47866498,50.8175039 9.47866498,44.7461188 C9.47866498,42.5173303 10.0504154,40.4330003 11.0519645,38.6375874 C10.1371638,38.1381736 9.18687509,37.7006707 8.21687086,37.3333333 C8.14195184,37.4736645 8.07097592,37.618123 8,37.7625815 C8.60723842,38.0267342 9.20264751,38.3197786 9.78228419,38.6375874 C8.78467821,40.4330003 8.21292776,42.5173303 8.21292776,44.7461188 C8.21292776,51.2715163 13.1260386,56.5917171 19.2930573,56.8765067 C19.466554,56.8847615 19.6400507,56.8888889 19.8096043,56.8888889 C20.022532,56.8888889 20.2354598,56.8806341 20.4444444,56.8723793 C20.05802,56.847615 19.6715955,56.8063412 19.2930573,56.7444304" id="Fill-1644" fill="url(#linearGradient-1)"></path>
                        <path d="M36.0109852,44.5649172 C36.0109852,52.6259588 29.4981119,59.2012241 21.3333333,59.5434761 C21.5557844,59.5515291 21.774116,59.5555556 21.9965671,59.5555556 C30.4661861,59.5555556 37.3333333,52.8433895 37.3333333,44.5649172 C37.3333333,41.9436693 36.6412633,39.4794548 35.4342602,37.3333333 C35.0635084,37.4621812 34.6968761,37.6031085 34.3384827,37.7520887 C35.405424,39.7935214 36.0109852,42.1127821 36.0109852,44.5649172" id="Clip-1648"></path>
                        <path d="M36.0109852,44.5649172 C36.0109852,52.6259588 29.4981119,59.2012241 21.3333333,59.5434761 C21.5557844,59.5515291 21.774116,59.5555556 21.9965671,59.5555556 C30.4661861,59.5555556 37.3333333,52.8433895 37.3333333,44.5649172 C37.3333333,41.9436693 36.6412633,39.4794548 35.4342602,37.3333333 C35.0635084,37.4621812 34.6968761,37.6031085 34.3384827,37.7520887 C35.405424,39.7935214 36.0109852,42.1127821 36.0109852,44.5649172" id="Fill-1647" fill="url(#linearGradient-2)"></path>
                        <polygon id="Fill-1650" fill="#B88835" points="20.7711111 57.7777778 22.7844444 57.7777778 22.7844444 51.5555556 20.7711111 51.5555556"></polygon>
                        <path d="M22.2222222,41.7777778 L22.2222222,40.1515688 L21.6349206,40.1515688 L22.2222222,41.7777778 Z M22.2222222,37.1680516 L22.2222222,27.3851882 L21.4880952,27.3851882 L21.4880952,25.5284929 L22.2222222,25.5284929 L22.2222222,0 L17.7777778,10.969441 L20.6587302,9.30481769 L19.8968254,30.7229714 L21.1388889,30.7229714 L21.1388889,32.8314943 L19.8214286,32.8314943 L19.75,34.9058711 L20.5634921,37.1680516 L22.2222222,37.1680516 L22.2222222,37.1680516 Z" id="Fill-1651" fill="#B88835"></path>
                        <path d="M19.739709,35.0538955 C17.217348,33.8302324 14.4798093,33.0074965 11.6028036,32.6775669 C12.8101896,29.5160893 13.4796314,26.0664453 13.4796314,22.4497484 C13.4796314,21.4724885 13.4318141,20.5077575 13.3361796,19.5555556 C13.3361796,24.4000919 11.981357,28.9021696 9.77777778,33.0951993 L10.1961789,33.0951993 L10.1961789,33.9555221 C11.3995802,34.2436885 12.5830576,34.6237341 13.7227025,35.0873061 L13.7227025,34.7991397 L15.9183122,34.7991397 L15.9183122,36.1146819 C17.2532109,36.8288333 18.4845056,37.6682746 19.5564094,38.6204765 L19.5564094,37.2673474 L20.5565873,37.2673474 L19.739709,35.0538955 Z M21.0785925,40.1865982 C21.5049632,40.6919334 21.8875013,41.2223266 22.2222222,41.7777778 L21.6324759,40.1865982 L21.0785925,40.1865982 L21.0785925,40.1865982 Z" id="Fill-1652" fill="#DBA64B"></path>
                        <path d="M22.2222222,40.7336703 C21.8610775,40.179998 21.4483407,39.6513034 20.9883112,39.1475865 L19.3459626,39.1475865 L19.3459626,37.5864803 C18.1894397,36.6373278 16.8609432,35.8005749 15.4206637,35.0887105 L15.4206637,36.0670037 L13.0517265,36.0670037 L13.0517265,34.0646248 C11.8221147,33.6025374 10.5452103,33.223709 9.24680908,32.9364655 L9.24680908,33.5817227 L7.69474674,33.5817227 L7.69474674,32.0788978 L8.79537821,32.0788978 C11.1729141,27.8992963 12.6346903,23.4116364 12.6346903,18.5826147 C13.6235389,19.3735752 14.6768776,20.0937655 15.7861078,20.7306968 C13.9889829,18.5118446 12.5401048,16.0140747 11.5125621,13.3206462 C11.3491872,12.8876995 11.1987102,12.4547527 11.0568319,12.01348 L10.8805589,11.5555556 C11.1299207,13.0292398 11.2632003,14.5445535 11.2632003,16.0848449 C11.2632003,16.5177917 11.2546016,16.9465755 11.2331049,17.3753593 C11.1299207,19.5317673 10.768776,21.625731 10.1797662,23.6239469 L11.0611313,23.6239469 L11.0611313,25.8136584 L9.42738143,25.8136584 C8.62770388,27.8451779 7.5872632,29.7601348 6.34045412,31.5252255 C5.75144431,32.3536525 5.11944109,33.1529388 4.44444444,33.9147586 C9.41878275,34.793141 13.9029961,37.036971 17.4585517,40.2299534 L17.6692194,40.4089603 C17.7466076,40.4714045 17.8196964,40.5380117 17.8927852,40.6046189 L17.8970845,40.6129448 C17.99167,40.7003667 18.0862555,40.7961146 18.1722424,40.8960254 C18.4516996,41.2124096 18.683864,41.5704232 18.860137,41.9534146 C19.1137982,42.5237387 19.1524923,42.9525225 19.161091,43.4229359 C19.1653903,43.5353355 19.1653903,43.7976013 19.1696896,44.0973337 L22.2222222,44.0973337 L22.2222222,40.7336703 Z M19.1696896,45.2796115 L18.9074298,45.2796115 C18.4474002,45.2796115 18.0690582,45.645951 18.0690582,46.0955496 L18.0690582,48.0729507 C18.0690582,48.5183864 18.4474002,48.8888889 18.9074298,48.8888889 L22.2222222,48.8888889 L22.2222222,45.2796115 L19.1696896,45.2796115 L19.1696896,45.2796115 Z" id="Fill-1653" fill="#B88835"></path>
                        <polyline id="Fill-1654" fill="#DBA64B" points="23.1111111 41.7777778 23.1111111 40.1515688 23.2261905 40.1515688 23.2261905 37.1680516 23.1111111 37.1680516 23.1111111 27.3851882 24.1031746 27.3851882 24.1031746 25.5284929 23.1111111 25.5284929 23.1111111 0 27.5555556 10.969441 24.6706349 9.30481769 25.5833333 34.9058711 23.1111111 41.7777778"></polyline>
                        <path d="M24.0901611,35.0538955 C26.8868146,33.8302324 29.9312729,33.0074965 33.1261841,32.6775669 C31.7809583,29.5160893 31.0419692,26.0664453 31.0419692,22.4497484 C31.0419692,21.4724885 31.0950702,20.5077575 31.2012722,19.5555556 C31.2012722,24.6673766 32.8739542,29.3907996 35.5555556,33.7801165 C29.6878932,34.8701372 24.0459103,37.7142141 21.3333333,41.7777778 L24.0901611,35.0538955" id="Fill-1655" fill="#B88835"></path>
                        <path d="M22.2222222,40.7336703 C24.8583562,36.6831202 30.3413428,33.8481515 36.0436489,32.7616216 C33.4376176,28.3863614 31.8120733,23.6780652 31.8120733,18.5826147 C30.8229855,19.3735752 29.769392,20.0937655 28.6598936,20.7306968 C30.4574531,18.5118446 31.9066817,16.0140747 32.9301726,13.3206462 C33.0935871,12.8876995 33.2484008,12.4547527 33.3903134,12.01348 L33.566629,11.5555556 C33.3129065,13.0292398 33.1838951,14.5445535 33.1838951,16.0848449 C33.1838951,16.5177917 33.1924958,16.9465755 33.2139977,17.3753593 C33.4634199,22.6123501 35.2351771,27.4621865 38.1078321,31.5252255 C38.692684,32.3536525 39.3248401,33.1529388 40,33.9147586 C35.0244584,34.793141 30.5434607,37.036971 26.9827447,40.2299534 L26.7763264,40.4089603 C26.6989195,40.4714045 26.6215127,40.5380117 26.5527066,40.6046189 L26.5441058,40.6129448 C26.4494974,40.7003667 26.3591894,40.7961146 26.2731817,40.8960254 C25.9893566,41.2124096 25.7571359,41.5704232 25.5851207,41.9534146 C25.3701016,42.4363168 25.3098963,43.493706 25.2883943,44.0973337 L22.2222222,44.0973337 L22.2222222,40.7336703 Z M25.2754932,45.2796115 L25.5335161,45.2796115 C25.9979573,45.2796115 26.3763909,45.645951 26.3763909,46.0955496 L26.3763909,48.0729507 C26.3763909,48.5225493 25.9979573,48.8888889 25.5335161,48.8888889 L22.2222222,48.8888889 L22.2222222,45.2796115 L25.2754932,45.2796115 L25.2754932,45.2796115 Z" id="Fill-1656" fill="#DBA64B"></path>
                        <polygon id="Fill-1657" fill="#DBA64B" points="19.7666667 57.7777778 23.7888889 57.7777778 23.7888889 51.5555556 19.7666667 51.5555556"></polygon>
                        <path d="M36.2410243,37.3333333 C37.5002238,39.4794548 38.2222222,41.9436693 38.2222222,44.5649172 C38.2222222,52.8433895 31.0581073,59.5555556 22.2222222,59.5555556 C13.3863372,59.5555556 6.22222222,52.8433895 6.22222222,44.5649172 C6.22222222,41.9436693 6.939923,39.4794548 8.20342018,37.3333333 C9.26063211,37.6916913 10.296356,38.1184997 11.2934014,38.6057055 C10.2018086,40.3572306 9.57865521,42.3906102 9.57865521,44.5649172 C9.57865521,51.1079704 15.2386069,56.4108635 22.2222222,56.4108635 C29.2058376,56.4108635 34.8657892,51.1079704 34.8657892,44.5649172 C34.8657892,42.3906102 34.2383383,40.3572306 33.1510431,38.6057055 C34.1480885,38.1184997 35.1795147,37.6916913 36.2410243,37.3333333" id="Fill-1658" fill="#B88835"></path>
                        <path d="M19.2930573,56.7444304 C13.733277,55.8487876 9.47866498,50.8175039 9.47866498,44.7461188 C9.47866498,42.5173303 10.0504154,40.4330003 11.0519645,38.6375874 C10.1371638,38.1381736 9.18687509,37.7006707 8.21687086,37.3333333 C8.14195184,37.4736645 8.07097592,37.618123 8,37.7625815 C8.60723842,38.0267342 9.20264751,38.3197786 9.78228419,38.6375874 C8.78467821,40.4330003 8.21292776,42.5173303 8.21292776,44.7461188 C8.21292776,51.2715163 13.1260386,56.5917171 19.2930573,56.8765067 C19.466554,56.8847615 19.6400507,56.8888889 19.8096043,56.8888889 C20.022532,56.8888889 20.2354598,56.8806341 20.4444444,56.8723793 C20.05802,56.847615 19.6715955,56.8063412 19.2930573,56.7444304" id="Clip-1660"></path>
                        <path d="M19.2930573,56.7444304 C13.733277,55.8487876 9.47866498,50.8175039 9.47866498,44.7461188 C9.47866498,42.5173303 10.0504154,40.4330003 11.0519645,38.6375874 C10.1371638,38.1381736 9.18687509,37.7006707 8.21687086,37.3333333 C8.14195184,37.4736645 8.07097592,37.618123 8,37.7625815 C8.60723842,38.0267342 9.20264751,38.3197786 9.78228419,38.6375874 C8.78467821,40.4330003 8.21292776,42.5173303 8.21292776,44.7461188 C8.21292776,51.2715163 13.1260386,56.5917171 19.2930573,56.8765067 C19.466554,56.8847615 19.6400507,56.8888889 19.8096043,56.8888889 C20.022532,56.8888889 20.2354598,56.8806341 20.4444444,56.8723793 C20.05802,56.847615 19.6715955,56.8063412 19.2930573,56.7444304" id="Fill-1659" fill="url(#linearGradient-1)"></path>
                        <path d="M36.0109852,44.5649172 C36.0109852,52.6259588 29.4981119,59.2012241 21.3333333,59.5434761 C21.5557844,59.5515291 21.774116,59.5555556 21.9965671,59.5555556 C30.4661861,59.5555556 37.3333333,52.8433895 37.3333333,44.5649172 C37.3333333,41.9436693 36.6412633,39.4794548 35.4342602,37.3333333 C35.0635084,37.4621812 34.6968761,37.6031085 34.3384827,37.7520887 C35.405424,39.7935214 36.0109852,42.1127821 36.0109852,44.5649172" id="Clip-1663"></path>
                        <path d="M36.0109852,44.5649172 C36.0109852,52.6259588 29.4981119,59.2012241 21.3333333,59.5434761 C21.5557844,59.5515291 21.774116,59.5555556 21.9965671,59.5555556 C30.4661861,59.5555556 37.3333333,52.8433895 37.3333333,44.5649172 C37.3333333,41.9436693 36.6412633,39.4794548 35.4342602,37.3333333 C35.0635084,37.4621812 34.6968761,37.6031085 34.3384827,37.7520887 C35.405424,39.7935214 36.0109852,42.1127821 36.0109852,44.5649172" id="Fill-1662" fill="url(#linearGradient-2)"></path>
                        <polygon id="Fill-1665" fill="#B88835" points="20.7711111 57.7777778 22.7844444 57.7777778 22.7844444 51.5555556 20.7711111 51.5555556"></polygon>
                        <path d="M14.5201595,31.1111111 L17.0714611,31.1111111 L17.0714611,28.5752781 L14.5201595,28.5752781 L14.5201595,31.1111111 Z M16.1083019,24.6013385 L17.7777778,24.6013385 L17.7777778,22.9419847 L16.1083019,22.9419847 L16.1083019,24.6013385 Z M0.787650159,10.8840137 L1.90063408,10.8840137 L1.90063408,9.77777778 L0.787650159,9.77777778 L0.787650159,10.8840137 Z M6.28835915,14.0155121 L7.9364315,14.0155121 L7.9364315,12.3774321 L6.28835915,12.3774321 L6.28835915,14.0155121 Z M0.37670225,16.4960333 L1.73368649,16.4960333 L1.73368649,15.1472765 L0.37670225,15.1472765 L0.37670225,16.4960333 Z M4.01900735e-13,23.7546426 L2.15747652,23.7546426 L2.15747652,21.6102469 L4.01900735e-13,21.6102469 L4.01900735e-13,23.7546426 Z M1.99052893,29.8431946 L4.67453247,29.8431946 L4.67453247,27.1754643 L1.99052893,27.1754643 L1.99052893,29.8431946 Z M5.34660353,21.2868856 L7.86794018,21.2868856 L7.86794018,18.7808359 L5.34660353,18.7808359 L5.34660353,21.2868856 Z" id="Fill-1666" fill="#B88835"></path>
                    </g>
                </g>
            </g>
        </g>
    </g>
</svg>