<svg width="50" height="51" viewBox="0 0 50 51" fill="none" xmlns="http://www.w3.org/2000/svg">
<path d="M25.9188 16.1399H22.2041V30.9988L33.9674 38.0567L35.8247 35.0106L25.9188 29.1414V16.1399ZM37.8975 0.810547L49.3066 10.3326L46.1367 14.134L34.7202 4.61689L37.8975 0.810547ZM11.4636 0.810547L14.6385 4.61441L3.22689 14.134L0.0570068 10.3301L11.4636 0.810547ZM24.6806 6.23402C12.3725 6.23402 2.39232 16.2142 2.39232 28.5223C2.39232 40.8304 12.3725 50.8105 24.6806 50.8105C36.9887 50.8105 46.9688 40.8304 46.9688 28.5223C46.9688 16.2142 36.9887 6.23402 24.6806 6.23402ZM24.6806 45.8576C15.1214 45.8576 7.34527 38.0815 7.34527 28.5223C7.34527 18.9631 15.1214 11.187 24.6806 11.187C34.2398 11.187 42.0159 18.9631 42.0159 28.5223C42.0159 38.0815 34.2398 45.8576 24.6806 45.8576Z" fill="#FBC25E"/>
</svg>
