<?xml version="1.0" encoding="UTF-8"?>
<svg width="200px" height="60px" viewBox="0 0 200 60" version="1.1" xmlns="http://www.w3.org/2000/svg" xmlns:xlink="http://www.w3.org/1999/xlink">
    <title>logo/trident/1</title>
    <defs>
        <path d="M12.1137037,19.8874751 C6.15211865,18.9644456 1.58778011,13.8115699 1.58778011,7.59170594 C1.58778011,5.31377075 2.20172175,3.17556021 3.27294406,1.33796937 C2.29487151,0.821411575 1.27869225,0.376833145 0.232874415,1.74803933e-16 C0.15242689,0.14395873 0.0762134451,0.292151539 -4.4822685e-16,0.436110269 C0.652048363,0.711325487 1.29139449,1.00771111 1.91380429,1.33796937 C0.842581976,3.17556021 0.228640335,5.31377075 0.228640335,7.59170594 C0.228640335,14.2773187 5.50007029,19.7308141 12.1137037,20.0187316 C12.2957691,20.0271997 12.4820687,20.0314338 12.6683682,20.0314338 C12.8970085,20.0314338 13.1214148,20.0271997 13.345821,20.0144975 C12.9308812,19.9933271 12.5159413,19.9467522 12.1137037,19.8874751" id="path-1"></path>
        <linearGradient x1="24.2289922%" y1="91.4183048%" x2="34.8894583%" y2="15.1764955%" id="linearGradient-3">
            <stop stop-color="#F6BA53" offset="0%"></stop>
            <stop stop-color="#B88734" offset="100%"></stop>
        </linearGradient>
        <path d="M15.0648576,7.59170594 C15.0648576,16.0598665 8.37924488,22.9656514 0,23.3213142 C0.228640335,23.3297824 0.45304659,23.3340164 0.681686925,23.3340164 C9.37425374,23.3340164 16.4239974,16.2885068 16.4239974,7.59170594 C16.4239974,4.83955376 15.716906,2.25253071 14.4720864,1.74803933e-16 C14.0952533,0.135490569 13.7184201,0.283683379 13.345821,0.436110269 C14.4424478,2.58278897 15.0648576,5.01738513 15.0648576,7.59170594" id="path-4"></path>
        <linearGradient x1="21.8185789%" y1="91.5804754%" x2="32.5342881%" y2="15.0063509%" id="linearGradient-6">
            <stop stop-color="#F6BA53" offset="0%"></stop>
            <stop stop-color="#B88734" offset="100%"></stop>
        </linearGradient>
        <path d="M15.0648576,7.59170594 C15.0648576,16.0598665 8.37924488,22.9656514 0,23.3213142 C0.228640335,23.3297824 0.45304659,23.3340164 0.681686925,23.3340164 C9.37425374,23.3340164 16.4239974,16.2885068 16.4239974,7.59170594 C16.4239974,4.83955376 15.716906,2.25253071 14.4720864,1.74803933e-16 C14.0952533,0.135490569 13.7184201,0.283683379 13.345821,0.436110269 C14.4424478,2.58278897 15.0648576,5.01738513 15.0648576,7.59170594" id="path-7"></path>
        <path d="M15.0648576,7.59170594 C15.0648576,16.0598665 8.37924488,22.9656514 0,23.3213142 C0.228640335,23.3297824 0.45304659,23.3340164 0.681686925,23.3340164 C9.37425374,23.3340164 16.4239974,16.2885068 16.4239974,7.59170594 C16.4239974,4.83955376 15.716906,2.25253071 14.4720864,1.74803933e-16 C14.0952533,0.135490569 13.7184201,0.283683379 13.345821,0.436110269 C14.4424478,2.58278897 15.0648576,5.01738513 15.0648576,7.59170594" id="path-9"></path>
        <path d="M15.0648576,7.59170594 C15.0648576,16.0598665 8.37924488,22.9656514 0,23.3213142 C0.228640335,23.3297824 0.45304659,23.3340164 0.681686925,23.3340164 C9.37425374,23.3340164 16.4239974,16.2885068 16.4239974,7.59170594 C16.4239974,4.83955376 15.716906,2.25253071 14.4720864,1.74803933e-16 C14.0952533,0.135490569 13.7184201,0.283683379 13.345821,0.436110269 C14.4424478,2.58278897 15.0648576,5.01738513 15.0648576,7.59170594" id="path-11"></path>
        <path d="M15.0648576,7.59170594 C15.0648576,16.0598665 8.37924488,22.9656514 0,23.3213142 C0.228640335,23.3297824 0.45304659,23.3340164 0.681686925,23.3340164 C9.37425374,23.3340164 16.4239974,16.2885068 16.4239974,7.59170594 C16.4239974,4.83955376 15.716906,2.25253071 14.4720864,1.74803933e-16 C14.0952533,0.135490569 13.7184201,0.283683379 13.345821,0.436110269 C14.4424478,2.58278897 15.0648576,5.01738513 15.0648576,7.59170594" id="path-13"></path>
        <path d="M15.0648576,7.59170594 C15.0648576,16.0598665 8.37924488,22.9656514 0,23.3213142 C0.228640335,23.3297824 0.45304659,23.3340164 0.681686925,23.3340164 C9.37425374,23.3340164 16.4239974,16.2885068 16.4239974,7.59170594 C16.4239974,4.83955376 15.716906,2.25253071 14.4720864,1.74803933e-16 C14.0952533,0.135490569 13.7184201,0.283683379 13.345821,0.436110269 C14.4424478,2.58278897 15.0648576,5.01738513 15.0648576,7.59170594" id="path-15"></path>
        <path d="M15.0648576,7.59170594 C15.0648576,16.0598665 8.37924488,22.9656514 0,23.3213142 C0.228640335,23.3297824 0.45304659,23.3340164 0.681686925,23.3340164 C9.37425374,23.3340164 16.4239974,16.2885068 16.4239974,7.59170594 C16.4239974,4.83955376 15.716906,2.25253071 14.4720864,1.74803933e-16 C14.0952533,0.135490569 13.7184201,0.283683379 13.345821,0.436110269 C14.4424478,2.58278897 15.0648576,5.01738513 15.0648576,7.59170594" id="path-17"></path>
        <path d="M15.0648576,7.59170594 C15.0648576,16.0598665 8.37924488,22.9656514 0,23.3213142 C0.228640335,23.3297824 0.45304659,23.3340164 0.681686925,23.3340164 C9.37425374,23.3340164 16.4239974,16.2885068 16.4239974,7.59170594 C16.4239974,4.83955376 15.716906,2.25253071 14.4720864,1.74803933e-16 C14.0952533,0.135490569 13.7184201,0.283683379 13.345821,0.436110269 C14.4424478,2.58278897 15.0648576,5.01738513 15.0648576,7.59170594" id="path-19"></path>
        <path d="M15.0648576,7.59170594 C15.0648576,16.0598665 8.37924488,22.9656514 0,23.3213142 C0.228640335,23.3297824 0.45304659,23.3340164 0.681686925,23.3340164 C9.37425374,23.3340164 16.4239974,16.2885068 16.4239974,7.59170594 C16.4239974,4.83955376 15.716906,2.25253071 14.4720864,1.74803933e-16 C14.0952533,0.135490569 13.7184201,0.283683379 13.345821,0.436110269 C14.4424478,2.58278897 15.0648576,5.01738513 15.0648576,7.59170594" id="path-21"></path>
        <path d="M15.0648576,7.59170594 C15.0648576,16.0598665 8.37924488,22.9656514 0,23.3213142 C0.228640335,23.3297824 0.45304659,23.3340164 0.681686925,23.3340164 C9.37425374,23.3340164 16.4239974,16.2885068 16.4239974,7.59170594 C16.4239974,4.83955376 15.716906,2.25253071 14.4720864,1.74803933e-16 C14.0952533,0.135490569 13.7184201,0.283683379 13.345821,0.436110269 C14.4424478,2.58278897 15.0648576,5.01738513 15.0648576,7.59170594" id="path-23"></path>
        <path d="M12.1137037,19.8874751 C6.15211865,18.9644456 1.58778011,13.8115699 1.58778011,7.59170594 C1.58778011,5.31377075 2.20172175,3.17556021 3.27294406,1.33796937 C2.29487151,0.821411575 1.27869225,0.376833145 0.232874415,1.74803933e-16 C0.15242689,0.14395873 0.0762134451,0.292151539 -4.4822685e-16,0.436110269 C0.652048363,0.711325487 1.29139449,1.00771111 1.91380429,1.33796937 C0.842581976,3.17556021 0.228640335,5.31377075 0.228640335,7.59170594 C0.228640335,14.2773187 5.50007029,19.7308141 12.1137037,20.0187316 C12.2957691,20.0271997 12.4820687,20.0314338 12.6683682,20.0314338 C12.8970085,20.0314338 13.1214148,20.0271997 13.345821,20.0144975 C12.9308812,19.9933271 12.5159413,19.9467522 12.1137037,19.8874751" id="path-25"></path>
        <path d="M15.0648576,7.59170594 C15.0648576,16.0598665 8.37924488,22.9656514 0,23.3213142 C0.228640335,23.3297824 0.45304659,23.3340164 0.681686925,23.3340164 C9.37425374,23.3340164 16.4239974,16.2885068 16.4239974,7.59170594 C16.4239974,4.83955376 15.716906,2.25253071 14.4720864,1.74803933e-16 C14.0952533,0.135490569 13.7184201,0.283683379 13.345821,0.436110269 C14.4424478,2.58278897 15.0648576,5.01738513 15.0648576,7.59170594" id="path-27"></path>
        <path d="M15.0648576,7.59170594 C15.0648576,16.0598665 8.37924488,22.9656514 0,23.3213142 C0.228640335,23.3297824 0.45304659,23.3340164 0.681686925,23.3340164 C9.37425374,23.3340164 16.4239974,16.2885068 16.4239974,7.59170594 C16.4239974,4.83955376 15.716906,2.25253071 14.4720864,1.74803933e-16 C14.0952533,0.135490569 13.7184201,0.283683379 13.345821,0.436110269 C14.4424478,2.58278897 15.0648576,5.01738513 15.0648576,7.59170594" id="path-29"></path>
    </defs>
    <g id="Marketing-Landing" stroke="none" stroke-width="1" fill="none" fill-rule="evenodd">
        <g id="Landing" transform="translate(-150.000000, -32.000000)">
            <g id="Group" transform="translate(150.000000, 32.000000)">
                <g id="Group-2" transform="translate(0.000000, -0.000000)">
                    <g id="icon-1">
                        <polyline id="Fill-333" fill="#B88835" fill-rule="nonzero" points="17.4825175 41.3881348 17.4825175 0 12.7445816 10.8688841 15.8185239 9.21759277 14.8446855 34.5839677 17.4825175 41.3881348"></polyline>
                        <path d="M14.8446855,34.5839677 C12.1729808,33.3433822 9.26416766,32.5092684 6.21139577,32.1747761 C7.49855618,28.9738114 8.20141351,25.4806951 8.20141351,21.8224498 C8.20141351,20.831675 8.15060454,19.8536024 8.04898662,18.8924662 C8.04898662,24.0622782 6.45273835,28.846789 3.8868857,33.2925733 C9.49704207,34.3976682 14.8912604,37.2768428 17.4825175,41.3881348 L14.8446855,34.5839677" id="Fill-334" fill="#DBA64B" fill-rule="nonzero"></path>
                        <path d="M17.4825175,41.3881348 C14.8912604,37.2768428 9.49704207,34.3976682 3.8868857,33.2925733 C6.45273835,28.846789 8.04898662,24.0622782 8.04898662,18.8924662 C9.02282508,19.6927074 10.0601747,20.4252033 11.1525675,21.0730176 C9.3827219,18.8204869 7.96007093,16.2842728 6.95235982,13.5448228 C6.79146477,13.1087126 6.63903788,12.6683682 6.49931323,12.2195557 L6.32571594,11.7538069 C6.57552668,13.2526713 6.70254909,14.7896424 6.70254909,16.3562521 C6.70254909,16.7923624 6.69408093,17.2284727 6.67291052,17.6645829 C6.42733387,22.9825878 4.68712687,27.9110572 1.86299532,32.0392855 C1.28716041,32.8818675 0.660516524,33.6905768 0,34.4611794 C4.89036273,35.3545704 9.2980403,37.6325055 12.7996247,40.8800451 L13.0028605,41.0578765 C13.079074,41.1256218 13.1510534,41.189133 13.2230327,41.2611123 L13.2272668,41.2653464 C13.3246506,41.3542621 13.4135663,41.451646 13.4982479,41.5532639 C13.7734632,41.875054 14.0021035,42.2391849 14.1714667,42.6329544 C14.4255115,43.2087893 14.4593842,43.6406655 14.4720864,44.1233506 C14.4763205,44.2334367 14.4763205,44.5001838 14.4805546,44.8050375 L17.4825175,44.8050375 L17.4825175,41.3881348 Z M14.4805546,46.0075163 L14.2222757,46.0075163 C13.7692291,46.0075163 13.39663,46.3801154 13.39663,46.833162 L13.39663,48.8443501 C13.39663,49.2973967 13.7692291,49.6699958 14.2222757,49.6699958 L17.4825175,49.6699958 L17.4825175,46.0075163 L14.4805546,46.0075163 L14.4805546,46.0075163 Z" id="Fill-335" fill="#B88835" fill-rule="nonzero"></path>
                        <polyline id="Fill-336" fill="#DBA64B" fill-rule="nonzero" points="17.4825175 41.3881348 17.4825175 0 22.2162192 10.8688841 19.146511 9.21759277 20.1161154 34.5839677 17.4825175 41.3881348"></polyline>
                        <path d="M20.1161154,34.5839677 C22.7920542,33.3433822 25.6966332,32.5092684 28.7494051,32.1747761 C27.4664788,28.9738114 26.7593874,25.4806951 26.7593874,21.8224498 C26.7593874,20.831675 26.8101963,19.8536024 26.9118143,18.8924662 C26.9118143,24.0622782 28.5080625,28.846789 31.0739152,33.2925733 C25.4637588,34.3976682 20.0737746,37.2768428 17.4825175,41.3881348 L20.1161154,34.5839677" id="Fill-337" fill="#B88835" fill-rule="nonzero"></path>
                        <path d="M17.4825175,41.3881348 C20.0737746,37.2768428 25.4637588,34.3976682 31.0739152,33.2925733 C28.5080625,28.846789 26.9118143,24.0622782 26.9118143,18.8924662 C25.9379758,19.6927074 24.9006261,20.4252033 23.8124675,21.0730176 C25.578079,18.8204869 27.004964,16.2842728 28.0084411,13.5448228 C28.1693361,13.1087126 28.321763,12.6683682 28.4614877,12.2195557 L28.6350849,11.7538069 C28.3895083,13.2526713 28.2582518,14.7896424 28.2582518,16.3562521 C28.2582518,16.7923624 28.26672,17.2284727 28.2878904,17.6645829 C28.533467,22.9825878 30.273674,27.9110572 33.1020396,32.0392855 C33.6778746,32.8818675 34.3002844,33.6905768 34.965035,34.4611794 C30.0704382,35.3545704 25.6627606,37.6325055 22.1611762,40.8800451 L21.9579403,41.0578765 C21.8817269,41.1256218 21.8097475,41.189133 21.7377682,41.2611123 L21.7335341,41.2653464 C21.6403843,41.3542621 21.5472346,41.451646 21.4625529,41.5532639 C21.1873377,41.875054 20.9586974,42.2391849 20.7893342,42.6329544 C20.5776302,43.1156395 20.518353,44.1910959 20.4971826,44.8050375 L17.4825175,44.8050375 L17.4825175,41.3881348 Z M20.4844804,46.0075163 L20.7385252,46.0075163 C21.1915718,46.0075163 21.5641709,46.3801154 21.5641709,46.833162 L21.5641709,48.8443501 C21.5641709,49.2973967 21.1915718,49.6699958 20.7385252,49.6699958 L17.4825175,49.6699958 L17.4825175,46.0075163 L20.4844804,46.0075163 L20.4844804,46.0075163 Z" id="Fill-338" fill="#DBA64B" fill-rule="nonzero"></path>
                        <polygon id="Fill-339" fill="#DBA64B" fill-rule="nonzero" points="15.5687132 57.1939564 19.3963218 57.1939564 19.3963218 50.8724746 15.5687132 50.8724746"></polygon>
                        <path d="M31.272917,36.6332626 C32.5177366,38.8857933 33.224828,41.4728164 33.224828,44.2249685 C33.224828,52.9217694 26.1750843,59.967279 17.4825175,59.967279 C8.78571658,59.967279 1.740207,52.9217694 1.740207,44.2249685 C1.740207,41.4728164 2.4472984,38.8857933 3.68788393,36.6332626 C4.73370175,37.0100957 5.74988102,37.4546742 6.72795357,37.971232 C5.65673126,39.8088228 5.04278962,41.9470333 5.04278962,44.2249685 C5.04278962,51.0968808 10.6106052,56.6646964 17.4825175,56.6646964 C24.3501957,56.6646964 29.9180113,51.0968808 29.9180113,44.2249685 C29.9180113,41.9470333 29.3040696,39.8088228 28.2328473,37.971232 C29.2151539,37.4546742 30.2313332,37.0100957 31.272917,36.6332626" id="Fill-340" fill="#B88835" fill-rule="nonzero"></path>
                        <g id="Fill-341-Clipped" transform="translate(3.455010, 36.633263)">
                            <mask id="mask-2" fill="white">
                                <use xlink:href="#path-1"></use>
                            </mask>
                            <g id="path-1"></g>
                            <path d="M12.1137037,19.8874751 C6.15211865,18.9644456 1.58778011,13.8115699 1.58778011,7.59170594 C1.58778011,5.31377075 2.20172175,3.17556021 3.27294406,1.33796937 C2.29487151,0.821411575 1.27869225,0.376833145 0.232874415,1.74803933e-16 C0.15242689,0.14395873 0.0762134451,0.292151539 -4.4822685e-16,0.436110269 C0.652048363,0.711325487 1.29139449,1.00771111 1.91380429,1.33796937 C0.842581976,3.17556021 0.228640335,5.31377075 0.228640335,7.59170594 C0.228640335,14.2773187 5.50007029,19.7308141 12.1137037,20.0187316 C12.2957691,20.0271997 12.4820687,20.0314338 12.6683682,20.0314338 C12.8970085,20.0314338 13.1214148,20.0271997 13.345821,20.0144975 C12.9308812,19.9933271 12.5159413,19.9467522 12.1137037,19.8874751" id="Fill-341" fill="url(#linearGradient-3)" fill-rule="nonzero" mask="url(#mask-2)"></path>
                        </g>
                        <g id="Fill-344-Clipped" transform="translate(16.800831, 36.633263)">
                            <mask id="mask-5" fill="white">
                                <use xlink:href="#path-4"></use>
                            </mask>
                            <g id="path-4"></g>
                            <path d="M15.0648576,7.59170594 C15.0648576,16.0598665 8.37924488,22.9656514 0,23.3213142 C0.228640335,23.3297824 0.45304659,23.3340164 0.681686925,23.3340164 C9.37425374,23.3340164 16.4239974,16.2885068 16.4239974,7.59170594 C16.4239974,4.83955376 15.716906,2.25253071 14.4720864,1.74803933e-16 C14.0952533,0.135490569 13.7184201,0.283683379 13.345821,0.436110269 C14.4424478,2.58278897 15.0648576,5.01738513 15.0648576,7.59170594" id="Fill-344" fill="url(#linearGradient-6)" fill-rule="nonzero" mask="url(#mask-5)"></path>
                        </g>
                        <g id="Fill-347-Clipped" transform="translate(16.800831, 36.633263)">
                            <mask id="mask-8" fill="white">
                                <use xlink:href="#path-7"></use>
                            </mask>
                            <g id="path-4"></g>
                            <polygon id="Fill-347" fill="#B88835" fill-rule="nonzero" mask="url(#mask-8)" points="-1.23211736 20.5606938 0.681686925 20.5606938 0.681686925 14.239212 -1.23211736 14.239212"></polygon>
                        </g>
                        <g id="Fill-348-Clipped" transform="translate(16.800831, 36.633263)">
                            <mask id="mask-10" fill="white">
                                <use xlink:href="#path-9"></use>
                            </mask>
                            <g id="path-4"></g>
                            <polyline id="Fill-348" fill="#B88835" fill-rule="nonzero" mask="url(#mask-10)" points="0.681686925 4.75487216 0.681686925 -36.6332626 -4.05624891 -25.7643785 -0.982306625 -27.4156698 -1.95614509 -2.04929486 0.681686925 4.75487216"></polyline>
                        </g>
                        <g id="Fill-349-Clipped" transform="translate(16.800831, 36.633263)">
                            <mask id="mask-12" fill="white">
                                <use xlink:href="#path-11"></use>
                            </mask>
                            <g id="path-4"></g>
                            <path d="M-1.95614509,-2.04929486 C-4.62784975,-3.28988038 -7.5366629,-4.12399419 -10.5894348,-4.45848654 C-9.30227438,-7.65945123 -8.59941705,-11.1525675 -8.59941705,-14.8108128 C-8.59941705,-15.8015876 -8.65022602,-16.7796602 -8.75184394,-17.7407964 C-8.75184394,-12.5709844 -10.3480922,-7.78647364 -12.9139449,-3.34068934 C-7.30378849,-2.23559439 -1.90957021,0.643580203 0.681686925,4.75487216 L-1.95614509,-2.04929486" id="Fill-349" fill="#DBA64B" fill-rule="nonzero" mask="url(#mask-12)"></path>
                        </g>
                        <g id="Fill-350-Clipped" transform="translate(16.800831, 36.633263)">
                            <mask id="mask-14" fill="white">
                                <use xlink:href="#path-13"></use>
                            </mask>
                            <g id="path-4"></g>
                            <path d="M0.681686925,4.75487216 C-1.90957021,0.643580203 -7.30378849,-2.23559439 -12.9139449,-3.34068934 C-10.3480922,-7.78647364 -8.75184394,-12.5709844 -8.75184394,-17.7407964 C-7.77800548,-16.9405552 -6.74065581,-16.2080593 -5.6482631,-15.560245 C-7.41810865,-17.8127757 -8.84075963,-20.3489898 -9.84847073,-23.0884398 C-10.0093658,-23.52455 -10.1617927,-23.9648944 -10.3015173,-24.4137069 L-10.4751146,-24.8794557 C-10.2253039,-23.3805913 -10.0982815,-21.8436202 -10.0982815,-20.2770105 C-10.0982815,-19.8409002 -10.1067496,-19.4047899 -10.12792,-18.9686797 C-10.3734967,-13.6506748 -12.1137037,-8.72220538 -14.9378352,-4.59397711 C-15.5136702,-3.75139513 -16.140314,-2.9426858 -16.8008306,-2.17208318 C-11.9104678,-1.27869225 -7.50279026,0.999242946 -4.00120587,4.24678252 L-3.79797001,4.42461389 C-3.72175657,4.49235918 -3.6497772,4.55587038 -3.57779784,4.62784975 L-3.57356376,4.63208383 C-3.47617991,4.72099951 -3.38726423,4.81838336 -3.30258262,4.92000129 C-3.0273674,5.24179139 -2.79872707,5.60592229 -2.62936385,5.99969176 C-2.37531904,6.57552668 -2.3414464,7.00740287 -2.32874415,7.49008802 C-2.32451007,7.60017411 -2.32451007,7.86692116 -2.32027599,8.17177494 L0.681686925,8.17177494 L0.681686925,4.75487216 Z M-2.32027599,9.37425374 L-2.57855489,9.37425374 C-3.03160148,9.37425374 -3.40420055,9.74685281 -3.40420055,10.1998994 L-3.40420055,12.2110875 C-3.40420055,12.6641341 -3.03160148,13.0367332 -2.57855489,13.0367332 L0.681686925,13.0367332 L0.681686925,9.37425374 L-2.32027599,9.37425374 L-2.32027599,9.37425374 Z" id="Fill-350" fill="#B88835" fill-rule="nonzero" mask="url(#mask-14)"></path>
                        </g>
                        <g id="Fill-351-Clipped" transform="translate(16.800831, 36.633263)">
                            <mask id="mask-16" fill="white">
                                <use xlink:href="#path-15"></use>
                            </mask>
                            <g id="path-4"></g>
                            <polyline id="Fill-351" fill="#DBA64B" fill-rule="nonzero" mask="url(#mask-16)" points="0.681686925 4.75487216 0.681686925 -36.6332626 5.41538868 -25.7643785 2.34568048 -27.4156698 3.31528486 -2.04929486 0.681686925 4.75487216"></polyline>
                        </g>
                        <g id="Fill-352-Clipped" transform="translate(16.800831, 36.633263)">
                            <mask id="mask-18" fill="white">
                                <use xlink:href="#path-17"></use>
                            </mask>
                            <g id="path-4"></g>
                            <path d="M3.31528486,-2.04929486 C5.9912236,-3.28988038 8.89580267,-4.12399419 11.9485746,-4.45848654 C10.6656482,-7.65945123 9.95855682,-11.1525675 9.95855682,-14.8108128 C9.95855682,-15.8015876 10.0093658,-16.7796602 10.1109837,-17.7407964 C10.1109837,-12.5709844 11.707232,-7.78647364 14.2730846,-3.34068934 C8.66292826,-2.23559439 3.27294406,0.643580203 0.681686925,4.75487216 L3.31528486,-2.04929486" id="Fill-352" fill="#B88835" fill-rule="nonzero" mask="url(#mask-18)"></path>
                        </g>
                        <g id="Fill-353-Clipped" transform="translate(16.800831, 36.633263)">
                            <mask id="mask-20" fill="white">
                                <use xlink:href="#path-19"></use>
                            </mask>
                            <g id="path-4"></g>
                            <path d="M0.681686925,4.75487216 C3.27294406,0.643580203 8.66292826,-2.23559439 14.2730846,-3.34068934 C11.707232,-7.78647364 10.1109837,-12.5709844 10.1109837,-17.7407964 C9.13714525,-16.9405552 8.09979558,-16.2080593 7.01163695,-15.560245 C8.77724842,-17.8127757 10.2041335,-20.3489898 11.2076105,-23.0884398 C11.3685056,-23.52455 11.5209324,-23.9648944 11.6606571,-24.4137069 L11.8342544,-24.8794557 C11.5886777,-23.3805913 11.4574212,-21.8436202 11.4574212,-20.2770105 C11.4574212,-19.8409002 11.4658894,-19.4047899 11.4870598,-18.9686797 C11.7326365,-13.6506748 13.4728435,-8.72220538 16.3012091,-4.59397711 C16.877044,-3.75139513 17.4994538,-2.9426858 18.1642044,-2.17208318 C13.2696076,-1.27869225 8.86193003,0.999242946 5.36034564,4.24678252 L5.15710978,4.42461389 C5.08089634,4.49235918 5.00891697,4.55587038 4.93693761,4.62784975 L4.93270353,4.63208383 C4.83955376,4.72099951 4.746404,4.81838336 4.66172239,4.92000129 C4.38650717,5.24179139 4.15786684,5.60592229 3.98850363,5.99969176 C3.77679961,6.48237691 3.71752249,7.5578333 3.69635209,8.17177494 L0.681686925,8.17177494 L0.681686925,4.75487216 Z M3.68364984,9.37425374 L3.93769466,9.37425374 C4.39074125,9.37425374 4.76334032,9.74685281 4.76334032,10.1998994 L4.76334032,12.2110875 C4.76334032,12.6641341 4.39074125,13.0367332 3.93769466,13.0367332 L0.681686925,13.0367332 L0.681686925,9.37425374 L3.68364984,9.37425374 L3.68364984,9.37425374 Z" id="Fill-353" fill="#DBA64B" fill-rule="nonzero" mask="url(#mask-20)"></path>
                        </g>
                        <g id="Fill-354-Clipped" transform="translate(16.800831, 36.633263)">
                            <mask id="mask-22" fill="white">
                                <use xlink:href="#path-21"></use>
                            </mask>
                            <g id="path-4"></g>
                            <polygon id="Fill-354" fill="#DBA64B" fill-rule="nonzero" mask="url(#mask-22)" points="-1.23211736 20.5606938 2.59549121 20.5606938 2.59549121 14.239212 -1.23211736 14.239212"></polygon>
                        </g>
                        <g id="Fill-355-Clipped" transform="translate(16.800831, 36.633263)">
                            <mask id="mask-24" fill="white">
                                <use xlink:href="#path-23"></use>
                            </mask>
                            <g id="path-4"></g>
                            <path d="M14.4720864,1.74803933e-16 C15.716906,2.25253071 16.4239974,4.83955376 16.4239974,7.59170594 C16.4239974,16.2885068 9.37425374,23.3340164 0.681686925,23.3340164 C-8.01511397,23.3340164 -15.0606236,16.2885068 -15.0606236,7.59170594 C-15.0606236,4.83955376 -14.3535322,2.25253071 -13.1129466,1.74803933e-16 C-12.0671288,0.376833145 -11.0509495,0.821411575 -10.072877,1.33796937 C-11.1440993,3.17556021 -11.7580409,5.31377075 -11.7580409,7.59170594 C-11.7580409,14.4636182 -6.19022537,20.0314338 0.681686925,20.0314338 C7.54936514,20.0314338 13.1171807,14.4636182 13.1171807,7.59170594 C13.1171807,5.31377075 12.5032391,3.17556021 11.4320168,1.33796937 C12.4143234,0.821411575 13.4305027,0.376833145 14.4720864,1.74803933e-16" id="Fill-355" fill="#B88835" fill-rule="nonzero" mask="url(#mask-24)"></path>
                        </g>
                        <g id="Fill-356-Clipped" transform="translate(3.455010, 36.633263)">
                            <mask id="mask-26" fill="white">
                                <use xlink:href="#path-25"></use>
                            </mask>
                            <g id="path-7"></g>
                            <path d="M12.1137037,19.8874751 C6.15211865,18.9644456 1.58778011,13.8115699 1.58778011,7.59170594 C1.58778011,5.31377075 2.20172175,3.17556021 3.27294406,1.33796937 C2.29487151,0.821411575 1.27869225,0.376833145 0.232874415,1.74803933e-16 C0.15242689,0.14395873 0.0762134451,0.292151539 -4.4822685e-16,0.436110269 C0.652048363,0.711325487 1.29139449,1.00771111 1.91380429,1.33796937 C0.842581976,3.17556021 0.228640335,5.31377075 0.228640335,7.59170594 C0.228640335,14.2773187 5.50007029,19.7308141 12.1137037,20.0187316 C12.2957691,20.0271997 12.4820687,20.0314338 12.6683682,20.0314338 C12.8970085,20.0314338 13.1214148,20.0271997 13.345821,20.0144975 C12.9308812,19.9933271 12.5159413,19.9467522 12.1137037,19.8874751" id="Fill-356" fill="url(#linearGradient-3)" fill-rule="nonzero" mask="url(#mask-26)"></path>
                        </g>
                        <g id="Fill-359-Clipped" transform="translate(16.800831, 36.633263)">
                            <mask id="mask-28" fill="white">
                                <use xlink:href="#path-27"></use>
                            </mask>
                            <g id="path-9"></g>
                            <path d="M15.0648576,7.59170594 C15.0648576,16.0598665 8.37924488,22.9656514 0,23.3213142 C0.228640335,23.3297824 0.45304659,23.3340164 0.681686925,23.3340164 C9.37425374,23.3340164 16.4239974,16.2885068 16.4239974,7.59170594 C16.4239974,4.83955376 15.716906,2.25253071 14.4720864,1.74803933e-16 C14.0952533,0.135490569 13.7184201,0.283683379 13.345821,0.436110269 C14.4424478,2.58278897 15.0648576,5.01738513 15.0648576,7.59170594" id="Fill-359" fill="url(#linearGradient-6)" fill-rule="nonzero" mask="url(#mask-28)"></path>
                        </g>
                        <g id="Fill-362-Clipped" transform="translate(16.800831, 36.633263)">
                            <mask id="mask-30" fill="white">
                                <use xlink:href="#path-29"></use>
                            </mask>
                            <g id="path-9"></g>
                            <polygon id="Fill-362" fill="#B88835" fill-rule="nonzero" mask="url(#mask-30)" points="-1.23211736 20.5606938 0.681686925 20.5606938 0.681686925 14.239212 -1.23211736 14.239212"></polygon>
                        </g>
                    </g>
                    <g id="Group-3" transform="translate(51.748252, 15.384615)" fill="#FFFFFF">
                        <path d="M128.31809,0 L148.251748,0 L148.251748,3.25354404 L140.090037,3.25354404 L140.090037,13.986014 L136.621632,13.986014 L136.621632,3.25354404 L128.31809,3.25354404 L128.31809,0 Z M0,0 L19.9336583,0 L19.9336583,3.25354404 L11.7676491,3.25354404 L11.7676491,13.986014 L8.303542,13.986014 L8.303542,3.25354404 L0,3.25354404 L0,0 Z M101.047917,8.53104599 L84.5998554,8.53104599 L84.5998554,10.7324699 L101.047917,10.7324699 L101.047917,13.986014 L81.1142588,13.986014 L81.1142588,5.45919337 L101.047917,5.45919337 L101.047917,8.53104599 Z M81.1142588,3.25354404 L101.047917,3.25354404 L101.047917,2.43693954e-14 L81.1142588,2.43693954e-14 L81.1142588,3.25354404 Z M26.5997005,3.25354404 L26.5997005,5.47186952 L40.361575,5.47186952 C40.8257481,5.47186952 41.0578347,5.28595272 41.0578347,4.91411911 L41.0578347,3.79439292 C41.0578347,3.43101008 40.791365,3.25354404 40.2541275,3.25354404 L26.5997005,3.25354404 Z M23.1312956,0 L40.2541275,0 C42.9961874,0 44.3629195,1.13662772 44.3629195,3.40988317 L44.3629195,4.66904697 C44.3629195,7.03526081 42.9961874,8.21836773 40.2541275,8.21836773 L39.0636093,8.21836773 L44.9517317,13.986014 L40.1509779,13.986014 L34.6195811,8.39160839 L26.5997005,8.39160839 L26.5997005,13.986014 L23.1312956,13.986014 L23.1312956,0 Z M48.6694149,13.986014 L52.1378199,13.986014 L52.1378199,0 L48.6694149,0 L48.6694149,13.986014 Z M59.4012702,10.7324699 L72.5614387,10.7324699 C73.8035317,10.7324699 74.4267271,10.3395094 74.4267271,9.54513764 L74.4267271,4.45777787 C74.4267271,3.65495532 73.8035317,3.25354404 72.5614387,3.25354404 L59.4012702,3.25354404 L59.4012702,10.7324699 Z M55.9371631,0 L72.5614387,0 C76.1286953,0 77.9123237,1.48733442 77.9123237,4.45777787 L77.9123237,9.54513764 C77.9123237,12.5071303 76.1286953,13.986014 72.5614387,13.986014 L55.9371631,13.986014 L55.9371631,0 Z M110.430232,4.30143874 C110.180954,4.00988739 109.875803,3.76058986 109.514779,3.55777153 C109.153756,3.3549532 108.784136,3.25354404 108.401623,3.25354404 L108.225409,3.25354404 L108.225409,13.986014 L104.84726,13.986014 L104.84726,0 L108.401623,0 C109.351459,0 110.146571,0.152113747 110.795553,0.456341242 C111.440238,0.760568736 112.059136,1.23803689 112.652246,1.8887457 L119.533183,9.68457524 C119.782461,9.96345045 120.087612,10.2085226 120.44004,10.4197917 C120.796766,10.6310608 121.166385,10.7324699 121.5446,10.7324699 L121.720814,10.7324699 L121.720814,0 L125.116155,0 L125.116155,13.986014 L121.5446,13.986014 C120.560381,13.986014 119.726589,13.8296749 119.047521,13.5127712 C118.364155,13.200093 117.732363,12.6972725 117.152147,12.0085353 L110.430232,4.30143874 L110.430232,4.30143874 Z" id="Fill-1634"></path>
                        <path d="M38.7726979,21.8002927 L38.7726979,22.9793462 L35.5091967,22.9793462 C35.2194864,22.9793462 35.0107246,23.0561428 34.8786508,23.2052186 C34.746577,23.3542943 34.6784098,23.5485445 34.6784098,23.7789342 C34.6784098,23.8783181 34.6954516,23.9777019 34.7210143,24.0725683 C34.7508374,24.1719521 34.8019627,24.2577836 34.8743903,24.3345801 C34.9468179,24.4113767 35.0405477,24.4701035 35.1598402,24.515278 C35.2791326,24.5604525 35.4367691,24.5785223 35.6242287,24.5785223 L37.1153846,24.5785223 C37.54995,24.5785223 37.903567,24.6372491 38.180496,24.7547027 C38.4574249,24.8721563 38.6747076,25.021232 38.8366046,25.2109647 C38.9985015,25.39618 39.1050126,25.6085 39.1646589,25.8524421 C39.2243051,26.0918668 39.2541282,26.3312914 39.2541282,26.5707161 C39.2541282,26.8553152 39.2157842,27.1218446 39.1433566,27.3612692 C39.0666686,27.6006939 38.9473762,27.8084964 38.7854792,27.9846768 C38.6193219,28.1653747 38.41056,28.3008981 38.1591937,28.4002819 C37.8993066,28.4996657 37.5925545,28.5493576 37.2261562,28.5493576 L33.6814656,28.5493576 L33.6814656,27.3703041 L37.2645002,27.3703041 C37.5669918,27.3703041 37.788535,27.2935075 37.9291297,27.1353969 C38.0697244,26.9772863 38.142152,26.7785186 38.142152,26.5300591 C38.142152,26.4261578 38.1251102,26.3177391 38.0952871,26.2138378 C38.0654639,26.1099366 38.0100782,26.0241051 37.9333901,25.9473085 C37.8609626,25.8705119 37.7587119,25.8072677 37.6266381,25.7620932 C37.4988247,25.7124013 37.3369278,25.6898141 37.1409473,25.6898141 L35.6625727,25.6898141 C35.2365282,25.6898141 34.8829112,25.6356047 34.6145031,25.5181511 C34.3418346,25.4052149 34.1330728,25.2561392 33.9754363,25.0709239 C33.8220603,24.8857086 33.7155492,24.6733886 33.6559029,24.4384814 C33.5962567,24.2080916 33.5664336,23.9731844 33.5664336,23.7382772 C33.5664336,23.4581956 33.6047776,23.2007011 33.6772051,22.9657939 C33.7496327,22.7308867 33.8646647,22.5230842 34.0223012,22.3514212 C34.1841982,22.1752408 34.39296,22.0397174 34.6443263,21.944851 C34.8956925,21.8454672 35.1939237,21.8002927 35.5475407,21.8002927 L38.7726979,21.8002927 Z M48.4524299,21.8002927 C49.3854675,21.8002927 50.0969619,22.0803744 50.5911735,22.6405378 C51.0811248,23.2007011 51.332491,24.049981 51.332491,25.192895 C51.332491,26.3222566 51.0811248,27.167019 50.5911735,27.7226649 C50.0969619,28.2737934 49.3854675,28.5493576 48.4524299,28.5493576 L47.5875595,28.5493576 C46.6545219,28.5493576 45.9430276,28.2737934 45.4488159,27.7226649 C44.9546042,27.167019 44.7074984,26.3222566 44.7074984,25.192895 C44.7074984,24.049981 44.9546042,23.2007011 45.4488159,22.6405378 C45.9430276,22.0803744 46.6545219,21.8002927 47.5875595,21.8002927 L48.4524299,21.8002927 Z M47.5875595,22.9793462 C46.9697949,22.9793462 46.5224481,23.1555266 46.2412587,23.4988526 C45.9600693,23.8466959 45.8194746,24.4113767 45.8194746,25.192895 C45.8194746,25.9653783 45.9600693,26.5210242 46.2369983,26.8598327 C46.5139272,27.1986412 46.961274,27.3703041 47.5875595,27.3703041 L48.4524299,27.3703041 C49.0616736,27.3703041 49.5090204,27.1986412 49.7902098,26.8553152 C50.0671387,26.5119893 50.2077334,25.9563434 50.2077334,25.1793426 C50.2077334,24.4068593 50.0713992,23.8466959 49.7944702,23.4988526 C49.5175413,23.1555266 49.0701945,22.9793462 48.4524299,22.9793462 L47.5875595,22.9793462 Z M58.1790269,21.8002927 L58.1790269,26.2093204 C58.1790269,26.3719485 58.2003291,26.5210242 58.2386731,26.6655825 C58.2812775,26.8101408 58.3537051,26.9321118 58.4516954,27.0360131 C58.5539461,27.1399143 58.6860199,27.2212284 58.8521772,27.2799552 C59.0183346,27.3431994 59.2270964,27.3703041 59.4784627,27.3703041 L61.9537815,27.3703041 L61.9537815,28.5493576 L59.414556,28.5493576 C58.9927719,28.5493576 58.6348945,28.4906308 58.3324029,28.3776947 C58.0341717,28.2602411 57.7913263,28.097613 57.6038667,27.8898104 C57.4164071,27.6820079 57.2800729,27.4380658 57.194864,27.1534667 C57.1096551,26.873385 57.0670506,26.5616812 57.0670506,26.2228727 L57.0670506,21.8002927 L58.1790269,21.8002927 Z M68.4040959,21.8002927 L68.4040959,26.3087042 C68.4040959,26.6520301 68.4893048,26.914042 68.6554622,27.0947399 C68.8216196,27.2799552 69.0900276,27.3703041 69.4606864,27.3703041 L70.5939649,27.3703041 C70.9518423,27.3703041 71.2159899,27.2799552 71.3864077,27.0947399 C71.5525651,26.914042 71.6420344,26.6520301 71.6420344,26.3087042 L71.6420344,21.8002927 L72.7327085,21.8002927 L72.7327085,26.3990531 C72.7327085,27.1128097 72.5622907,27.6503858 72.2171946,28.0117815 C71.867838,28.3686598 71.3523241,28.5493576 70.6663924,28.5493576 L69.3286126,28.5493576 C67.9567491,28.5493576 67.2708174,27.8356011 67.2708174,26.3990531 L67.2708174,21.8002927 L68.4040959,21.8002927 Z M83.0557678,21.8002927 L83.0557678,22.9793462 L81.1939531,22.9793462 L81.1939531,28.5493576 L80.073456,28.5493576 L80.073456,22.9793462 L78.2159017,22.9793462 L78.2159017,21.8002927 L83.0557678,21.8002927 Z M88.5943468,28.5493576 L89.7063231,28.5493576 L89.7063231,21.8002927 L88.5943468,21.8002927 L88.5943468,28.5493576 Z M99.2412,21.8002927 C100.174238,21.8002927 100.885732,22.0803744 101.379944,22.6405378 C101.874155,23.2007011 102.117001,24.049981 102.117001,25.192895 C102.117001,26.3222566 101.874155,27.167019 101.379944,27.7226649 C100.885732,28.2737934 100.174238,28.5493576 99.2412,28.5493576 L98.3720691,28.5493576 C97.443292,28.5493576 96.7317976,28.2737934 96.2375859,27.7226649 C95.7433743,27.167019 95.4962684,26.3222566 95.4962684,25.192895 C95.4962684,24.049981 95.7433743,23.2007011 96.2375859,22.6405378 C96.7317976,22.0803744 97.443292,21.8002927 98.3720691,21.8002927 L99.2412,21.8002927 Z M98.3720691,22.9793462 C97.758565,22.9793462 97.3112182,23.1555266 97.0300288,23.4988526 C96.7488394,23.8466959 96.6125051,24.4113767 96.6125051,25.192895 C96.6125051,25.9653783 96.7488394,26.5210242 97.0257683,26.8598327 C97.3026973,27.1986412 97.7500441,27.3703041 98.3720691,27.3703041 L99.2412,27.3703041 C99.8504437,27.3703041 100.29779,27.1986412 100.574719,26.8553152 C100.855909,26.5119893 100.996503,25.9563434 100.996503,25.1793426 C100.996503,24.4068593 100.855909,23.8466959 100.58324,23.4988526 C100.306311,23.1555266 99.8589646,22.9793462 99.2412,22.9793462 L98.3720691,22.9793462 Z M109.023183,28.5493576 L107.911206,28.5493576 L107.911206,23.1510092 C107.911206,22.7082995 108.030499,22.3559386 108.269084,22.0848919 C108.507669,21.8138451 108.878328,21.6783217 109.372539,21.6783217 C109.815626,21.6783217 110.14794,21.7912578 110.378004,22.0126127 C110.608068,22.238485 110.787007,22.5411539 110.919081,22.9296543 L112.780896,27.2392982 C112.814979,27.3206122 112.866104,27.3883739 112.930011,27.4425833 C112.993918,27.4967926 113.079127,27.5238973 113.185638,27.5238973 C113.30493,27.5238973 113.39866,27.4877577 113.462567,27.4154786 C113.530734,27.3431994 113.560557,27.2528505 113.560557,27.1399143 L113.560557,21.8002927 L114.685315,21.8002927 L114.685315,27.1896063 C114.685315,27.6368335 114.561762,27.9937117 114.323177,28.2647585 C114.080331,28.5358053 113.713933,28.6713287 113.223982,28.6713287 C113.002439,28.6713287 112.806458,28.644224 112.644561,28.5854972 C112.474144,28.5312878 112.329288,28.4454564 112.205735,28.3370376 C112.086443,28.2241015 111.979932,28.0930955 111.890462,27.9395024 C111.805254,27.7904266 111.728566,27.6142462 111.664659,27.419996 L109.807105,23.1103522 C109.726156,22.916102 109.594082,22.8212356 109.410883,22.8212356 C109.28307,22.8212356 109.18934,22.8573752 109.121173,22.9251369 C109.057266,22.9928986 109.023183,23.0877649 109.023183,23.209736 L109.023183,28.5493576 L109.023183,28.5493576 Z" id="Fill-1635"></path>
                    </g>
                </g>
            </g>
        </g>
    </g>
</svg>