<svg width="212" height="199" viewBox="0 0 212 199" fill="none" xmlns="http://www.w3.org/2000/svg">
<path fill-rule="evenodd" clip-rule="evenodd" d="M183.495 131H212V135.653H200.329V151H195.369V135.653H183.495V131ZM0 131H28.5051V135.653H16.8277V151H11.8741V135.653H0V131ZM144.499 143.199H120.978V146.347H144.499V151H115.993V138.807H144.499V143.199ZM115.993 135.653H144.499V131H115.993V135.653ZM38.0376 135.653V138.825H57.7171C58.3808 138.825 58.7127 138.559 58.7127 138.027V136.426C58.7127 135.906 58.3317 135.653 57.5634 135.653H38.0376ZM33.0778 131H57.5634C61.4845 131 63.439 132.625 63.439 135.876V137.677C63.439 141.06 61.4845 142.752 57.5634 142.752H55.861L64.281 151H57.4159L49.506 143H38.0376V151H33.0778V131ZM69.5973 151H74.5571V131H69.5973V151ZM84.9438 146.347H103.763C105.539 146.347 106.43 145.785 106.43 144.65V137.375C106.43 136.227 105.539 135.653 103.763 135.653H84.9438V146.347ZM79.9901 131H103.763C108.864 131 111.415 133.127 111.415 137.375V144.65C111.415 148.885 108.864 151 103.763 151H79.9901V131ZM157.915 137.151C157.559 136.734 157.122 136.378 156.606 136.088C156.09 135.798 155.561 135.653 155.014 135.653H154.762V151H149.932V131H155.014C156.373 131 157.51 131.218 158.438 131.653C159.36 132.088 160.245 132.77 161.093 133.701L170.932 144.849C171.289 145.248 171.725 145.598 172.229 145.9C172.739 146.202 173.268 146.347 173.809 146.347H174.061V131H178.916V151H173.809C172.401 151 171.209 150.776 170.238 150.323C169.261 149.876 168.357 149.157 167.528 148.172L157.915 137.151V137.151Z" fill="white"/>
<path fill-rule="evenodd" clip-rule="evenodd" d="M55.445 162.174V163.86H50.7782C50.3639 163.86 50.0653 163.97 49.8765 164.183C49.6876 164.397 49.5901 164.674 49.5901 165.004C49.5901 165.146 49.6145 165.288 49.6511 165.424C49.6937 165.566 49.7668 165.689 49.8704 165.798C49.9739 165.908 50.108 165.992 50.2786 166.057C50.4492 166.121 50.6746 166.147 50.9426 166.147H53.075C53.6964 166.147 54.2021 166.231 54.5981 166.399C54.9941 166.567 55.3048 166.78 55.5363 167.052C55.7679 167.317 55.9202 167.62 56.0055 167.969C56.0908 168.311 56.1334 168.654 56.1334 168.996C56.1334 169.403 56.0786 169.784 55.975 170.127C55.8653 170.469 55.6947 170.766 55.4632 171.018C55.2256 171.276 54.9271 171.47 54.5676 171.612C54.196 171.755 53.7574 171.826 53.2334 171.826H48.1645V170.14H53.2882C53.7208 170.14 54.0376 170.03 54.2387 169.804C54.4397 169.578 54.5433 169.293 54.5433 168.938C54.5433 168.789 54.5189 168.634 54.4763 168.486C54.4336 168.337 54.3544 168.214 54.2447 168.105C54.1412 167.995 53.995 167.904 53.8061 167.84C53.6233 167.769 53.3918 167.736 53.1116 167.736H50.9975C50.3882 167.736 49.8826 167.659 49.4987 167.491C49.1088 167.329 48.8103 167.116 48.5849 166.851C48.3655 166.587 48.2132 166.283 48.1279 165.947C48.0426 165.618 48 165.282 48 164.946C48 164.545 48.0548 164.177 48.1584 163.841C48.262 163.505 48.4265 163.208 48.6519 162.963C48.8834 162.711 49.1819 162.517 49.5414 162.381C49.9008 162.239 50.3273 162.174 50.833 162.174H55.445ZM69.287 162.174C70.6212 162.174 71.6387 162.575 72.3454 163.376C73.046 164.177 73.4055 165.391 73.4055 167.026C73.4055 168.641 73.046 169.849 72.3454 170.643C71.6387 171.432 70.6212 171.826 69.287 171.826H68.0502C66.716 171.826 65.6985 171.432 64.9918 170.643C64.2851 169.849 63.9317 168.641 63.9317 167.026C63.9317 165.391 64.2851 164.177 64.9918 163.376C65.6985 162.575 66.716 162.174 68.0502 162.174H69.287ZM68.0502 163.86C67.1668 163.86 66.5271 164.112 66.125 164.603C65.7229 165.101 65.5218 165.908 65.5218 167.026C65.5218 168.13 65.7229 168.925 66.1189 169.41C66.5149 169.894 67.1546 170.14 68.0502 170.14H69.287C70.1582 170.14 70.7979 169.894 71.2 169.403C71.596 168.912 71.7971 168.118 71.7971 167.006C71.7971 165.902 71.6021 165.101 71.2061 164.603C70.8101 164.112 70.1704 163.86 69.287 163.86H68.0502ZM83.196 162.174V168.479C83.196 168.712 83.2265 168.925 83.2813 169.132C83.3422 169.339 83.4458 169.513 83.5859 169.661C83.7321 169.81 83.921 169.926 84.1586 170.01C84.3962 170.101 84.6947 170.14 85.0542 170.14H88.5939V171.826H84.9628C84.3597 171.826 83.8479 171.742 83.4153 171.58C82.9889 171.412 82.6416 171.18 82.3735 170.882C82.1055 170.585 81.9105 170.236 81.7887 169.829C81.6668 169.429 81.6059 168.983 81.6059 168.499V162.174H83.196ZM97.8179 162.174V168.621C97.8179 169.112 97.9397 169.487 98.1773 169.745C98.4149 170.01 98.7987 170.14 99.3288 170.14H100.949C101.461 170.14 101.839 170.01 102.083 169.745C102.32 169.487 102.448 169.112 102.448 168.621V162.174H104.008V168.751C104.008 169.771 103.764 170.54 103.271 171.057C102.771 171.567 102.034 171.826 101.053 171.826H99.1399C97.1782 171.826 96.1973 170.805 96.1973 168.751V162.174H97.8179ZM118.77 162.174V163.86H116.107V171.826H114.505V163.86H111.849V162.174H118.77ZM126.69 171.826H128.28V162.174H126.69V171.826ZM141.915 162.174C143.249 162.174 144.267 162.575 144.973 163.376C145.68 164.177 146.027 165.391 146.027 167.026C146.027 168.641 145.68 169.849 144.973 170.643C144.267 171.432 143.249 171.826 141.915 171.826H140.672C139.344 171.826 138.326 171.432 137.62 170.643C136.913 169.849 136.56 168.641 136.56 167.026C136.56 165.391 136.913 164.177 137.62 163.376C138.326 162.575 139.344 162.174 140.672 162.174H141.915ZM140.672 163.86C139.795 163.86 139.155 164.112 138.753 164.603C138.351 165.101 138.156 165.908 138.156 167.026C138.156 168.13 138.351 168.925 138.747 169.41C139.143 169.894 139.783 170.14 140.672 170.14H141.915C142.786 170.14 143.426 169.894 143.822 169.403C144.224 168.912 144.425 168.118 144.425 167.006C144.425 165.902 144.224 165.101 143.834 164.603C143.438 164.112 142.798 163.86 141.915 163.86H140.672ZM155.903 171.826H154.313V164.106C154.313 163.473 154.484 162.969 154.825 162.581C155.166 162.194 155.696 162 156.403 162C157.036 162 157.512 162.161 157.841 162.478C158.17 162.801 158.425 163.234 158.614 163.789L161.277 169.952C161.325 170.068 161.399 170.165 161.49 170.243C161.581 170.32 161.703 170.359 161.855 170.359C162.026 170.359 162.16 170.307 162.251 170.204C162.349 170.101 162.392 169.972 162.392 169.81V162.174H164V169.881C164 170.521 163.823 171.031 163.482 171.419C163.135 171.806 162.611 172 161.91 172C161.593 172 161.313 171.961 161.082 171.877C160.838 171.8 160.631 171.677 160.454 171.522C160.284 171.36 160.131 171.173 160.003 170.953C159.882 170.74 159.772 170.488 159.68 170.211L157.024 164.048C156.908 163.77 156.72 163.634 156.458 163.634C156.275 163.634 156.141 163.686 156.043 163.783C155.952 163.88 155.903 164.016 155.903 164.19V171.826V171.826Z" fill="white"/>
<path fill-rule="evenodd" clip-rule="evenodd" d="M106 87V84.6645H105.075L106 87ZM106 80.3797V66.3298H104.844V63.6633H106V27L99 42.754L103.537 40.3633L102.338 71.1234H104.294V74.1516H102.219L102.106 77.1308L103.387 80.3797H106V80.3797Z" fill="#B88835"/>
<path fill-rule="evenodd" clip-rule="evenodd" d="M102.21 77.3176C98.3586 75.5555 94.179 74.3708 89.7864 73.8957C91.6298 69.3432 92.6519 64.3757 92.6519 59.1676C92.6519 57.7604 92.5789 56.3712 92.4329 55C92.4329 61.9761 90.3644 68.4591 87 74.4971H87.6388V75.736C89.4761 76.1509 91.2831 76.6982 93.0231 77.3657V76.9508H96.3753V78.8451C98.4134 79.8735 100.293 81.0823 101.93 82.4535V80.505H103.457L102.21 77.3176ZM104.254 84.7087C104.905 85.4364 105.489 86.2001 106 87L105.1 84.7087H104.254V84.7087Z" fill="#DBA64B"/>
<path fill-rule="evenodd" clip-rule="evenodd" d="M106 86.9856C105.472 86.1699 104.868 85.3911 104.195 84.649H101.793V82.3491C100.102 80.9508 98.1591 79.7181 96.0527 78.6694V80.1106H92.5882V77.1607C90.7898 76.4799 88.9224 75.9218 87.0235 75.4987V76.4493H84.7536V74.2353H86.3632C89.8404 68.0778 91.9782 61.4665 91.9782 54.3524C93.4244 55.5176 94.9649 56.5786 96.5872 57.5169C93.9589 54.2481 91.8399 50.5684 90.3371 46.6004C90.0982 45.9625 89.8781 45.3247 89.6706 44.6746L89.4128 44C89.7775 46.1711 89.9724 48.4034 89.9724 50.6726C89.9724 51.3104 89.9599 51.9421 89.9284 52.5738C89.7775 55.7507 89.2493 58.8355 88.3879 61.7793H89.6769V65.0052H87.2875C86.118 67.9981 84.5964 70.8192 82.7729 73.4196C81.9115 74.6401 80.9872 75.8176 80 76.9399C87.275 78.2339 93.8331 81.5396 99.0331 86.2435L99.3412 86.5072C99.4544 86.5992 99.5613 86.6974 99.6682 86.7955L99.6745 86.8078C99.8128 86.9366 99.9511 87.0776 100.077 87.2248C100.486 87.6909 100.825 88.2183 101.083 88.7826C101.454 89.6228 101.511 90.2545 101.523 90.9475C101.529 91.1131 101.529 91.4994 101.536 91.941H106V86.9856ZM101.536 93.6828H101.152C100.479 93.6828 99.926 94.2225 99.926 94.8848V97.7979C99.926 98.4542 100.479 99 101.152 99H106V93.6828H101.536V93.6828Z" fill="#B88835"/>
<path fill-rule="evenodd" clip-rule="evenodd" d="M106 87V84.6645H106.181V80.3797H106V66.3298H107.562V63.6633H106V27L113 42.754L108.456 40.3633L109.894 77.1308L106 87" fill="#DBA64B"/>
<path fill-rule="evenodd" clip-rule="evenodd" d="M107.877 77.3176C111.81 75.5555 116.091 74.3708 120.584 73.8957C118.692 69.3432 117.653 64.3757 117.653 59.1676C117.653 57.7604 117.727 56.3712 117.877 55C117.877 62.361 120.229 69.1628 124 75.4834C115.749 77.053 107.815 81.1485 104 87L107.877 77.3176" fill="#B88835"/>
<path fill-rule="evenodd" clip-rule="evenodd" d="M106 86.9856C109.855 81.0183 117.874 76.8418 126.214 75.2411C122.403 68.7954 120.025 61.8591 120.025 54.3524C118.579 55.5176 117.038 56.5786 115.415 57.5169C118.044 54.2481 120.164 50.5684 121.66 46.6004C121.899 45.9625 122.126 45.3247 122.333 44.6746L122.591 44C122.22 46.1711 122.031 48.4034 122.031 50.6726C122.031 51.3104 122.044 51.9421 122.075 52.5738C122.44 60.289 125.031 67.4339 129.233 73.4196C130.088 74.6401 131.013 75.8176 132 76.9399C124.723 78.2339 118.17 81.5396 112.962 86.2435L112.66 86.5072C112.547 86.5992 112.434 86.6974 112.333 86.7955L112.321 86.8078C112.182 86.9366 112.05 87.0776 111.925 87.2248C111.509 87.6909 111.17 88.2183 110.918 88.7826C110.604 89.494 110.516 91.0517 110.484 91.941H106V86.9856ZM110.465 93.6828H110.843C111.522 93.6828 112.075 94.2225 112.075 94.8848V97.7979C112.075 98.4603 111.522 99 110.843 99H106V93.6828H110.465V93.6828Z" fill="#DBA64B"/>
<path fill-rule="evenodd" clip-rule="evenodd" d="M102.333 111H108.668V102H102.333V111Z" fill="#DBA64B"/>
<path fill-rule="evenodd" clip-rule="evenodd" d="M125.152 80C126.962 83.2836 128 87.0538 128 91.0643C128 103.73 117.702 114 105 114C92.2984 114 82 103.73 82 91.0643C82 87.0538 83.0317 83.2836 84.848 80C86.3677 80.5483 87.8566 81.2013 89.2898 81.9467C87.7207 84.6266 86.8249 87.7376 86.8249 91.0643C86.8249 101.075 94.9611 109.189 105 109.189C115.039 109.189 123.175 101.075 123.175 91.0643C123.175 87.7376 122.273 84.6266 120.71 81.9467C122.143 81.2013 123.626 80.5483 125.152 80" fill="#B88835"/>
<path fill-rule="evenodd" clip-rule="evenodd" d="M102.242 108.786C93.7535 107.458 87.2576 99.9964 87.2576 90.9928C87.2576 87.6876 88.1305 84.5967 89.6597 81.9341C88.263 81.1935 86.8121 80.5447 85.3311 80C85.2167 80.2081 85.1084 80.4223 85 80.6366C85.9271 81.0283 86.8362 81.4629 87.7212 81.9341C86.198 84.5967 85.3251 87.6876 85.3251 90.9928C85.3251 100.67 92.8264 108.559 102.242 108.982C102.507 108.994 102.772 109 103.031 109C103.356 109 103.681 108.988 104 108.976C103.41 108.939 102.82 108.878 102.242 108.786" fill="url(#paint0_linear)"/>
<path fill-rule="evenodd" clip-rule="evenodd" d="M126.016 91.0643C126.016 103.398 116.247 113.458 104 113.982C104.334 113.994 104.661 114 104.995 114C117.699 114 128 103.73 128 91.0643C128 87.0538 126.962 83.2836 125.151 80C124.595 80.1971 124.045 80.4128 123.508 80.6407C125.108 83.7641 126.016 87.3126 126.016 91.0643" fill="url(#paint1_linear)"/>
<path fill-rule="evenodd" clip-rule="evenodd" d="M102.914 111H106.085V102H102.914V111Z" fill="#B88835"/>
<path fill-rule="evenodd" clip-rule="evenodd" d="M106 87V84.6645H105.075L106 87ZM106 80.3797V66.3298H104.844V63.6633H106V27L99 42.754L103.537 40.3633L102.338 71.1234H104.294V74.1516H102.219L102.106 77.1308L103.387 80.3797H106V80.3797Z" fill="#B88835"/>
<path fill-rule="evenodd" clip-rule="evenodd" d="M102.21 77.3176C98.3586 75.5555 94.179 74.3708 89.7864 73.8957C91.6298 69.3432 92.6519 64.3757 92.6519 59.1676C92.6519 57.7604 92.5789 56.3712 92.4329 55C92.4329 61.9761 90.3644 68.4591 87 74.4971H87.6388V75.736C89.4761 76.1509 91.2831 76.6982 93.0231 77.3657V76.9508H96.3753V78.8451C98.4134 79.8735 100.293 81.0823 101.93 82.4535V80.505H103.457L102.21 77.3176ZM104.254 84.7087C104.905 85.4364 105.489 86.2001 106 87L105.1 84.7087H104.254V84.7087Z" fill="#DBA64B"/>
<path fill-rule="evenodd" clip-rule="evenodd" d="M106 86.9856C105.472 86.1699 104.868 85.3911 104.195 84.649H101.793V82.3491C100.102 80.9508 98.1591 79.7181 96.0527 78.6694V80.1106H92.5882V77.1607C90.7898 76.4799 88.9224 75.9218 87.0235 75.4987V76.4493H84.7536V74.2353H86.3632C89.8404 68.0778 91.9782 61.4665 91.9782 54.3524C93.4244 55.5176 94.9649 56.5786 96.5872 57.5169C93.9589 54.2481 91.8399 50.5684 90.3371 46.6004C90.0982 45.9625 89.8781 45.3247 89.6706 44.6746L89.4128 44C89.7775 46.1711 89.9724 48.4034 89.9724 50.6726C89.9724 51.3104 89.9599 51.9421 89.9284 52.5738C89.7775 55.7507 89.2493 58.8355 88.3879 61.7793H89.6769V65.0052H87.2875C86.118 67.9981 84.5964 70.8192 82.7729 73.4196C81.9115 74.6401 80.9872 75.8176 80 76.9399C87.275 78.2339 93.8331 81.5396 99.0331 86.2435L99.3412 86.5072C99.4544 86.5992 99.5613 86.6974 99.6682 86.7955L99.6745 86.8078C99.8128 86.9366 99.9511 87.0776 100.077 87.2248C100.486 87.6909 100.825 88.2183 101.083 88.7826C101.454 89.6228 101.511 90.2545 101.523 90.9475C101.529 91.1131 101.529 91.4994 101.536 91.941H106V86.9856ZM101.536 93.6828H101.152C100.479 93.6828 99.926 94.2225 99.926 94.8848V97.7979C99.926 98.4542 100.479 99 101.152 99H106V93.6828H101.536V93.6828Z" fill="#B88835"/>
<path fill-rule="evenodd" clip-rule="evenodd" d="M106 87V84.6645H106.181V80.3797H106V66.3298H107.562V63.6633H106V27L113 42.754L108.456 40.3633L109.894 77.1308L106 87" fill="#DBA64B"/>
<path fill-rule="evenodd" clip-rule="evenodd" d="M107.877 77.3176C111.81 75.5555 116.091 74.3708 120.584 73.8957C118.692 69.3432 117.653 64.3757 117.653 59.1676C117.653 57.7604 117.727 56.3712 117.877 55C117.877 62.361 120.229 69.1628 124 75.4834C115.749 77.053 107.815 81.1485 104 87L107.877 77.3176" fill="#B88835"/>
<path fill-rule="evenodd" clip-rule="evenodd" d="M106 86.9856C109.855 81.0183 117.874 76.8418 126.214 75.2411C122.403 68.7954 120.025 61.8591 120.025 54.3524C118.579 55.5176 117.038 56.5786 115.415 57.5169C118.044 54.2481 120.164 50.5684 121.66 46.6004C121.899 45.9625 122.126 45.3247 122.333 44.6746L122.591 44C122.22 46.1711 122.031 48.4034 122.031 50.6726C122.031 51.3104 122.044 51.9421 122.075 52.5738C122.44 60.289 125.031 67.4339 129.233 73.4196C130.088 74.6401 131.013 75.8176 132 76.9399C124.723 78.2339 118.17 81.5396 112.962 86.2435L112.66 86.5072C112.547 86.5992 112.434 86.6974 112.333 86.7955L112.321 86.8078C112.182 86.9366 112.05 87.0776 111.925 87.2248C111.509 87.6909 111.17 88.2183 110.918 88.7826C110.604 89.494 110.516 91.0517 110.484 91.941H106V86.9856ZM110.465 93.6828H110.843C111.522 93.6828 112.075 94.2225 112.075 94.8848V97.7979C112.075 98.4603 111.522 99 110.843 99H106V93.6828H110.465V93.6828Z" fill="#DBA64B"/>
<path fill-rule="evenodd" clip-rule="evenodd" d="M102.333 111H108.668V102H102.333V111Z" fill="#DBA64B"/>
<path fill-rule="evenodd" clip-rule="evenodd" d="M125.152 80C126.962 83.2836 128 87.0538 128 91.0643C128 103.73 117.702 114 105 114C92.2984 114 82 103.73 82 91.0643C82 87.0538 83.0317 83.2836 84.848 80C86.3677 80.5483 87.8566 81.2013 89.2898 81.9467C87.7207 84.6266 86.8249 87.7376 86.8249 91.0643C86.8249 101.075 94.9611 109.189 105 109.189C115.039 109.189 123.175 101.075 123.175 91.0643C123.175 87.7376 122.273 84.6266 120.71 81.9467C122.143 81.2013 123.626 80.5483 125.152 80" fill="#B88835"/>
<path fill-rule="evenodd" clip-rule="evenodd" d="M102.242 108.786C93.7535 107.458 87.2576 99.9964 87.2576 90.9928C87.2576 87.6876 88.1305 84.5967 89.6597 81.9341C88.263 81.1935 86.8121 80.5447 85.3311 80C85.2167 80.2081 85.1084 80.4223 85 80.6366C85.9271 81.0283 86.8362 81.4629 87.7212 81.9341C86.198 84.5967 85.3251 87.6876 85.3251 90.9928C85.3251 100.67 92.8264 108.559 102.242 108.982C102.507 108.994 102.772 109 103.031 109C103.356 109 103.681 108.988 104 108.976C103.41 108.939 102.82 108.878 102.242 108.786" fill="url(#paint2_linear)"/>
<path fill-rule="evenodd" clip-rule="evenodd" d="M126.016 91.0643C126.016 103.398 116.247 113.458 104 113.982C104.334 113.994 104.661 114 104.995 114C117.699 114 128 103.73 128 91.0643C128 87.0538 126.962 83.2836 125.151 80C124.595 80.1971 124.045 80.4128 123.508 80.6407C125.108 83.7641 126.016 87.3126 126.016 91.0643" fill="url(#paint3_linear)"/>
<path fill-rule="evenodd" clip-rule="evenodd" d="M102.914 111H106.085V102H102.914V111Z" fill="#B88835"/>
<path fill-rule="evenodd" clip-rule="evenodd" d="M94.2357 72H97.967V68.3151H94.2357V72ZM96.5584 62.5405H99V60.1292H96.5584V62.5405ZM74.1519 42.6075H75.7797V41H74.1519V42.6075ZM82.1967 47.158H84.607V44.7776H82.1967V47.158ZM73.5509 50.7625H75.5355V48.8026H73.5509V50.7625ZM73 61.3101H76.1553V58.1941H73V61.3101ZM75.9111 70.1576H79.8365V66.281H75.9111V70.1576ZM80.8194 57.7242H84.5069V54.0826H80.8194V57.7242Z" fill="#B88835"/>
<defs>
<linearGradient id="paint0_linear" x1="90.7071" y1="109.991" x2="100.199" y2="90.2531" gradientUnits="userSpaceOnUse">
<stop stop-color="#F6BA53"/>
<stop offset="1" stop-color="#B88734"/>
</linearGradient>
<linearGradient id="paint1_linear" x1="111.539" y1="114.812" x2="121.235" y2="90.5802" gradientUnits="userSpaceOnUse">
<stop stop-color="#F6BA53"/>
<stop offset="1" stop-color="#B88734"/>
</linearGradient>
<linearGradient id="paint2_linear" x1="90.7071" y1="109.991" x2="100.199" y2="90.2531" gradientUnits="userSpaceOnUse">
<stop stop-color="#F6BA53"/>
<stop offset="1" stop-color="#B88734"/>
</linearGradient>
<linearGradient id="paint3_linear" x1="111.539" y1="114.812" x2="121.235" y2="90.5802" gradientUnits="userSpaceOnUse">
<stop stop-color="#F6BA53"/>
<stop offset="1" stop-color="#B88734"/>
</linearGradient>
</defs>
</svg>
