<svg width="40" height="40" viewBox="0 0 40 40" fill="none" xmlns="http://www.w3.org/2000/svg">
<circle cx="20" cy="20" r="20" fill="#282829"/>
<path fill-rule="evenodd" clip-rule="evenodd" d="M12.18 27H12.23C13.83 27 15.25 26.12 16.23 25C17.21 26.12 18.63 27 20.23 27C21.83 27 23.25 26.12 24.23 25C25.21 26.12 26.63 27 28.23 27H28.28L30.46 19.35L28.23 18.62V12H23.23V9H17.23V12H12.23V18.62L10 19.35L12.18 27ZM28.23 29C26.84 29 25.45 28.53 24.23 27.68C21.79 29.39 18.67 29.39 16.23 27.68C15.01 28.53 13.62 29 12.23 29H10.23V31H12.23C13.61 31 14.97 30.65 16.23 30.01C18.75 31.3 21.71 31.3 24.23 30.01C25.49 30.66 26.85 31 28.23 31H30.23V29H28.23ZM26.23 14H14.23V17.97L20.23 16L26.23 17.97V14Z" fill="#FBC25E"/>
</svg>
