<svg width="186" height="126" viewBox="0 0 186 126" fill="none" xmlns="http://www.w3.org/2000/svg">
<path fill-rule="evenodd" clip-rule="evenodd" d="M116.284 34.7163C100.662 19.0945 75.3345 19.0945 59.7161 34.7166C44.0946 50.3381 44.0946 75.6655 59.7166 91.2839C75.3345 106.905 100.662 106.905 116.284 91.2838C131.905 75.6655 131.905 50.3381 116.284 34.7163ZM111.57 39.4303C124.588 52.4486 124.588 73.5545 111.57 86.5694C98.5514 99.5878 77.4456 99.5878 64.4306 86.57C51.4122 73.5545 51.4122 52.4486 64.4305 39.4303C77.4456 26.4122 98.5514 26.4122 111.57 39.4303Z" fill="#05E2A5"/>
<path fill-rule="evenodd" clip-rule="evenodd" d="M110.133 54.8211L84.6216 80.3322C83.9042 81.0495 82.9621 81.4053 82.022 81.3995C81.0933 81.4052 80.163 81.0537 79.4544 80.3452L65.0544 65.9452C63.6485 64.5394 63.6485 62.2599 65.0544 60.854C66.4604 59.4481 68.7397 59.4481 70.1456 60.854L81.9686 72.677L104.979 49.667C106.402 48.2438 108.709 48.2438 110.133 49.667C111.556 51.0902 111.556 53.3979 110.133 54.8211Z" fill="#05E2A5"/>
<path fill-rule="evenodd" clip-rule="evenodd" d="M20 93C20 87.4772 15.5228 83 10 83C4.47715 83 0 87.4772 0 93C0 98.5228 4.47715 103 10 103C15.5228 103 20 98.5228 20 93ZM5 93C5 90.2386 7.23858 88 10 88C12.7614 88 15 90.2386 15 93C15 95.7614 12.7614 98 10 98C7.23858 98 5 95.7614 5 93Z" fill="#05E2A5"/>
<path fill-rule="evenodd" clip-rule="evenodd" d="M186 41C186 35.4772 181.523 31 176 31C170.477 31 166 35.4772 166 41C166 46.5228 170.477 51 176 51C181.523 51 186 46.5228 186 41ZM171 41C171 38.2386 173.239 36 176 36C178.761 36 181 38.2386 181 41C181 43.7614 178.761 46 176 46C173.239 46 171 43.7614 171 41Z" fill="#05E2A5"/>
<path fill-rule="evenodd" clip-rule="evenodd" d="M139.5 103C137.567 103 136 104.567 136 106.5V111H131.5C129.567 111 128 112.567 128 114.5C128 116.433 129.567 118 131.5 118H136V122.5C136 124.433 137.567 126 139.5 126C141.433 126 143 124.433 143 122.5V118H147.5C149.433 118 151 116.433 151 114.5C151 112.567 149.433 111 147.5 111H143V106.5C143 104.567 141.433 103 139.5 103Z" fill="#05E2A5"/>
<path fill-rule="evenodd" clip-rule="evenodd" d="M36.5 0C34.567 0 33 1.567 33 3.5V8H28.5C26.567 8 25 9.567 25 11.5C25 13.433 26.567 15 28.5 15H33V19.5C33 21.433 34.567 23 36.5 23C38.433 23 40 21.433 40 19.5V15H44.5C46.433 15 48 13.433 48 11.5C48 9.567 46.433 8 44.5 8H40V3.5C40 1.567 38.433 0 36.5 0Z" fill="#05E2A5"/>
<circle cx="44" cy="107" r="4" fill="#05E2A5"/>
<circle cx="142" cy="27" r="4" fill="#05E2A5"/>
</svg>
