<svg width="80" height="80" viewBox="0 0 80 80" fill="none" xmlns="http://www.w3.org/2000/svg">
<circle cx="40" cy="40" r="40" fill="#282829"/>
<path fill-rule="evenodd" clip-rule="evenodd" d="M39.9998 19.845C28.8742 19.845 19.8447 28.8744 19.8447 40C19.8447 51.1256 28.8742 60.155 39.9998 60.155C51.1253 60.155 60.1548 51.1256 60.1548 40C60.1548 28.8744 51.1253 19.845 39.9998 19.845ZM30.0633 52.6574C30.93 50.8434 36.2106 49.0698 39.9998 49.0698C43.7889 49.0698 49.0897 50.8434 49.9362 52.6574C47.1951 54.8341 43.7486 56.124 39.9998 56.124C36.2509 56.124 32.8044 54.8341 30.0633 52.6574ZM39.9998 45.0388C42.9424 45.0388 49.9362 46.2279 52.8184 49.7349C54.8742 47.0341 56.1238 43.6682 56.1238 40C56.1238 31.1116 48.8881 23.876 39.9998 23.876C31.1114 23.876 23.8757 31.1116 23.8757 40C23.8757 43.6682 25.1253 47.0341 27.1812 49.7349C30.0633 46.2279 37.0571 45.0388 39.9998 45.0388ZM39.9998 27.907C36.0897 27.907 32.9455 31.0512 32.9455 34.9613C32.9455 38.8713 36.0897 42.0155 39.9998 42.0155C43.9098 42.0155 47.054 38.8713 47.054 34.9613C47.054 31.0512 43.9098 27.907 39.9998 27.907ZM36.9765 34.9613C36.9765 36.6341 38.3269 37.9845 39.9998 37.9845C41.6726 37.9845 43.023 36.6341 43.023 34.9613C43.023 33.2884 41.6726 31.938 39.9998 31.938C38.3269 31.938 36.9765 33.2884 36.9765 34.9613Z" fill="#111213"/>
</svg>
