<?xml version="1.0" encoding="UTF-8"?>
<svg width="68px" height="68px" viewBox="0 0 68 68" version="1.1" xmlns="http://www.w3.org/2000/svg" xmlns:xlink="http://www.w3.org/1999/xlink">
    <title>icon-trips</title>
    <g id="icon-trips" stroke="none" stroke-width="1" fill="none" fill-rule="evenodd">
        <circle id="Oval" fill="#282829" cx="34" cy="34" r="34"></circle>
        <g id="Group-13" transform="translate(22.000000, 22.000000)" fill="#FBC25E">
            <path d="M20,5.75 C19.035,5.75 18.25,4.965 18.25,4 C18.25,3.035 19.035,2.25 20,2.25 C20.965,2.25 21.75,3.035 21.75,4 C21.75,4.965 20.965,5.75 20,5.75 Z M20,0 C17.795,0 16,1.72 16,3.83 C16,7.105 19.555,9.68 19.705,9.79 L20,10 L20.295,9.79 C20.445,9.68 24,7.105 24,3.83 C24,1.72 22.205,0 20,0 L20,0 Z" id="Fill-32-Copy"></path>
            <path d="M12.41,10.905 C12.065,11.1 11.765,11.295 11.515,11.495 L12.125,12.285 C12.34,12.12 12.595,11.95 12.895,11.78 L12.41,10.905" id="Fill-33-Copy"></path>
            <path d="M13.465,14.025 C13.125,13.88 12.845,13.745 12.6,13.615 L12.135,14.5 C12.4,14.645 12.71,14.79 13.075,14.945 L13.465,14.025" id="Fill-34-Copy"></path>
            <path d="M12.575,21.52 L12.8,22.5 C13.135,22.42 13.46,22.345 13.77,22.27 L13.54,21.295 C13.23,21.37 12.91,21.445 12.575,21.52" id="Fill-35-Copy"></path>
            <path d="M10.64,21.955 L10.85,22.935 C11.185,22.86 11.51,22.79 11.825,22.72 L11.61,21.74 C11.295,21.81 10.975,21.88 10.64,21.955" id="Fill-36-Copy"></path>
            <path d="M15.3,14.74 C14.985,14.625 14.675,14.51 14.375,14.39 L14.015,15.33 C14.32,15.445 14.635,15.565 14.96,15.68 L15.3,14.74" id="Fill-37-Copy"></path>
            <path d="M14.64,11.01 L14.315,10.065 C13.98,10.18 13.655,10.305 13.35,10.44 L13.745,11.36 C14.03,11.235 14.33,11.12 14.64,11.01" id="Fill-38-Copy"></path>
            <polyline id="Fill-39-Copy" points="6.75 22.765 6.945 23.75 7.925 23.55 7.725 22.57 6.75 22.765"></polyline>
            <polyline id="Fill-40-Copy" points="8.695 22.365 8.9 23.35 9.875 23.145 9.67 22.16 8.695 22.365"></polyline>
            <path d="M10.71,12.48 C10.685,12.545 10.675,12.605 10.665,12.655 C10.66,12.71 10.655,12.76 10.655,12.815 C10.655,13.19 10.84,13.545 11.205,13.875 L11.87,13.13 C11.665,12.945 11.65,12.84 11.65,12.8 L10.71,12.48" id="Fill-41-Copy"></path>
            <path d="M18.26,19.945 L18.61,20.88 C18.97,20.745 19.29,20.61 19.57,20.475 L19.135,19.57 C18.885,19.69 18.59,19.82 18.26,19.945" id="Fill-42-Copy"></path>
            <path d="M19.055,16.23 C18.765,16.085 18.45,15.945 18.12,15.81 L17.74,16.735 C18.05,16.865 18.345,17 18.625,17.13 L19.055,16.23" id="Fill-43-Copy"></path>
            <path d="M20.1,18.12 L20.86,17.475 C20.65,17.225 20.365,16.98 19.98,16.74 L19.45,17.585 C19.74,17.77 19.96,17.95 20.1,18.12" id="Fill-44-Copy"></path>
            <path d="M19.895,19.115 L20.51,19.9 C20.925,19.57 21.165,19.215 21.25,18.81 L20.275,18.605 C20.245,18.77 20.115,18.94 19.895,19.115" id="Fill-45-Copy"></path>
            <path d="M14.5,21.06 L14.745,22.03 C15.085,21.945 15.405,21.865 15.715,21.78 L15.46,20.81 C15.155,20.89 14.84,20.975 14.5,21.06" id="Fill-46-Copy"></path>
            <path d="M17.18,15.435 C16.87,15.315 16.555,15.2 16.24,15.085 L15.895,16.025 C16.205,16.14 16.52,16.255 16.825,16.37 L17.18,15.435" id="Fill-47-Copy"></path>
            <path d="M16.41,20.55 L16.685,21.51 C17.03,21.41 17.35,21.315 17.65,21.215 L17.345,20.26 C17.055,20.355 16.745,20.45 16.41,20.55" id="Fill-48-Copy"></path>
            <path d="M16.495,10.505 L16.3,9.525 C15.96,9.59 15.625,9.67 15.3,9.76 L15.555,10.73 C15.86,10.645 16.17,10.57 16.495,10.505" id="Fill-49-Copy"></path>
            <path d="M18.4,10.25 L18.335,9.25 C17.995,9.275 17.65,9.31 17.315,9.355 L17.445,10.345 C17.755,10.305 18.075,10.275 18.4,10.25" id="Fill-50-Copy"></path>
            <path d="M5,17.75 C3.485,17.75 2.25,16.515 2.25,15 C2.25,13.485 3.485,12.25 5,12.25 C6.515,12.25 7.75,13.485 7.75,15 C7.75,16.515 6.515,17.75 5,17.75 Z M5,10 C2.245,10 0,12.245 0,15 C0,20.7 4.53,23.79 4.725,23.915 C4.805,23.97 4.905,24 5,24 C5.12,24 5.24,23.96 5.33,23.875 C5.525,23.705 10,19.67 10,15 C10,12.245 7.755,10 5,10 L5,10 Z" id="Fill-51-Copy"></path>
        </g>
    </g>
</svg>