<?xml version="1.0" encoding="UTF-8"?>
<svg width="68px" height="68px" viewBox="0 0 68 68" version="1.1" xmlns="http://www.w3.org/2000/svg" xmlns:xlink="http://www.w3.org/1999/xlink">
    <title>icon-day-charter</title>
    <g id="Dashboard" stroke="none" stroke-width="1" fill="none" fill-rule="evenodd">
        <g id="Dashboard-Welcome_incomplete" transform="translate(-397.000000, -983.000000)">
            <g id="Group-6" transform="translate(355.000000, 593.000000)">
                <g id="new-/-preferences-copy" transform="translate(18.000000, 372.000000)">
                    <g id="icon-day-charter" transform="translate(24.000000, 18.000000)">
                        <circle id="Oval" fill="#282829" cx="34" cy="34" r="34"></circle>
                        <g id="Group" transform="translate(22.000000, 22.000000)" fill="#FFCF7B" fill-rule="nonzero">
                            <g id="Combined-Shape">
                                <path d="M23.6462544,11.9686577 C23.8398162,11.9668921 23.9981711,12.1184413 24,12.3069501 L24,12.3133327 L23.9996952,12.3130359 C23.9919222,13.0887424 23.9074866,13.8634098 23.7457787,14.6221951 C23.5842232,15.3809803 23.3455478,16.123438 23.0346297,16.8351702 C22.7237116,17.5469025 22.3407031,18.2279093 21.8938345,18.8654254 C21.4469659,19.5029416 20.9362371,20.0971155 20.3718597,20.6369633 C19.8071775,21.1766627 19.1888467,21.6620359 18.5284505,22.0838801 C17.8680543,22.5057243 17.1657451,22.8640396 16.4346303,23.1515527 C15.7035154,23.4390658 14.9438998,23.6557767 14.1704147,23.797381 C13.3970821,23.9392822 12.6100324,24.0062251 11.8248117,23.9995456 C11.039591,23.9919756 10.2554372,23.9109316 9.48774377,23.7555231 C8.72005033,23.6004115 7.96866484,23.3712323 7.24867599,23.0727352 C6.52853473,22.7742381 5.83948528,22.4065716 5.19433016,21.9774542 C4.54917503,21.5484853 3.94791423,21.0582138 3.40167375,20.516288 C2.85558568,19.9742137 2.36451792,19.3806335 1.93776755,18.7466797 C1.51086476,18.1128743 1.14843176,17.4386954 0.857784269,16.7370566 C0.566984369,16.0354177 0.347969979,15.3064674 0.204703781,14.5641581 C0.0899688938,13.9704294 0.0237128495,13.3683411 0.0053113732,12.7653407 L0,12.325 L0.0140682909,12.7650189 C0.0441115175,13.3671596 0.121853243,13.9666593 0.24768364,14.5559943 C0.404666815,15.2926632 0.636636127,16.0134498 0.938866841,16.7044015 C1.24094514,17.3953532 1.61298003,18.0564701 2.04719854,18.6754322 C2.48126463,19.2943944 2.97751436,19.8713502 3.52588859,20.3956126 C4.07441524,20.9195782 4.67506639,21.3907019 5.31641125,21.8002262 C5.9577561,22.2097506 6.63979465,22.5573787 7.34957197,22.8362827 C8.0593493,23.1151868 8.79671299,23.3252183 9.54748883,23.4626665 C10.2982647,23.6002631 11.0623003,23.6649795 11.8249641,23.6583001 C12.5877804,23.65073 13.3489202,23.5717641 14.0940569,23.4208086 C14.8391935,23.2700015 15.5681746,23.0475017 16.2669783,22.7574653 C16.9657821,22.4675772 17.6345609,22.1105979 18.2605122,21.6939488 C18.886616,21.2772997 19.4701972,20.8012777 20.0002821,20.2750857 C20.5302146,19.7487452 21.0068033,19.1723831 21.4207512,18.5569834 C21.8348515,17.9417321 22.1863109,17.2874431 22.468271,16.6065847 C22.750231,15.9257264 22.9625394,15.2184471 23.1013856,14.4982542 C23.2125846,13.9220999 23.2766703,13.3378709 23.2943451,12.752483 L23.2989101,12.3133327 C23.2970812,12.124527 23.4526926,11.970306 23.6462544,11.9686577 Z M22.0793185,11.6305448 C22.0794709,11.6318807 22.0799281,11.6348493 22.0800805,11.6363336 C22.1608583,12.3301056 22.1727463,13.0311507 22.1136109,13.7262585 C22.0547803,14.4212179 21.9252311,15.1100916 21.7275542,15.7790754 C21.5300298,16.4480592 21.2645301,17.0973015 20.9371516,17.7144824 C20.6097731,18.3318118 20.2205158,18.9170798 19.7770002,19.4595994 C19.3333322,20.0019705 18.8355584,20.5015932 18.2932806,20.9489677 C17.7508504,21.3963423 17.1637638,21.7914687 16.5431468,22.1263317 C15.9225298,22.4613431 15.26823,22.7359426 14.5933548,22.9450835 C13.9184796,23.1545213 13.2230289,23.2983521 12.5208721,23.3761305 C11.8185629,23.4533153 11.1090904,23.4645961 10.4057143,23.4077466 C9.70249066,23.3511939 9.00551585,23.2266593 8.32865927,23.036963 C7.65165028,22.8472667 6.99475952,22.5924087 6.37017986,22.2780294 C5.7456002,21.96365 5.15333164,21.5898978 4.60419535,21.1643428 C4.05536388,20.7384909 3.5498171,20.2606878 3.09715687,19.7399877 C2.64449665,19.2194361 2.244723,18.6558392 1.90606609,18.0601809 C1.56725677,17.4645226 1.28941179,16.8366546 1.07786554,16.189045 C0.9085066,15.6709574 0.781481302,15.1401402 0.697179813,14.6034333 L0.643,14.213 L0.704985687,14.6022256 C0.799612096,15.1369044 0.93661116,15.6640405 1.1153586,16.177022 C1.3386405,16.8183974 1.62700182,17.4373595 1.97465097,18.0223307 C2.32230012,18.6073019 2.72908467,19.1581337 3.18662204,19.6647326 C3.64415941,20.1713316 4.15229718,20.6336978 4.70112865,21.0433706 C5.25011253,21.4527465 5.8397901,21.8095774 6.45888297,22.1067386 C7.07782343,22.4040483 7.72633159,22.6416882 8.39175736,22.8150569 C9.05718313,22.9884257 9.7395265,23.0972265 10.4256801,23.1398265 C11.1118338,23.1824265 11.8016453,23.1588258 12.4821597,23.0712509 C13.1626742,22.9830822 13.8337391,22.8310876 14.4822473,22.6167516 C15.1309079,22.4024155 15.7570116,22.125738 16.3485181,21.7920624 C16.9401771,21.4585354 17.4972387,21.0681588 18.0094916,20.6290964 C18.5218969,20.1900341 18.9894933,19.7024344 19.4038984,19.1757971 C19.8179987,18.6490113 20.1787552,18.0831879 20.4793094,17.4893108 C20.7798636,16.8954337 21.0202155,16.2733545 21.1953356,15.6350962 C21.370608,14.9968379 21.4804963,14.342252 21.5234761,13.6841038 C21.55786,13.1575852 21.549325,12.6287867 21.4991977,12.1039401 L21.4538244,11.7111434 C21.4309627,11.5426729 21.5525866,11.3883035 21.7252681,11.3661871 C21.8979496,11.3440707 22.0566093,11.4623711 22.0793185,11.6305448 Z M20.288491,11.2317075 C20.2887958,11.232895 20.2894055,11.2355668 20.2897103,11.2367542 C20.439835,11.8479979 20.5294526,12.4730457 20.5549052,13.1001716 C20.5806626,13.7272975 20.5424075,14.3563531 20.4412067,14.9751668 C20.3401583,15.5939805 20.1760118,16.2022555 19.9530347,16.7885625 C19.7300577,17.3748696 19.44825,17.9393571 19.1132509,18.471338 C18.7780995,19.0031705 18.3897566,19.5026447 17.9555381,19.9602611 C17.521472,20.4178775 17.0415303,20.8334875 16.5247051,21.1989275 C16.0080323,21.5645159 15.4544761,21.8796374 14.8751625,22.1386516 C14.2958488,22.3978141 13.6909302,22.6005725 13.0724469,22.7451454 C12.4538113,22.8891246 11.8211539,22.9749184 11.1865151,22.9994097 C10.5518763,23.0240494 9.91540862,22.9872383 9.28930485,22.8900152 C8.66320108,22.7929405 8.04776607,22.635454 7.45443064,22.4212664 C6.8610952,22.2072272 6.28985934,21.9366354 5.75154422,21.6149829 C5.2132291,21.2931819 4.70783473,20.9203203 4.24496298,20.5035228 C3.78193882,20.0868737 3.36143729,19.6261403 2.99184098,19.1302284 C2.62209226,18.6343165 2.30324876,18.1030778 2.04125451,17.5471994 C1.83153718,17.1024966 1.65839846,16.6419294 1.52261868,16.1715015 L1.429,15.824 L1.52941621,16.16956 C1.67416993,16.6370667 1.85589244,17.0933828 2.0734132,17.5325046 C2.34500933,18.0815552 2.67238784,18.6037395 3.04884264,19.0891127 C3.42529743,19.5746343 3.85067611,20.0231963 4.31644367,20.4267834 C4.78221122,20.8305189 5.28821524,21.189131 5.82470143,21.496534 C6.36118762,21.8036402 6.92815598,22.0593888 7.51463292,22.2587332 C8.10110987,22.458226 8.70709541,22.6013146 9.32100631,22.6850304 C9.93491721,22.7688945 10.5567535,22.793089 11.1744746,22.7577621 C11.7921958,22.7225837 12.4056495,22.6277355 13.0038621,22.4769285 C13.6017698,22.3253792 14.1841317,22.1180195 14.7393644,21.8572242 C15.2945971,21.5965773 15.8228531,21.2824948 16.3136161,20.9212109 C16.8045314,20.5600755 17.2582585,20.151887 17.6664148,19.7048093 C18.0747234,19.2578801 18.4374612,18.7723585 18.748227,18.2575957 C19.0588403,17.7426845 19.3173291,17.1988291 19.5189686,16.6361227 C19.7206082,16.0735648 19.8652461,15.492156 19.9498341,14.9033256 C20.0344221,14.3144952 20.0589603,13.7179463 20.0231437,13.1255535 C19.9946124,12.6515206 19.9274541,12.1801475 19.8235416,11.7166782 L19.7387451,11.37064 C19.6994231,11.2226532 19.7905648,11.0716977 19.942366,11.0334022 C20.0941672,10.9951067 20.249169,11.0838691 20.288491,11.2317075 Z M18.6436731,11.0667994 C18.6441304,11.0678384 18.6450448,11.0700649 18.6453496,11.0711039 C18.8482085,11.6011552 18.9984856,12.1499089 19.0920658,12.7074201 C19.1856461,13.2649314 19.2223771,13.8309032 19.2016492,14.3945001 C19.1810738,14.9579486 19.1030394,15.5188738 18.9698323,16.0664401 C18.8367777,16.6140063 18.6485503,17.1483621 18.4092652,17.6594141 C18.1696754,18.1703176 17.8790279,18.6580657 17.5428096,19.1131587 C17.2065912,19.5682517 16.8246496,19.9908381 16.4041481,20.3726056 C15.983799,20.7543732 15.5247375,21.095025 15.0364131,21.388327 C14.5480888,21.6816289 14.0305015,21.9274326 13.4943202,22.1226209 C12.957834,22.3172155 12.4024489,22.4614915 11.8383763,22.5511445 C11.2743037,22.640946 10.7015438,22.6761244 10.1312224,22.6560861 C9.56105339,22.6361962 8.99347539,22.5612379 8.43930954,22.4334378 C7.8851437,22.3056377 7.34439,22.1248474 6.82725999,21.8950744 C6.31012998,21.6650045 5.81677606,21.385952 5.35619048,21.0632605 C4.89560489,20.7404205 4.46809246,20.3739415 4.08203578,19.9703545 C3.69582669,19.5669158 3.35122576,19.1263692 3.05463425,18.6577688 C2.81723911,18.2828885 2.61066754,17.8899589 2.43640219,17.4842237 L2.317,17.191 L2.44226696,17.4817681 C2.6242382,17.8839266 2.83802795,18.2720827 3.08176338,18.6411444 C3.38628025,19.10262 3.73743485,19.5341123 4.12852109,19.9274576 C4.51945492,20.3209512 4.95001557,20.6761494 5.41151562,20.9869664 C5.87301567,21.2977833 6.36545512,21.5642191 6.87923209,21.7813753 C7.39316148,21.9983832 7.92827597,22.1662599 8.47466886,22.2817402 C9.02090934,22.3972204 9.57842823,22.4603041 10.1362519,22.4695069 C10.6940756,22.4787096 11.2523566,22.4340316 11.8001212,22.3365116 C12.3480382,22.2391401 12.8852864,22.0887783 13.4025688,21.8901761 C13.9196989,21.6909801 14.4165582,21.4435437 14.8830878,21.1512808 C15.3497699,20.8590178 15.7861221,20.5220768 16.1839144,20.1469887 C16.5818592,19.7719007 16.9410915,19.3588139 17.2553627,18.9158924 C17.5697863,18.4731192 17.8390962,18.0005112 18.0588727,17.507568 C18.2783443,17.0144763 18.4479776,16.5010494 18.5647243,15.976787 C18.681471,15.4526731 18.7451787,14.917872 18.7544758,14.382774 C18.7637729,13.847676 18.7185068,13.3122812 18.6197446,12.7868313 C18.5408568,12.3664714 18.4277313,11.9524763 18.2827874,11.5495578 L18.1681513,11.2495194 C18.1163316,11.1215709 18.1808014,10.9769979 18.3121795,10.926531 C18.4434053,10.8760641 18.5918534,10.9388509 18.6436731,11.0667994 Z M17.1558384,11.0951499 C17.1562956,11.0960405 17.1573625,11.0979702 17.1578198,11.0988607 L17.1576673,11.0991576 C17.3984765,11.5508367 17.5946292,12.024929 17.7409437,12.512974 C17.8874105,13.001019 17.9838866,13.5027197 18.0288478,14.0082796 C18.073809,14.5138396 18.0674077,15.0232588 18.0101012,15.5265923 C17.9529472,16.0299257 17.8448879,16.5273219 17.6886667,17.0094296 C17.5322932,17.4913889 17.327453,17.9580596 17.0784137,18.4005359 C16.8293744,18.8430122 16.5356787,19.261294 16.2031182,19.6472176 C15.8705577,20.0331413 15.4989801,20.3865583 15.095701,20.7006407 C14.6925743,21.0148716 14.2578985,21.2896196 13.8008184,21.5213222 C13.3435858,21.7525795 12.8636441,21.940643 12.3698329,22.0810599 C11.8760218,22.2214767 11.3683412,22.3140984 10.856698,22.3571437 C10.3450548,22.4003375 9.82960131,22.3939549 9.32024425,22.3388865 C8.81088719,22.2839666 8.30747416,22.1802126 7.81960703,22.0301476 C7.33189232,21.8799343 6.85957109,21.6834101 6.41194043,21.4441374 C5.96415736,21.2050132 5.54106484,20.9231405 5.15074065,20.6040114 C4.76041647,20.2848822 4.40286062,19.9281997 4.085084,19.5412371 C3.84675153,19.2510151 3.63070915,18.943844 3.43869292,18.6232931 L3.255,18.299 L3.44489175,18.6196983 C3.64290202,18.9363946 3.86431688,19.2389179 4.10733598,19.5235736 C4.43136145,19.9032631 4.79364204,20.2511881 5.18716685,20.5608176 C5.58069166,20.8704471 6.00530828,21.1419296 6.45263413,21.3702182 C6.89995997,21.5986553 7.36984262,21.7838987 7.85328983,21.923128 C8.33673704,22.0620606 8.83374882,22.1548307 9.33487569,22.1996572 C9.83585015,22.2444837 10.3409397,22.2413666 10.8403901,22.1898607 C11.3398404,22.1385031 11.8333467,22.0390536 12.3117644,21.8932932 C12.7901821,21.7476812 13.2532062,21.5560553 13.6930639,21.3234621 C14.1326168,21.0902752 14.548546,20.816121 14.9323165,20.5051556 C15.3162395,20.1943386 15.6681561,19.8467105 15.9813604,19.469099 C16.2945647,19.0914876 16.5689042,18.6841897 16.7998067,18.2549239 C17.0307091,17.8258065 17.2181744,17.3748696 17.3588497,16.9110191 C17.4993725,16.4471686 17.5931051,15.970256 17.6383712,15.4896327 C17.6836372,15.0090093 17.6802841,14.5245267 17.628312,14.0455361 C17.5763399,13.5665455 17.4755964,13.0930469 17.3282151,12.6342431 C17.2177934,12.2900289 17.081138,11.954164 16.9203708,11.6297168 L16.7516448,11.3091891 C16.6909853,11.2003883 16.7322887,11.0644245 16.8438534,11.0053485 C16.9554181,10.9462725 17.0951789,10.9864976 17.1558384,11.0951499 Z M15.7830824,11.2336431 L15.8297116,11.2795027 C15.8303213,11.2802449 15.8313881,11.2818776 15.8319978,11.2826198 C16.0978023,11.6605281 16.3264186,12.0630761 16.512055,12.483436 C16.6978438,12.9036475 16.8405004,13.3415223 16.9375861,13.7884516 C17.0348242,14.2352324 17.0863391,14.6910676 17.0918259,15.1467544 C17.0974651,15.6025895 17.0569238,16.0584247 16.9717261,16.5056508 C16.8862236,16.952877 16.7559123,17.3916424 16.5832309,17.8134867 C16.4105494,18.2353309 16.1953452,18.6404023 15.9417336,19.020537 C15.6881219,19.4008202 15.3959503,19.7561669 15.0711628,20.079749 C14.7463753,20.4034795 14.3891243,20.6954456 14.0068779,20.9511942 C13.624479,21.2064976 13.2169324,21.4258803 12.7915537,21.6039989 C12.3661751,21.7822659 11.9231167,21.9191204 11.4710662,22.0123358 C11.0188632,22.1055512 10.5578203,22.1549791 10.0964727,22.1601742 C9.63527748,22.1655178 9.17392984,22.1266286 8.72126962,22.044694 C8.26860939,21.962611 7.82463659,21.8374827 7.3977338,21.671684 C6.97083101,21.5058852 6.56099824,21.2994161 6.17646567,21.0558389 C5.79178069,20.8124101 5.43224349,20.5320218 5.10486499,20.2203142 C4.8592168,19.9865336 4.63165788,19.7351359 4.42405287,19.4693147 L4.23,19.207 L4.42919674,19.4654833 C4.641717,19.7272133 4.87350532,19.9737684 5.12269706,20.2022055 C5.4548003,20.5067883 5.81769053,20.7788645 6.20420444,21.0133873 C6.59056595,21.2480586 7.00055113,21.445028 7.4257774,21.6011787 C7.85100367,21.7574778 8.29162343,21.8728095 8.7392541,21.9455413 C9.18688476,22.0179762 9.6412215,22.0478111 10.0938817,22.0343037 C10.5465419,22.0207964 10.9973732,21.9640953 11.4375358,21.8647942 C11.8778507,21.7656415 12.3076493,21.6238888 12.718549,21.4428016 C13.129601,21.2617143 13.5216017,21.0409957 13.8883022,20.7861377 C14.2546979,20.5308343 14.5953361,20.24154 14.9032061,19.9228562 C15.2112284,19.6041723 15.48633,19.2560989 15.7236337,18.8853153 C15.9609374,18.5146802 16.1601383,18.121335 16.318036,17.7132949 C16.4759336,17.3052549 16.5926803,16.8825201 16.6661424,16.4531059 C16.739452,16.0236916 16.7694769,15.5877463 16.7557599,15.1534338 C16.742043,14.7192697 16.6845841,14.2867384 16.5841453,13.8644489 C16.483859,13.4421594 16.3404404,13.0299632 16.1570901,12.6358758 C16.0196917,12.340199 15.8597461,12.0547917 15.6795679,11.7821589 L15.4927312,11.5138771 C15.4262801,11.423185 15.4479224,11.2973146 15.5408931,11.2325981 C15.6152696,11.180825 15.7129588,11.1839599 15.7830824,11.2336431 Z M14.6659024,11.5858667 L14.6681885,11.58839 C14.9483197,11.8975742 15.1979686,12.2327341 15.411039,12.5883775 C15.6242618,12.944021 15.8012108,13.3198513 15.9382281,13.7085951 C16.0753979,14.0973389 16.1727884,14.4989964 16.229028,14.9055521 C16.2852676,15.3121078 16.3005087,15.7235618 16.2747513,16.1323439 C16.2488414,16.5409777 16.1817807,16.9469397 16.0749407,17.3422145 C15.9682531,17.7374894 15.8216338,18.122374 15.6378264,18.4890014 C15.4541713,18.8557773 15.2331756,19.2044445 14.9794115,19.528175 C14.7257998,19.852054 14.4394198,20.1509964 14.1268252,20.4202524 C13.8139257,20.6892115 13.4746592,20.928781 13.1148172,21.1333205 C12.7549751,21.3380084 12.3745577,21.5076664 11.9811853,21.6390289 C11.5878129,21.7705398 11.1813331,21.864052 10.7699762,21.9179329 C10.358467,21.9719622 9.94208052,21.9865086 9.52843747,21.9617204 C9.11479443,21.9367838 8.7041996,21.8723642 8.30412112,21.7697976 C7.90404264,21.667231 7.51478533,21.5265173 7.14381733,21.3501799 C6.77269691,21.1738425 6.42001821,20.9617329 6.09248729,20.7183042 C5.8467248,20.5357326 5.61519367,20.3354605 5.39982285,20.1201805 L5.196,19.906 L5.40398557,20.1162656 C5.62332859,20.3273988 5.85823182,20.5228561 6.10650909,20.7001954 C6.43754545,20.9367963 6.79235791,21.141039 7.16393556,21.309361 C7.53551321,21.4776831 7.92385605,21.6099362 8.32134355,21.7040422 C8.71883104,21.7981482 9.12546319,21.8541071 9.53331462,21.8713252 C9.94131846,21.8882465 10.3505416,21.8662785 10.7533635,21.8058666 C11.1561853,21.7454547 11.5524535,21.6465989 11.9345475,21.5109319 C12.3166415,21.3752649 12.6845613,21.2027867 13.031296,20.9970598 C13.3780307,20.7913328 13.7034279,20.552357 14.0021531,20.2856244 C14.300726,20.0184465 14.5723221,19.7236602 14.8116071,19.4060154 C15.0508922,19.0883705 15.2574089,18.7480156 15.4274994,18.3914815 C15.5977423,18.0349475 15.7314066,17.6623827 15.826511,17.2810605 C15.9216154,16.8997382 15.9783122,16.5095101 15.9955346,16.1180945 C16.0126046,15.7266788 15.9903526,15.3340758 15.9292359,14.9475584 C15.8681191,14.5611895 15.7679852,14.1810547 15.6308155,13.8144272 C15.4936457,13.4479482 15.3191353,13.0949765 15.1110945,12.7624885 C14.9550639,12.5131224 14.7800867,12.2751949 14.5884134,12.0508977 L14.391258,11.8312251 C14.3217587,11.7573058 14.3267882,11.6425678 14.4026888,11.5747343 C14.4785894,11.5070492 14.596403,11.5119475 14.6659024,11.5858667 Z M13.6606004,11.9838133 C13.6612101,11.9842586 13.6624293,11.9852976 13.663039,11.9858914 C13.9481997,12.2319919 14.2089746,12.5048102 14.4394198,12.7997449 C14.6700175,13.0946797 14.8702853,13.4115823 15.0364131,13.7442188 C15.2026934,14.0768553 15.3348336,14.4252256 15.4310048,14.7823534 C15.5270237,15.1394812 15.5870735,15.5055149 15.6100876,15.8733298 C15.6329492,16.2411447 15.618775,16.6108892 15.5678698,16.9754386 C15.517117,17.339988 15.4294807,17.6993423 15.3066376,18.0465252 C15.1837944,18.393708 15.0257444,18.7288678 14.8355356,19.0451768 C14.6454793,19.3616342 14.4232643,19.6592406 14.1743774,19.9332464 C13.9251856,20.2069553 13.6490172,20.4570635 13.3505967,20.6782275 C13.0521763,20.8993914 12.7315039,21.0916111 12.3948283,21.2511756 C12.0581527,21.4107402 11.7057789,21.5375013 11.3442603,21.6296777 C10.9827418,21.721854 10.6123834,21.7792973 10.2401961,21.8014137 C9.86785643,21.8232332 9.49384021,21.8097259 9.12500595,21.7607433 C8.7561717,21.7119091 8.39251941,21.627748 8.04121241,21.5098929 C7.6899054,21.3920378 7.35094367,21.2401917 7.03088089,21.0576201 C6.7908338,20.9208027 6.56141737,20.7666188 6.34475344,20.5973227 L6.148,20.436 L6.34798265,20.5933521 C6.56767574,20.7585014 6.79952122,20.9080376 7.04139724,21.0399567 C7.36374618,21.2158488 7.70362238,21.3605701 8.05462456,21.4711521 C8.40547434,21.5817341 8.76729769,21.6584735 9.13293132,21.7000345 C9.49856495,21.7415955 9.86816125,21.748275 10.2344045,21.7199244 C10.6008002,21.6914254 10.9638428,21.6281933 11.3168264,21.5311187 C11.6698099,21.4341925 12.0127343,21.3034238 12.3387411,21.1414843 C12.6649003,20.9795448 12.9741419,20.7861377 13.2605219,20.5652706 C13.5470543,20.344552 13.8108775,20.0962249 14.047724,19.82593 C14.2842656,19.5553381 14.4938305,19.2630752 14.671694,18.9537426 C14.8495574,18.6444099 14.9958719,18.3183045 15.1077414,17.9816603 C15.219611,17.6450161 15.2970357,17.2979817 15.3391011,16.9470881 C15.3811665,16.5961945 15.3877202,16.2417384 15.3590669,15.8902511 C15.3302613,15.5387637 15.2660963,15.1903934 15.1679437,14.8516712 C15.0697911,14.512949 14.9376509,14.1841718 14.7736568,13.8714252 C14.6098152,13.5586786 14.4142721,13.2621111 14.1908378,12.9873632 C14.0233763,12.7811909 13.8402261,12.5873756 13.6437662,12.4074828 L13.4429577,12.2322888 C13.3725439,12.1736581 13.3641613,12.0706461 13.4242112,12.0020705 C13.4842611,11.9334948 13.5901866,11.925331 13.6606004,11.9838133 Z M12.8077093,12.4467732 L12.8099955,12.4482576 L12.8101479,12.4482576 C13.0925652,12.637657 13.3560835,12.8534774 13.5952162,13.0923047 C13.8343488,13.3311321 14.0489433,13.592818 14.2348845,13.8721673 C14.4208257,14.1515167 14.5782661,14.4485294 14.7041575,14.7574168 C14.8302013,15.0661557 14.9250008,15.3867692 14.987032,15.7128746 C15.0489108,16.0389801 15.0778689,16.370726 15.073449,16.7018782 C15.0690291,17.0328819 15.0313836,17.3632919 14.960665,17.6865772 C14.8900987,18.0098624 14.7866118,18.3260229 14.6523378,18.628973 C14.5182163,18.931923 14.3533077,19.2215142 14.1617273,19.4928482 C13.9699944,19.7638853 13.7514373,20.0169622 13.5097137,20.2464383 C13.2679901,20.4759144 13.0032524,20.6819383 12.7205303,20.8603537 C12.4378082,21.0387692 12.137254,21.1897247 11.8246593,21.3106969 C11.5122171,21.4316691 11.1877344,21.5226581 10.8577649,21.5820309 C10.527643,21.6412554 10.1918819,21.6691606 9.85688285,21.6648561 C9.52188381,21.6607 9.18764681,21.6243341 8.86057313,21.5565006 C8.53349945,21.4886671 8.21358908,21.389366 7.90709086,21.2605269 C7.6772172,21.1638975 7.45488787,21.0507365 7.24228902,20.9226094 L7.036,20.791 L7.2448038,20.9186296 C7.45968881,21.0426934 7.68361845,21.1515405 7.91440658,21.2436056 C8.22212408,21.366359 8.54218687,21.4592775 8.86804126,21.52058 C9.19389566,21.5818825 9.52584649,21.6117174 9.85718767,21.6097877 C10.1885289,21.6078581 10.5194128,21.5743125 10.8434383,21.5098929 C11.1674637,21.4453249 11.4847831,21.3500315 11.7891476,21.2256453 C12.0935121,21.1012591 12.3852264,20.9479287 12.6581943,20.7684742 C12.9313145,20.5890197 13.1856882,20.3831443 13.4167431,20.1553009 C13.6477979,19.9274576 13.8555339,19.6774978 14.036598,19.4107652 C14.2175097,19.1438842 14.3717494,18.8602303 14.4958119,18.5649987 C14.6198743,18.2697671 14.7137594,17.9628094 14.7757906,17.6500628 C14.8378218,17.3374647 14.8679992,17.0190777 14.8658654,16.701136 C14.8638841,16.3831943 14.8298964,16.0658463 14.7646646,15.7548809 C14.6992803,15.4439156 14.6028043,15.1396296 14.4770653,14.8476635 C14.3513264,14.5556975 14.1961721,14.2759028 14.0144984,14.0140685 C13.8329771,13.7522342 13.6247839,13.5080632 13.3943387,13.2866024 C13.2215048,13.1203955 13.0360684,12.9667961 12.8403443,12.8270565 L12.6412767,12.6919832 C12.5717773,12.6471567 12.5527259,12.5560193 12.5986016,12.4883343 C12.6446297,12.4206492 12.73821,12.4020952 12.8077093,12.4467732 Z M12.0980844,12.951591 C12.098694,12.9518879 12.0997609,12.9524816 12.1003705,12.9527785 C12.3737956,13.0915626 12.6335037,13.2561739 12.874008,13.4439405 C13.1145123,13.6317072 13.3356605,13.8424809 13.5333374,14.0722539 C13.7310142,14.3020269 13.904915,14.5505023 14.0522963,14.8129304 C14.1996776,15.0753585 14.320387,15.3514423 14.4125955,15.6362836 C14.5044993,15.9209765 14.5679022,16.2142785 14.6011278,16.5105491 C14.6345057,16.8068197 14.6380112,17.1059105 14.6113393,17.4023296 C14.5846674,17.6987486 14.5278181,17.992199 14.4420108,18.2771887 C14.3563559,18.5621785 14.2415906,18.8384108 14.1010678,19.1012841 C13.9602401,19.3640091 13.7936551,19.6132267 13.6035988,19.8440387 C13.4135424,20.0748507 13.2001672,20.2871087 12.9677407,20.4766566 C12.7353141,20.6663529 12.4838362,20.8331907 12.2181841,20.9746465 C11.9526844,21.1161024 11.6731629,21.2320279 11.384954,21.320345 C11.0967451,21.4085137 10.8000012,21.4692225 10.500209,21.5012838 C10.2004169,21.5333452 9.89772896,21.5366107 9.59793682,21.5109319 C9.29814468,21.4852532 9.00124834,21.4307786 8.71288702,21.3483987 C8.42452569,21.2660188 8.14500419,21.1560306 7.87904726,21.0211058 C8.14759518,21.1511324 8.4287932,21.255777 8.71745934,21.3325165 C9.00612549,21.4092559 9.30241218,21.4580901 9.6005278,21.47798 C9.89864342,21.4980183 10.1982832,21.4891124 10.4941126,21.4520044 C10.7899421,21.4148963 11.0816564,21.3495862 11.3639213,21.2574098 C11.6461862,21.165085 11.9188492,21.0460424 12.1767284,20.9025085 C12.4346075,20.7589746 12.6778553,20.5908009 12.9015944,20.401253 C13.1253335,20.2117052 13.3294116,20.0007831 13.5101709,19.7724944 C13.6909302,19.5443542 13.8483706,19.2988473 13.9800536,19.0411691 C14.1115841,18.7833424 14.2173572,18.5136412 14.2949344,18.2365183 C14.3725115,17.9595439 14.4218926,17.6752963 14.4420108,17.389416 C14.4621291,17.1035356 14.4532892,16.8158741 14.4156438,16.5322202 C14.3781507,16.2484179 14.3120044,15.9686233 14.2187289,15.6977346 C14.1253011,15.4269943 14.0048965,15.1654568 13.859649,14.9180204 C13.7144014,14.670584 13.5443109,14.437397 13.3525781,14.2227641 C13.1608452,14.0082796 12.94747,13.8124976 12.7165676,13.6391288 C12.5627343,13.5235497 12.401111,13.4179319 12.2332333,13.3228914 L11.9769178,13.1883404 C11.9097046,13.1556853 11.882423,13.0762741 11.9159534,13.0109639 C11.9494838,12.9456538 12.0308712,12.918936 12.0980844,12.951591 Z M11.5205997,13.4774862 C11.5210569,13.4776346 11.5222762,13.4780799 11.5227334,13.4782284 C11.7827463,13.5736703 12.0333098,13.6930097 12.2693942,13.8350593 C12.5053262,13.9771089 12.7267791,14.1417202 12.9290283,14.3259245 C13.1314299,14.5099804 13.3147802,14.7134809 13.4760309,14.9321214 C13.6372816,15.150762 13.7762802,15.3845427 13.8905884,15.6290105 C14.0047441,15.8736267 14.0943617,16.1287816 14.1574598,16.3897253 C14.2207103,16.6508175 14.2574413,16.9175501 14.2668908,17.1851733 C14.2764927,17.4527965 14.2586606,17.7210134 14.2141566,17.9846289 C14.1696526,18.2483929 14.0983244,18.507407 14.0024579,18.7572184 C13.9062867,19.0068813 13.7854249,19.2473414 13.6417015,19.4738489 C13.497978,19.7003564 13.3312406,19.9127628 13.1449945,20.1069121 C12.9587485,20.3010613 12.7528414,20.4771019 12.5315408,20.6317682 C12.3102403,20.7864345 12.0735462,20.919875 11.8261834,21.0295664 C11.5786682,21.1391093 11.3204842,21.2250516 11.0562038,21.2856119 C10.7920758,21.3461722 10.5220038,21.3814991 10.2513221,21.3905534 C9.98064046,21.3997562 9.70919674,21.3826865 9.44247775,21.3397896 C9.17560636,21.2970412 8.9134597,21.2286139 8.66076251,21.1364376 C8.91528863,21.2238641 9.17819734,21.2873931 9.44476392,21.3250949 C9.71133049,21.3627966 9.98155493,21.3748196 10.2499504,21.3607186 C10.5184983,21.3467659 10.7852173,21.3068377 11.0452302,21.2421213 C11.3052431,21.1774048 11.55855,21.0879002 11.8002736,20.9753887 C12.0419972,20.8628771 12.2721376,20.7273585 12.4864272,20.5715047 C12.7007169,20.415651 12.8990034,20.239462 13.0774765,20.0463517 C13.2559496,19.8530931 13.4146093,19.6429131 13.550255,19.4196711 C13.686053,19.1964292 13.7989895,18.960422 13.8876926,18.7162511 C13.9760909,18.4719317 14.0402558,18.2195971 14.0783585,17.9638484 C14.1164613,17.7080998 14.1285017,17.4489373 14.1143275,17.1914074 C14.1001533,16.9338776 14.0597644,16.6778322 13.9942278,16.4284661 C13.9286911,16.1789516 13.8381591,15.9359682 13.7243081,15.7041171 C13.6104572,15.4722661 13.4732875,15.251399 13.3156947,15.0459689 C13.1581018,14.8403904 12.9799336,14.6502488 12.7843904,14.4791065 C12.5889997,14.3079642 12.3763866,14.1558212 12.1505137,14.0256462 C12.0000334,13.9388629 11.8437954,13.8617771 11.6831543,13.7948287 L11.4390599,13.7020641 C11.3753521,13.6800961 11.3421266,13.6121142 11.364531,13.5500695 C11.3870878,13.4880249 11.4568919,13.4556667 11.5205997,13.4774862 Z M13.8686252,1.34378072 C14.4387942,1.36367085 15.0063722,1.43862995 15.560538,1.56643149 C16.1147039,1.69423304 16.6554576,1.87502546 17.1725876,2.10480106 C17.6897176,2.33487353 18.1830715,2.61392917 18.6436571,2.93662436 C19.1042427,3.25946798 19.5317551,3.62595115 19.9178118,4.02954279 C20.3040209,4.43298599 20.6486218,4.87353766 20.9452133,5.34214332 C21.1826085,5.71702785 21.38918,6.10996194 21.5634454,6.51570171 L21.679,6.8 L21.5575806,6.5181574 C21.3756094,6.11599429 21.1618196,5.72783383 20.9180842,5.35876791 C20.6135673,4.89728707 20.2624127,4.46578987 19.8713265,4.07244017 C19.4803927,3.67894204 19.049832,3.32373983 18.588332,3.01291935 C18.1268319,2.70209887 17.6343925,2.43566011 17.1206155,2.21850139 C16.6066861,2.0014911 16.0715716,1.83361242 15.5251787,1.71813088 C14.9789382,1.60264935 14.4214194,1.53956496 13.8635957,1.53036207 C13.3057719,1.52101073 12.747491,1.56583776 12.1997264,1.66335879 C11.6518094,1.7607314 11.1145612,1.91109489 10.5972787,2.10969938 C10.0801487,2.30889761 9.58328937,2.55633683 9.11675976,2.84860308 C8.65007774,3.14086933 8.21372548,3.47781417 7.81593316,3.85290651 C7.41798843,4.22799885 7.05875606,4.64109025 6.74448489,5.08401685 C6.43006131,5.52679503 6.16075134,5.9994084 5.9409749,6.49235722 C5.72150327,6.98545447 5.55187,7.49888715 5.43512329,8.02315551 C5.31837658,8.54727543 5.25466884,9.08208259 5.24537178,9.61718662 C5.23607472,10.1522906 5.28134074,10.6876915 5.38010297,11.2131474 C5.45899083,11.633512 5.57211626,12.0475118 5.71706019,12.4504349 L5.83169632,12.7504767 C5.88351601,12.8784267 5.81904622,13.0230013 5.68766806,13.0734688 C5.55644232,13.1239363 5.40799416,13.0611488 5.35617447,12.9331988 C5.35571724,12.9321598 5.35480277,12.9299333 5.35449795,12.9288942 C5.15163911,12.398837 5.00136201,11.850077 4.90778175,11.2925595 C4.81420149,10.7350419 4.77747047,10.1690637 4.79819835,9.60546034 C4.81877381,9.04200545 4.89680817,8.48107393 5.03001525,7.93350146 C5.16306992,7.38592899 5.35129732,6.85156713 5.59058235,6.34050939 C5.83017221,5.82960008 6.1208197,5.34184645 6.45703803,4.88674827 C6.79325636,4.43165009 7.17519795,4.00905892 7.59569948,3.62728706 C8.01604861,3.2455152 8.47511008,2.90485951 8.96343444,2.61155422 C9.4517588,2.31824894 9.96934605,2.07244248 10.5055274,1.87725197 C11.0420136,1.68265519 11.5973987,1.53837749 12.1614713,1.44872345 C12.7255438,1.35892097 13.2983038,1.32374215 13.8686252,1.34378072 Z M14.6796033,1.66113229 C15.1889604,1.71605281 15.6923734,1.81980807 16.1802406,1.96987469 C16.6679553,2.12008975 17.1402765,2.31661617 17.5879072,2.55589153 C18.0356902,2.79501846 18.4587828,3.07689434 18.8491069,3.39602712 C19.2394311,3.7151599 19.596987,4.07184644 19.9147636,4.45881348 C20.1530961,4.74903877 20.3691384,5.05621334 20.5611547,5.37676783 L20.744,5.7 L20.5549558,5.38036272 C20.3569456,5.06366286 20.1355307,4.76113612 19.8925116,4.47647711 C19.5684861,4.09678332 19.2062056,3.74885438 18.8126807,3.43922137 C18.4191559,3.12958836 17.9945393,2.85810285 17.5472135,2.62981159 C17.0998876,2.40137189 16.630005,2.21612645 16.1465578,2.0768955 C15.6631105,1.93796142 15.1660988,1.84519026 14.6649719,1.80036324 C14.1639974,1.75553622 13.6589079,1.75865333 13.1594575,1.81015987 C12.6600072,1.86151798 12.1665008,1.96096866 11.6880832,2.1067307 C11.2096655,2.25234431 10.7466414,2.44397241 10.3067837,2.67656825 C9.86723078,2.90975783 9.45130157,3.18391515 9.06753105,3.49488406 C8.68360812,3.80570454 8.33169147,4.15333662 8.01848718,4.53095233 C7.70528288,4.90856804 7.43094336,5.31587053 7.20004092,5.74514122 C6.96913848,6.17426348 6.78167314,6.62520551 6.64099793,7.08906129 C6.50047512,7.55291707 6.40674245,8.02983503 6.36147643,8.51046384 C6.31621041,8.99109264 6.31956345,9.47558072 6.37153554,9.95457676 C6.42350764,10.4335728 6.52425122,10.9070768 6.67163251,11.3658858 C6.78205417,11.7101039 6.91870954,12.0459726 7.07947679,12.3704235 L7.24820275,12.6909548 C7.30886227,12.7997568 7.26755893,12.9357222 7.15599418,12.9947989 C7.04442944,13.0538755 6.90466869,13.01365 6.84400918,12.9049964 C6.84355194,12.9041058 6.84248507,12.9021761 6.84202784,12.9012855 L6.84218025,12.9009887 C6.6013711,12.4493045 6.40521834,11.9752067 6.25890393,11.4871563 C6.1124371,10.9991058 6.01596103,10.4973993 5.97099983,9.99183365 C5.92603863,9.48626796 5.93243989,8.97684299 5.98974637,8.47350381 C6.04690044,7.97016462 6.15495973,7.47276279 6.31118085,6.99064965 C6.46755438,6.50868494 6.67239456,6.04200892 6.92143389,5.59952761 C7.17047322,5.15704631 7.46416892,4.73875972 7.79672939,4.35283171 C8.12928987,3.9669037 8.50086752,3.61348271 8.90414662,3.29939668 C9.30727332,2.98516222 9.74194906,2.71041117 10.1990292,2.47870593 C10.6562617,2.24744599 11.1362035,2.0593803 11.6300147,1.91896188 C12.1238258,1.77854346 12.6315063,1.68592074 13.1431496,1.64287492 C13.6547928,1.59968067 14.1702463,1.60606333 14.6796033,1.66113229 Z M14.7105427,1.1099974 C15.3366465,1.20707314 15.9520815,1.36456146 16.545417,1.5787515 C17.1387524,1.79279311 17.7099882,2.06338802 18.2483034,2.38504417 C18.7866185,2.70684876 19.2920129,3.07971459 19.7548846,3.49651684 C20.2179088,3.91317065 20.6384103,4.37390932 21.0080066,4.86982681 C21.3777553,5.3657443 21.6965988,5.89698905 21.9585931,6.45287381 C22.1683104,6.89758163 22.3414491,7.35815405 22.4772289,7.82858723 L22.57,8.175 L22.4704314,7.83052875 C22.3256777,7.36301674 22.1439552,6.90669547 21.9264344,6.46756877 C21.6548383,5.91851196 21.3274598,5.39632167 20.951005,4.91094299 C20.5745502,4.42541586 20.1491715,3.97684877 19.6834039,3.57325714 C19.2176364,3.16951706 18.7116323,2.81090088 18.1751462,2.50349438 C17.6385076,2.19638475 17.0716916,1.94063323 16.4852147,1.74128657 C15.8987377,1.54179147 15.2927522,1.39870124 14.6788413,1.31498455 C14.0649304,1.23111942 13.4430941,1.20692471 12.8253729,1.24225196 C12.2076518,1.27743079 11.5941981,1.37228002 10.9959855,1.52308881 C10.3980778,1.67463977 9.81571591,1.88200185 9.26048319,2.14280013 C8.70525047,2.40344997 8.17699446,2.71753599 7.68623153,3.07882398 C7.19531618,3.43996354 6.74158909,3.84815662 6.33343283,4.29523938 C5.92512417,4.7421737 5.56238635,5.22770082 5.25162063,5.74246941 C4.94100732,6.25738643 4.68251852,6.80124806 4.48087896,7.36396078 C4.27923941,7.92652507 4.13460151,8.50794046 4.05001349,9.09677754 C3.96542547,9.68561462 3.94088732,10.2821703 3.97670387,10.8745698 C4.00523518,11.3486081 4.0723935,11.8199865 4.176306,12.2834611 L4.26110252,12.6295032 C4.30042452,12.7774917 4.20928283,12.9284489 4.05748162,12.9667449 C3.90568042,13.0050408 3.75067858,12.9162774 3.71135659,12.7684372 C3.71105176,12.7672498 3.71044212,12.764578 3.7101373,12.7633905 L3.70998489,12.7632421 C3.56001261,12.1521399 3.47039503,11.527085 3.44494242,10.8999519 C3.41918499,10.2728189 3.45744011,9.64375628 3.55864091,9.02493556 C3.65968931,8.40611484 3.82383579,7.79783292 4.04681286,7.21151922 C4.26978994,6.62520551 4.5515976,6.06071158 4.88659664,5.52872467 C5.2217481,4.99688619 5.61009094,4.49740628 6.04430945,4.03978472 C6.47837555,3.58216317 6.95831731,3.16654839 7.4751425,2.80110425 C7.99181528,2.43551168 8.54537148,2.12038662 9.12468512,1.86136955 C9.70399876,1.60220405 10.3089174,1.39944341 10.9274006,1.25486884 C11.5460363,1.11088801 12.1786937,1.02509324 12.8133325,1.00060166 C13.4479713,0.975961638 14.084439,1.01277323 14.7105427,1.1099974 Z M13.9033749,1.83969821 C14.3645701,1.83435459 14.8259178,1.87324426 15.278578,1.95517974 C15.7312382,2.03726366 16.175211,2.1623934 16.6021138,2.32819401 C17.0290166,2.49399462 17.4388493,2.7004661 17.8233819,2.94404605 C18.2080669,3.18747756 18.5676041,3.4678691 18.8949826,3.77958019 C19.1406308,4.0133635 19.3681897,4.26476405 19.5757947,4.53058821 L19.769,4.792 L19.5706509,4.53441965 C19.3581306,4.27268671 19.1263423,4.02612881 18.8771505,3.79768912 C18.5450473,3.49310286 18.1821571,3.22102361 17.7956431,2.98649813 C17.4092816,2.75182421 16.9992965,2.55485249 16.5740702,2.39870008 C16.1488439,2.24239924 15.7082242,2.12706614 15.2605935,2.05433355 C14.8129628,1.98189784 14.3586261,1.95206263 13.9059659,1.96557011 C13.4533056,1.97907759 13.0024744,2.03577932 12.5623118,2.13508157 C12.1219969,2.23423538 11.6921983,2.37598971 11.2812986,2.557079 C10.8702466,2.7381683 10.4782459,2.95888943 10.1115454,3.21375035 C9.74514969,3.46905657 9.40451144,3.75835415 9.09664153,4.07704162 C8.7886192,4.3957291 8.51351762,4.74380647 8.27636634,5.11459423 C8.03906264,5.48523355 7.83986166,5.87858325 7.68196402,6.2866279 C7.52406639,6.69467256 7.40731967,7.11741216 7.33385765,7.54683128 C7.26054803,7.97625041 7.23052309,8.41220063 7.24424007,8.84651807 C7.25795704,9.28068708 7.31541593,9.71322332 7.41585468,10.1355176 C7.51614102,10.5578119 7.65955963,10.9700127 7.84290988,11.3641046 C7.98030826,11.6597848 8.14025392,11.9451953 8.32043212,12.2178312 L8.50726877,12.4861161 C8.5737199,12.5768091 8.55207756,12.702681 8.45910694,12.7673982 C8.36613633,12.8321154 8.23673952,12.8110378 8.17028839,12.7204931 C8.16967874,12.7197509 8.16861187,12.7181182 8.16800222,12.717376 C7.90204529,12.3394634 7.67342902,11.9369108 7.4877926,11.5165462 C7.30200378,11.0963299 7.15934722,10.6584501 7.06226151,10.2115158 C6.96502339,9.76472986 6.91350852,9.30888951 6.90802173,8.85319759 C6.90238253,8.39735724 6.94292382,7.94151689 7.02812148,7.4942857 C7.11362397,7.04705451 7.24393524,6.60828405 7.41661674,6.18643505 C7.58929823,5.76458605 7.80450235,5.35951008 8.058114,4.97937099 C8.31172565,4.59908347 8.60389725,4.24373283 8.92868477,3.92014704 C9.25347229,3.59641282 9.61072332,3.30444343 9.99296973,3.04869191 C10.3753685,2.79338569 10.7829152,2.57400046 11.2082938,2.39587984 C11.6336725,2.21761079 12.0767309,2.08075478 12.5287814,1.98753832 C12.9809844,1.89432186 13.4420272,1.84489339 13.9033749,1.83969821 Z M13.5939809,0.592260137 C14.2972045,0.648813434 14.9941793,0.773349433 15.6710359,0.963047893 C16.3480449,1.15274635 17.0049357,1.40760727 17.6295153,1.72199017 C18.254095,2.03637306 18.8463635,2.41012949 19.3954998,2.83568934 C19.9443313,3.26154605 20.4498781,3.73935461 20.9025383,4.26006056 C21.3551985,4.78061807 21.7549722,5.34422139 22.0936291,5.93988643 C22.4324384,6.53555147 22.7102834,7.16342665 22.9218296,7.81104354 C23.0911886,8.32913704 23.2182139,8.85996024 23.3025154,9.39667329 L23.355,9.786 L23.2947095,9.39788095 C23.2000831,8.8631961 23.063084,8.33605406 22.8843366,7.82306668 C22.6610547,7.18168402 22.3726934,6.56271486 22.0250442,5.97773706 C21.6773951,5.39275926 21.2706105,4.84192125 20.8130731,4.33531652 C20.3555358,3.82871179 19.847398,3.36634035 19.2985665,2.95666292 C18.7495827,2.54728237 18.1599051,2.19044739 17.5408122,1.89328283 C16.9218717,1.59596983 16.2733636,1.35832723 15.6079378,1.1849565 C14.9425121,1.01158576 14.2601687,0.90278375 13.574015,0.860183235 C12.8878614,0.81758272 12.1980499,0.841183702 11.5175355,0.928759674 C10.837021,1.01692938 10.165956,1.16892564 9.51744788,1.38326412 C8.86878731,1.5976026 8.24268354,1.87428329 7.65117703,2.20796259 C7.05951812,2.54149345 6.50245646,2.93187447 5.9902036,3.3709418 C5.47779833,3.81000913 5.01020184,4.29761432 4.59579674,4.82425762 C4.18169647,5.35104935 3.82093999,5.91687918 3.52038579,6.51076302 C3.2198316,7.10464685 2.97947969,7.72673311 2.80435962,8.36499866 C2.62908715,9.00326422 2.51919892,9.65785749 2.47621906,10.3160132 C2.44183518,10.8425377 2.45037018,11.3713422 2.5004975,11.8961948 L2.54587082,12.2889959 C2.56873245,12.4574683 2.44710859,12.6118395 2.2744271,12.6339562 C2.10174561,12.6560728 1.94308591,12.537771 1.9203767,12.3695955 C1.92022429,12.3682596 1.91976705,12.3652909 1.91961464,12.3638066 C1.83883689,11.6700268 1.82694885,10.9689737 1.88608426,10.273858 C1.94491484,9.57889068 2.07446407,8.89000919 2.27214094,8.22101783 C2.4696654,7.55202647 2.7351651,6.90277681 3.0625436,6.28558887 C3.3899221,5.66825249 3.77917941,5.08297782 4.22269498,4.5404521 C4.66636297,3.99807481 5.1641368,3.49844648 5.7064146,3.05106685 C6.24884481,2.60368723 6.8359314,2.20855632 7.45654838,1.87368956 C8.07716536,1.53867436 8.73146513,1.26407174 9.40634037,1.05492845 C10.0812156,0.845488284 10.7766663,0.701655884 11.4788231,0.623876547 C12.1811323,0.546690945 12.8906048,0.535409973 13.5939809,0.592260137 Z M14.4714101,2.0383027 C14.8850532,2.06323958 15.295648,2.12765988 15.6957265,2.23022767 C16.0958049,2.33279546 16.4850623,2.47351074 16.8560303,2.64985016 C17.2271507,2.82618957 17.5798294,3.03830154 17.9073603,3.28173305 C18.1531228,3.46430669 18.3846539,3.66458106 18.6000247,3.87986349 L18.802,4.093 L18.595862,3.88377843 C18.376519,3.67264287 18.1416158,3.47718333 17.8933385,3.29984198 C17.5623021,3.06323843 17.2074897,2.85899345 16.835912,2.69066947 C16.4643344,2.52234548 16.0759915,2.39009092 15.678504,2.29598386 C15.2810165,2.2018768 14.8743844,2.14591724 14.466533,2.12869891 C14.0585291,2.11177745 13.649306,2.13374566 13.2464841,2.19415824 C12.8436622,2.25457082 12.447394,2.35342776 12.0653,2.4890963 C11.683206,2.62476484 11.3152863,2.79724497 10.9685516,3.00297429 C10.6218169,3.2087036 10.2964197,3.4476821 9.99769447,3.71441773 C9.69912161,3.98159866 9.42752548,4.27638828 9.18824045,4.59403672 C8.94895541,4.91168516 8.74243871,5.25204397 8.5723482,5.60858208 C8.40210529,5.96512019 8.26844097,6.33768915 8.1733366,6.71901571 C8.07823223,7.10034227 8.0215354,7.49057486 8.00431297,7.88199492 C7.98724296,8.27341498 8.00949494,8.66602251 8.07061169,9.05254425 C8.13172844,9.43891756 8.23186237,9.81905665 8.36903213,10.1856883 C8.5062019,10.5521714 8.68071232,10.9051471 8.88875313,11.237639 C9.04478373,11.4870078 9.21976091,11.724938 9.41143423,11.9492378 L9.60858957,12.1689129 C9.67808891,12.242833 9.67305936,12.3575723 9.59715875,12.4254066 C9.52125815,12.4930924 9.40344456,12.4881941 9.33394522,12.4142741 C9.33333557,12.4136803 9.33211629,12.4123444 9.33165905,12.4117507 C9.05152791,12.102563 8.80187894,11.7673994 8.58880858,11.4117519 C8.3755858,11.0561044 8.1986368,10.6802698 8.06161945,10.2915216 C7.92444969,9.90277334 7.82705915,9.50111135 7.77081955,9.09455103 C7.71457995,8.68799072 7.69933886,8.27653209 7.7250963,7.86774527 C7.75100614,7.45910688 7.81806691,7.0531403 7.92490692,6.65786096 C8.03159451,6.26258162 8.17821375,5.87784108 8.36202123,5.51106104 C8.54567631,5.144281 8.76667204,4.79560989 9.0204361,4.47187566 C9.27404775,4.147993 9.56042774,3.84904723 9.87302239,3.57978822 C10.1859219,3.31082609 10.5251884,3.07125386 10.8850304,2.86671201 C11.2448724,2.66202173 11.6252899,2.49236184 12.0186623,2.36099789 C12.4120347,2.2294855 12.8185145,2.13597217 13.2298713,2.08209068 C13.6413806,2.02806076 14.0577671,2.01351425 14.4714101,2.0383027 Z M14.8748416,2.2391337 C15.2436759,2.28796843 15.6073282,2.37213043 15.9586352,2.4899869 C16.3099422,2.60784338 16.6489039,2.75969121 16.9689667,2.94226484 C17.2090138,3.07908374 17.4384302,3.2332694 17.6550941,3.40256749 L17.863,3.573 L17.6518649,3.40653809 C17.4321718,3.24138688 17.2003264,3.09184905 16.9584504,2.95992847 C16.6361014,2.78403436 16.2962252,2.63931135 15.945223,2.52872814 C15.5943733,2.41814492 15.2325499,2.34140462 14.8669163,2.29984314 C14.5012826,2.25828166 14.1316863,2.25160214 13.7654431,2.27995301 C13.3990474,2.3084523 13.0360047,2.37168512 12.6830212,2.46876086 C12.3300377,2.56568817 11.9871133,2.69645839 11.6611065,2.85839972 C11.3349473,3.02034105 11.0257056,3.21375035 10.7393257,3.43461992 C10.4527933,3.65534105 10.1889701,3.90367088 9.95212362,4.17396892 C9.71558198,4.44456383 9.50601707,4.73683008 9.32815361,5.04616622 C9.15029014,5.35550237 9.00397573,5.68161153 8.89210617,6.0182595 C8.7802366,6.35490747 8.70281189,6.70194581 8.6607465,7.05284343 C8.6186811,7.40374105 8.61212744,7.75820109 8.64078068,8.10969244 C8.66958633,8.4611838 8.73375129,8.80955804 8.83190388,9.14828409 C8.93005647,9.48701013 9.06219667,9.81579111 9.22619075,10.1285412 C9.39003241,10.4412913 9.58557553,10.7378622 9.80900983,11.0126132 C9.97647125,11.2187879 10.1596215,11.4126054 10.3560814,11.5925002 L10.5568899,11.7676962 C10.6273037,11.8263276 10.6356863,11.9293407 10.5756364,11.9979171 C10.5155865,12.0664936 10.409661,12.0746574 10.3392472,12.0161745 C10.3386375,12.0157292 10.3374182,12.0146902 10.3368086,12.0140964 C10.0516479,11.7679931 9.79087294,11.4951717 9.56042774,11.2002336 C9.32983012,10.9052956 9.12956227,10.5883893 8.96343444,10.255749 C8.79715421,9.92310878 8.665014,9.57473454 8.56884276,9.21760269 C8.47282392,8.86047085 8.41277405,8.49443298 8.38976001,8.1266139 C8.36689838,7.75879482 8.38107259,7.3890461 8.43197781,7.02449257 C8.48273063,6.65993903 8.57036686,6.30058068 8.69321001,5.95339391 C8.81605315,5.60620714 8.9741032,5.27104351 9.16431194,4.95473097 C9.35436827,4.63827001 9.57658329,4.34066014 9.82547021,4.06665125 C10.0746619,3.79293923 10.3508304,3.5428282 10.6492508,3.32166176 C10.9476713,3.10049532 11.2683437,2.90827349 11.6050193,2.7487071 C11.9416948,2.58914071 12.2940687,2.46237821 12.6555873,2.37020079 C13.0171058,2.27802337 13.3874642,2.22057947 13.7596515,2.19846282 C14.1319912,2.17664305 14.5060074,2.19015053 14.8748416,2.2391337 Z M12.1751883,0.000454379222 C12.960409,0.00802450554 13.7445628,0.0890693873 14.5122562,0.244479628 C15.2799497,0.399593 16.0313352,0.628774864 16.751324,0.927275335 C17.4714653,1.22577581 18.1605147,1.59344645 18.8056698,2.02256871 C19.450825,2.45154254 20.0520858,2.94181954 20.5983262,3.48375152 C21.1444143,4.02583194 21.6354821,4.61941891 22.0622325,5.25337988 C22.4891352,5.88719241 22.8515682,6.56137896 23.1422157,7.26302576 C23.4330156,7.96467257 23.65203,8.69363121 23.7952962,9.43594889 C23.9100311,10.0296843 23.9762872,10.6317795 23.9946886,11.2347866 L23.999,11.674 L23.9859317,11.2351085 C23.9558885,10.632961 23.8781468,10.0334545 23.7523164,9.44411275 C23.5953332,8.70743555 23.3633639,7.98664078 23.0611332,7.29568121 C22.7590549,6.60472164 22.38702,5.94359728 21.9528015,5.32462812 C21.5187354,4.70565897 21.0224856,4.1286966 20.4741114,3.60442824 C19.9255848,3.08045676 19.3249336,2.60932772 18.6835888,2.19979873 C18.0422439,1.79026974 17.3602054,1.44263766 16.650428,1.16373046 C15.9406507,0.884823254 15.203287,0.674789357 14.4525112,0.537339613 C13.7017353,0.399741434 12.9376997,0.335024276 12.1750359,0.341703799 C11.4122196,0.349273925 10.6510798,0.428240733 9.90594313,0.579197958 C9.16080649,0.730006749 8.4318254,0.95250909 7.73302166,1.24254883 C7.03421792,1.53244014 6.36543911,1.88942355 5.73948775,2.30607736 C5.11338399,2.72273118 4.52980284,3.19875853 3.99971791,3.72495653 C3.46978539,4.25130296 2.99319666,4.8276716 2.5792488,5.44307834 C2.16514852,6.05833664 1.8136891,6.71263305 1.53172903,7.39349912 C1.24976896,8.07436519 1.03746065,8.78165248 0.898614366,9.50185352 C0.787415411,10.0780143 0.723329697,10.66225 0.705654915,11.2476446 L0.701089906,11.6867998 C0.702918836,11.8756076 0.547307359,12.0298304 0.353745581,12.0314787 C0.160183802,12.0332444 0.00182893019,11.8816934 0,11.6931824 L0,11.6870966 C0.00792536415,10.9113814 0.0923609745,10.1367051 0.254068885,9.37791125 C0.415624385,8.61911741 0.654299775,7.8766513 0.965217907,7.16491099 C1.27613604,6.45317068 1.6591445,5.77215618 2.10601311,5.1346328 C2.55288172,4.49710941 3.06361048,3.90292871 3.62798785,3.3630748 C4.19267005,2.82336933 4.81100086,2.33799064 5.47139707,1.91614164 C6.13179328,1.49429264 6.83410247,1.13597333 7.56521731,0.848456961 C8.29633216,0.560940595 9.05594783,0.344227175 9.82943289,0.202621282 C10.6030704,0.0607185221 11.3899676,-0.006225144 12.1751883,0.000454379222 Z M14.1428123,2.33502196 C14.4778114,2.33917811 14.8120484,2.3755444 15.139122,2.44337867 C15.4661957,2.51121294 15.7861061,2.61051519 16.0926043,2.73935577 C16.322478,2.83598621 16.5448073,2.94914846 16.7574062,3.07727702 L16.963,3.208 L16.7548914,3.08125691 C16.5400064,2.95719172 16.3160767,2.84834332 16.0852886,2.75627723 C15.7775711,2.63352243 15.4575083,2.54060284 15.1316539,2.47929966 C14.8057995,2.41799649 14.4738487,2.38816128 14.1425075,2.39009092 C13.8111663,2.39202056 13.4802824,2.42556661 13.1562569,2.4899869 C12.8322314,2.55455563 12.514912,2.64985016 12.2105476,2.77423772 C11.9061831,2.89862529 11.6144688,3.05195746 11.3415009,3.23156241 C11.0683807,3.41101894 10.814007,3.61689669 10.5829521,3.84474265 C10.3518973,4.0725886 10.1441613,4.32255121 9.9630972,4.58928683 C9.78218552,4.8561709 9.62794575,5.13982798 9.50388331,5.43506291 C9.37982088,5.73029784 9.2859358,6.03725904 9.22390458,6.35000916 C9.16187337,6.66261084 9.13169602,6.98100145 9.13382977,7.29894676 C9.13581111,7.61689206 9.16979873,7.93424363 9.23503058,8.24521255 C9.30041483,8.55618146 9.3968909,8.86047085 9.52262985,9.15244023 C9.6483688,9.44440962 9.80352304,9.72420742 9.98519678,9.98604473 C10.1667181,10.247882 10.3749113,10.4920557 10.6053565,10.713519 C10.7781904,10.8797278 10.9636268,11.033329 11.1593509,11.1730702 L11.3584185,11.308145 C11.4279179,11.3529721 11.4469692,11.4441104 11.4010936,11.5117963 C11.3550655,11.5794821 11.2614852,11.5980363 11.1919859,11.5533577 L11.1896997,11.5518734 C10.9072824,11.3623234 10.6437641,11.1465006 10.4046314,10.9076705 C10.1654988,10.6688404 9.95090433,10.4071516 9.7649631,10.1277991 C9.57902186,9.84844655 9.42158146,9.55143042 9.29569009,9.24253958 C9.16964632,8.93379717 9.07484677,8.61318006 9.01281556,8.28707089 C8.95093675,7.96096172 8.92197869,7.62921207 8.92639861,7.29805615 C8.93081852,6.96704867 8.968464,6.63663492 9.03918264,6.313346 C9.10974886,5.99005707 9.21323583,5.67389297 9.34750978,5.37093949 C9.48163133,5.067986 9.64653987,4.77839156 9.8379679,4.50705448 C10.0297007,4.23601427 10.2482579,3.98293456 10.4899815,3.75345583 C10.7317051,3.5239771 10.9964428,3.31795091 11.2791649,3.13953343 C11.561887,2.96111594 11.8624412,2.81015872 12.1750359,2.68918513 C12.4874781,2.56821154 12.8119608,2.47737002 13.1419303,2.41784805 C13.4720522,2.35862295 13.8078133,2.33071738 14.1428123,2.33502196 Z M14.4019108,2.4890963 C14.7017029,2.51477535 14.9985992,2.56925058 15.2869606,2.65163136 C15.5753219,2.73401215 15.8548434,2.84400163 16.1208003,2.978928 C15.8522524,2.84889995 15.5710544,2.74425409 15.2823882,2.66751379 C14.9937221,2.59077349 14.6974354,2.54193875 14.3993198,2.52204861 C14.1012042,2.50201004 13.8015644,2.51091607 13.505735,2.54802454 C13.2099055,2.585133 12.9181912,2.65044389 12.6359263,2.74262131 C12.3536614,2.83494717 12.0809984,2.95399112 11.8231192,3.09752665 C11.56524,3.24106218 11.3219923,3.40923773 11.0982532,3.59878776 C10.8745141,3.78833778 10.670436,3.99926228 10.4896767,4.22755354 C10.3089174,4.45569637 10.151477,4.70120596 10.019794,4.95888712 C9.88826348,5.21671672 9.78249035,5.48642102 9.70491322,5.76354702 C9.6273361,6.04052458 9.57795499,6.3247754 9.55783675,6.610659 C9.53771852,6.89654259 9.54655835,7.18420739 9.58420383,7.46786448 C9.6216969,7.75167 9.68784321,8.0314678 9.78111865,8.30235958 C9.8745465,8.57310292 9.99495107,8.83464336 10.1401986,9.08208259 C10.2854461,9.32952182 10.4555367,9.56271139 10.6472695,9.77734674 C10.8390024,9.99183365 11.0523775,10.1876179 11.28328,10.3609886 C11.4371133,10.4765691 11.5987366,10.5821881 11.7666143,10.6772297 L12.0229298,10.8117822 C12.090143,10.8444377 12.1174246,10.9238498 12.0838942,10.9891607 C12.0505162,11.05462 11.9689764,11.0811897 11.9017632,11.0485342 C11.9011536,11.0482374 11.9000867,11.0476436 11.899477,11.0473468 C11.626052,10.9085611 11.3663439,10.743948 11.1258396,10.5561791 C10.8853353,10.3684103 10.6641871,10.1576343 10.4665102,9.92785866 C10.2688334,9.69808306 10.0949326,9.4496048 9.9475513,9.18717376 C9.80017,8.92474271 9.67946061,8.64865575 9.58725205,8.36381119 C9.49534831,8.07911507 9.43194539,7.78580978 9.39871983,7.48953582 C9.36534185,7.19326186 9.3618364,6.89416765 9.3885083,6.59774525 C9.4151802,6.30132285 9.47202945,6.00786913 9.55783675,5.72287614 C9.64364406,5.43788315 9.75825702,5.16164776 9.89877982,4.89877141 C10.0396074,4.6360435 10.2061925,4.38682306 10.3962488,4.15600843 C10.5863052,3.92519379 10.7996804,3.71293339 11.0321069,3.52338336 C11.2645334,3.3336849 11.5160113,3.16684526 11.7816635,3.0253878 C12.0471632,2.88393034 12.3266846,2.7680035 12.6148936,2.67968536 C12.9031025,2.59151566 13.1998464,2.53080621 13.4996385,2.4987445 C13.7994307,2.46668279 14.1021186,2.46341724 14.4019108,2.4890963 Z M14.5572174,2.66024053 C14.8240888,2.70298948 15.0862355,2.77141748 15.3389327,2.8635949 C15.0844066,2.77616736 14.8214978,2.71263768 14.5549313,2.67493548 C14.2883647,2.63723328 14.0181403,2.62521014 13.7497447,2.63931135 C13.4811968,2.65326414 13.2144778,2.69319284 12.9544649,2.75791 C12.694452,2.82262716 12.4411452,2.91213277 12.1994216,3.02464563 C11.957698,3.13715849 11.7275576,3.27267859 11.5132679,3.42853413 C11.2989783,3.58438967 11.1006918,3.76058065 10.9222187,3.95369309 C10.7437456,4.14695396 10.5850859,4.35713629 10.4494402,4.5803808 C10.3136422,4.80362531 10.2007057,5.03963513 10.1120026,5.28380882 C10.0236043,5.52813093 9.95943934,5.78046848 9.92133663,6.03622 C9.88323392,6.29197152 9.87119346,6.55113702 9.88536767,6.80866975 C9.89954188,7.06620248 9.93993075,7.32225087 10.0054674,7.57161974 C10.0710041,7.82113704 10.1615361,8.06412325 10.275387,8.29597692 C10.3892379,8.5278306 10.5264077,8.74870016 10.6840005,8.95413261 C10.8415933,9.15971349 11.0197616,9.34985725 11.2153047,9.52100148 C11.4106954,9.69214571 11.6233086,9.84429041 11.8491815,9.97446689 C11.9996618,10.0612512 12.1558998,10.1383379 12.3165409,10.205287 L12.5606353,10.2980527 C12.624343,10.3200209 12.6575686,10.3880036 12.6351642,10.4500489 C12.6126074,10.5120943 12.5428032,10.5444529 12.4790955,10.5226331 C12.4786383,10.5224847 12.477419,10.5220394 12.4769617,10.5218909 C12.2169488,10.426448 11.9663854,10.3071071 11.730301,10.165056 C11.494369,10.0230048 11.272916,9.85839162 11.0706668,9.67418522 C10.8682652,9.49012724 10.684915,9.28662443 10.5236643,9.06798137 C10.3624136,8.84933831 10.2234149,8.615555 10.1091068,8.37108445 C9.99495107,8.12646547 9.90533349,7.87130768 9.8422354,7.61036097 C9.7789849,7.34926583 9.74225388,7.0825302 9.73280441,6.81490397 C9.72320253,6.54727774 9.7410346,6.27905778 9.78553856,6.01543926 C9.83004253,5.75167231 9.90137081,5.49265524 9.99723723,5.24284107 C10.0934085,4.99317534 10.2142703,4.7527125 10.3579937,4.52620245 C10.5017171,4.29969239 10.6684546,4.08728356 10.8547007,3.89313208 C11.0409467,3.69898061 11.2468538,3.52293806 11.4681543,3.36826999 C11.6894549,3.21360192 11.9259965,3.08015989 12.1735117,2.97046727 C12.421027,2.86092309 12.6792109,2.77497989 12.9434914,2.71441888 C13.2076194,2.65385787 13.4776914,2.61853062 13.748373,2.60947615 C14.0190547,2.60027325 14.2904984,2.61734314 14.5572174,2.66024053 Z"></path>
                            </g>
                        </g>
                    </g>
                </g>
            </g>
        </g>
    </g>
</svg>