<?xml version="1.0" encoding="UTF-8"?>
<svg width="68px" height="68px" viewBox="0 0 68 68" version="1.1" xmlns="http://www.w3.org/2000/svg" xmlns:xlink="http://www.w3.org/1999/xlink">
    <title>icon-short-leg</title>
    <g id="Dashboard" stroke="none" stroke-width="1" fill="none" fill-rule="evenodd">
        <g id="Dashboard-Welcome_incomplete" transform="translate(-397.000000, -1123.000000)">
            <g id="Group-6" transform="translate(355.000000, 593.000000)">
                <g id="new-/-preferences-copy-2" transform="translate(18.000000, 512.000000)">
                    <g id="icon-short-leg" transform="translate(24.000000, 18.000000)">
                        <circle id="Oval" fill="#282829" cx="34" cy="34" r="34"></circle>
                        <g id="Group" transform="translate(22.000000, 22.000000)" fill-rule="nonzero">
                            <g id="Asset-4" transform="translate(0.000000, 3.000000)">
                                <path d="M5.82716081,2.22161339 C5.99708179,2.55859955 6.40808115,2.69401277 6.7450673,2.52409178 L9.1851231,1.29394954 C9.52210926,1.12402855 9.65752248,0.7130292 9.48760149,0.376043048 L9.48760149,0.376043048 C9.31768051,0.0388189107 8.90668116,-0.0965943101 8.569695,0.0733266735 L6.1296392,1.3037069 C5.79265305,1.47362789 5.65723983,1.88462724 5.82716081,2.22161339 L5.82716081,2.22161339 L5.82716081,2.22161339 Z" id="Path" fill="#FBC25E"></path>
                                <path d="M5.06085049,5.97177426 C5.2457645,6.30066894 5.66247549,6.41751936 5.99137016,6.23260535 L13.1535158,2.20543044 C13.4824105,2.02051643 13.5992609,1.60380545 13.4143469,1.27491077 L13.4143469,1.27491077 C13.2294329,0.94577811 12.8127219,0.82916567 12.4838272,1.01407968 L5.3214436,5.0410166 C4.99254892,5.22593062 4.8756985,5.6426416 5.06061251,5.97153628 L5.06061251,5.97153628 L5.06085049,5.97177426 Z" id="Path" fill="#FBC25E"></path>
                                <path d="M18.5072167,11.7738381 L11.6668262,15.8747882 C11.3431672,16.0687456 11.237978,16.4885504 11.4321734,16.8122094 C11.6261308,17.1358685 12.0459356,17.2410576 12.3695946,17.0471002 L19.2099852,12.9461501 C19.5336442,12.7521927 19.6388334,12.3323879 19.444638,12.0087289 C19.2506805,11.6850699 18.8308757,11.5798807 18.5072167,11.7738381 L18.5072167,11.7738381 Z" id="Path" fill="#FBC25E"></path>
                                <path d="M18.8568161,15.8195758 C18.6702362,15.4913951 18.2530492,15.3766865 17.9248685,15.5635044 L15.417701,16.9897459 C15.0897583,17.1763258 14.9750497,17.5935128 15.1616296,17.9214555 L15.1616296,17.9214555 C15.3482095,18.2498742 15.7653965,18.3645828 16.0935772,18.1777649 L18.6007447,16.7515234 C18.9286874,16.5649435 19.043396,16.1477565 18.8568161,15.8198138 L18.8568161,15.8198138 L18.8568161,15.8195758 Z" id="Path" fill="#FBC25E"></path>
                                <path d="M19.8220815,5.86063547 L20.9201423,9.14958224 C21.0089105,9.41517302 21.3240021,9.52607383 21.5593688,9.37447765 L21.5593688,9.37447765 C21.6828828,9.29499081 21.757134,9.15767371 21.7559582,9.01059925 L21.7233402,4.72735294 L19.8218435,5.86087345 L19.8220815,5.86063547 Z" id="Path" fill="#FFFFFF"></path>
                                <path d="M18.2751818,3.99793023 L20.3254188,2.77564148 L16.2118555,0.962675015 C16.0754904,0.902702903 15.9179446,0.917457946 15.7953825,1.00194247 L15.7953825,1.00194247 C15.5700112,1.15734639 15.5471646,1.48171936 15.7482616,1.66734733 L18.2751818,3.99793023 L18.2751818,3.99793023 Z" id="Path" fill="#FFFFFF"></path>
                                <path d="M19.2259301,9.01416901 C19.0533913,8.63743944 18.5926532,8.51416343 18.2354383,8.72382784 L5.9768531,15.924051 C5.66509332,16.1070612 5.54990878,16.5014016 5.71388015,16.8236327 L5.71388015,16.8236327 C5.89236858,17.1746599 6.32978422,17.3024577 6.66938821,17.1030266 L18.95082,9.89090417 C19.2509185,9.71455761 19.3741945,9.33806602 19.2256921,9.01416901 L19.2259301,9.01416901 Z" id="Path" fill="#FBC25E"></path>
                                <path d="M2.35425197,11.0767813 C2.54749544,11.3863992 2.95159324,11.4856388 3.26597086,11.3002488 C5.70007705,9.86282199 15.1737668,4.25162178 15.1737668,4.25162178 C15.5671553,4.0183969 15.6245096,3.47198433 15.2884754,3.16189043 C15.0664358,2.9572237 14.7365892,2.92247796 14.47671,3.07645397 L2.57676754,10.1341244 C2.2519186,10.3266539 2.14934725,10.7488386 2.34949228,11.0691658 L2.35425197,11.0767813 Z" id="Path" fill="#FBC25E"></path>
                                <path d="M23.9035169,2.07096916 L23.9035169,2.07096916 C23.7102734,1.74659619 23.2909446,1.64045507 22.9668096,1.83369854 L0.333286993,15.2826826 C0.333286993,15.2826826 0.333286993,15.2826826 0.333286993,15.2826826 C0.00938999183,15.4759261 -0.0967511268,15.8952549 0.0964923447,16.2193899 L0.0964923447,16.2193899 C0.289735816,16.5435249 0.70906463,16.649666 1.0334376,16.4564225 L15.5081352,7.85566012 L23.6664842,3.00791442 C23.9906192,2.81467094 24.0967603,2.39510415 23.9035169,2.07096916 Z" id="Path" fill="#FFFFFF"></path>
                            </g>
                        </g>
                    </g>
                </g>
            </g>
        </g>
    </g>
</svg>