<?xml version="1.0" encoding="UTF-8"?>
<svg width="68px" height="68px" viewBox="0 0 68 68" version="1.1" xmlns="http://www.w3.org/2000/svg" xmlns:xlink="http://www.w3.org/1999/xlink">
    <title>Group 17</title>
    <g id="Dashboard" stroke="none" stroke-width="1" fill="none" fill-rule="evenodd">
        <g id="Dashboard-Welcome_incomplete" transform="translate(-397.000000, -843.000000)">
            <g id="Group-6" transform="translate(355.000000, 593.000000)">
                <g id="new-/-preferences" transform="translate(18.000000, 232.000000)">
                    <g id="Group-17" transform="translate(24.000000, 18.000000)">
                        <circle id="Oval" fill="#282829" cx="34" cy="34" r="34"></circle>
                        <g id="Group" transform="translate(22.000000, 22.000000)" fill="#FBC25E" fill-rule="nonzero">
                            <g>
                                <path d="M14.6175074,12.3492819 L17.2649224,12.3492819 L15.9401848,9.98 L14.6175074,12.3492819 L14.6175074,12.3492819 Z M13.2927698,14.7165036 L14.6175074,12.3492819 L17.2649224,12.3492819 L18.5875998,14.7165036 L13.2927698,14.7165036 Z M15.9401848,14.7165036 L18.5875998,14.7165036 L19.9102772,17.0857855 L21.2350148,19.4550674 L18.5875998,19.4550674 L17.2649224,17.0857855 L15.9401848,14.7165036 Z M18.5875998,19.4550674 L21.2350148,19.4550674 L22.5576922,21.8222891 L19.9102772,21.8222891 L18.5875998,19.4550674 Z M22.5576922,21.8222891 L23.8824298,24.191571 L18.5875998,24.191571 L19.911,21.824 L19.9102772,21.8222891 L22.5576922,21.8222891 Z M13.2927698,24.191571 L14.6175074,21.8222891 L19.9102772,21.8222891 L18.5875998,24.191571 L13.2927698,24.191571 Z M8,24.191571 L9.32267738,21.8222891 L11.9700924,21.8222891 L10.647415,24.191571 L8,24.191571 Z M10.6453548,19.4550674 L11.9700924,17.0857855 L13.2927698,14.7165036 L15.9401848,14.7165036 L14.6175074,17.0857855 L13.2927698,19.4550674 L10.6453548,19.4550674 Z M9.32267738,21.8222891 L10.646,19.457 L10.6453548,19.4550674 L13.2927698,19.4550674 L11.9700924,21.8222891 L9.32267738,21.8222891 Z M14.6175074,21.8222891 L17.2649224,21.8222891 L15.9401848,19.4550674 L14.6175074,21.8222891 L14.6175074,21.8222891 Z" id="Combined-Shape"></path>
                                <path d="M12.7791781,8.84642469 L10.67144,11.4608215 L11.3917419,11.4696665 C11.3917419,11.4696665 11.0727365,12.7430155 10.0341066,13.6370474 C9.08860453,14.4511335 8.11804262,14.6596728 8.11804262,14.6596728 L7.63005249,7.73330741 L10.8817397,6.94439575 L10.8817397,6.08540397 L7.64156648,6.08540397 L7.61176556,4.87158904 C8.66123219,4.59841265 9.4374108,3.6070851 9.4374108,2.46743264 C9.4374108,1.11447805 8.34629061,0 6.99983068,0 C5.65337075,0 4.5619119,1.08726247 4.5619119,2.43987686 C4.5619119,3.57952932 5.33809052,4.60283518 6.38755715,4.87601158 L6.35775622,6.08506377 L3.16092983,6.08506377 L3.16092983,6.94405556 L6.39094362,7.73296722 L5.89042355,14.6593326 C5.89042355,14.6593326 4.92697322,14.5059048 3.96995719,13.6367072 C2.95537118,12.7151196 2.61029003,11.4693263 2.61029003,11.4693263 L3.32957597,11.4604813 L1.22116059,8.84608449 L0,12.151757 L0.646138216,11.8312936 C0.646138216,11.8312936 0.819864057,13.5278449 2.40744056,15.1852738 C3.33093055,16.1493857 4.81657435,16.8916907 5.89888972,17.3397272 L6.99983068,18.4545455 L8.10077163,17.3397272 C9.18308701,16.8913505 10.6690694,16.1490455 11.5925594,15.1852738 C13.1804746,13.5278449 13.3538618,11.8312936 13.3538618,11.8312936 L14,12.151757 L12.7795167,8.84642469 L12.7791781,8.84642469 Z M7.07954545,3.5 C6.50851614,3.5 6.04545455,3.03693841 6.04545455,2.46590909 C6.04545455,1.89487977 6.50851614,1.43181818 7.07954545,1.43181818 C7.65057477,1.43181818 8.11363636,1.89487977 8.11363636,2.46590909 C8.11363636,3.03693841 7.65057477,3.5 7.07954545,3.5 Z" id="Shape"></path>
                            </g>
                        </g>
                    </g>
                </g>
            </g>
        </g>
    </g>
</svg>